<?xml version="1.0" standalone="no"?>
<!DOCTYPE svg PUBLIC "-//W3C//DTD SVG 20010904//EN"
 "http://www.w3.org/TR/2001/REC-SVG-20010904/DTD/svg10.dtd">
<svg version="1.0" xmlns="http://www.w3.org/2000/svg"
 width="158.000000pt" height="158.000000pt" viewBox="0 0 158.000000 158.000000"
 preserveAspectRatio="xMidYMid meet">

<g transform="translate(0.000000,158.000000) scale(0.100000,-0.100000)"
fill="#124aaf" stroke="none">
<path d="M675 1496 c-152 -36 -253 -92 -360 -200 -121 -122 -180 -239 -206
-406 -21 -138 -1 -264 66 -405 72 -151 169 -253 315 -330 296 -155 680 -76
886 183 124 156 184 367 155 552 -26 167 -85 284 -206 406 -137 139 -285 203
-480 210 -72 2 -131 -1 -170 -10z m21 -391 c11 -28 -16 -45 -72 -45 -31 0 -56
-5 -61 -12 -4 -7 -10 -38 -13 -68 -5 -51 -7 -55 -30 -55 -24 0 -25 3 -28 66
-3 61 -1 68 27 97 27 30 33 32 100 32 55 0 73 -4 77 -15z m399 -1 c29 -19 45
-62 45 -125 0 -36 -5 -51 -17 -57 -32 -16 -43 -3 -43 49 0 76 -11 89 -74 89
-56 0 -83 17 -72 45 8 21 128 21 161 -1z m-280 -175 c11 0 39 3 62 7 39 6 46
3 78 -29 29 -29 35 -42 35 -76 0 -38 -6 -48 -81 -126 -45 -47 -87 -85 -94 -85
-22 0 -175 166 -176 191 -4 87 40 134 116 124 22 -3 49 -6 60 -6z m-267 -309
c2 -30 8 -60 14 -67 6 -8 32 -13 63 -13 55 0 82 -17 71 -45 -4 -11 -22 -15
-76 -15 -66 0 -74 2 -101 29 -26 26 -29 36 -29 94 0 70 4 79 35 75 17 -3 20
-11 23 -58z m586 44 c9 -24 7 -89 -3 -117 -20 -51 -49 -67 -123 -67 -52 0 -70
4 -74 15 -11 28 16 45 72 45 49 0 55 2 64 26 6 14 10 42 10 63 0 21 3 41 7 44
12 13 41 7 47 -9z"/>
<path d="M718 869 c-33 -19 -21 -52 40 -112 l58 -58 57 60 c60 63 67 80 41
105 -21 21 -36 20 -67 -4 -31 -25 -36 -25 -67 0 -28 22 -38 24 -62 9z"/>
</g>
</svg>
