<?xml version="1.0" standalone="no"?>
<!DOCTYPE svg PUBLIC "-//W3C//DTD SVG 20010904//EN"
 "http://www.w3.org/TR/2001/REC-SVG-20010904/DTD/svg10.dtd">
<svg version="1.0" xmlns="http://www.w3.org/2000/svg"
 width="176.000000pt" height="167.000000pt" viewBox="0 0 176.000000 167.000000"
 preserveAspectRatio="xMidYMid meet">

<g transform="translate(0.000000,167.000000) scale(0.100000,-0.100000)"
fill="#124aaf" stroke="none">
<path d="M775 1588 c-259 -22 -490 -198 -592 -448 -76 -190 -66 -393 30 -590
33 -69 58 -102 132 -176 78 -78 104 -98 185 -137 112 -54 209 -77 320 -77 111
0 208 23 320 77 81 39 107 59 185 137 74 74 99 107 132 176 74 152 98 301 70
447 -29 155 -93 277 -199 384 -155 156 -355 227 -583 207z m195 -426 l125 -48
3 -119 c2 -66 -2 -143 -8 -172 -22 -104 -128 -225 -221 -254 -74 -23 -192 60
-255 182 -27 51 -29 62 -32 209 l-4 155 124 47 c68 25 128 47 133 47 6 0 66
-21 135 -47z"/>
<path d="M740 1102 l-95 -38 2 -112 c1 -95 5 -120 26 -165 27 -60 86 -123 135
-143 29 -13 36 -12 71 5 54 28 115 101 134 162 11 34 17 85 17 154 l0 102 -87
33 c-49 18 -92 34 -98 36 -5 2 -53 -14 -105 -34z m150 -112 l0 -40 40 0 40 0
0 -50 0 -50 -40 0 -40 0 0 -40 0 -40 -50 0 -50 0 0 40 0 40 -40 0 -40 0 0 50
0 50 40 0 40 0 0 40 0 40 50 0 50 0 0 -40z"/>
</g>
</svg>
