<?xml version="1.0" standalone="no"?>
<!DOCTYPE svg PUBLIC "-//W3C//DTD SVG 20010904//EN"
 "http://www.w3.org/TR/2001/REC-SVG-20010904/DTD/svg10.dtd">
<svg version="1.0" xmlns="http://www.w3.org/2000/svg"
 width="165.000000pt" height="162.000000pt" viewBox="0 0 165.000000 162.000000"
 preserveAspectRatio="xMidYMid meet">

<g transform="translate(0.000000,162.000000) scale(0.100000,-0.100000)"
fill="#124aaf" stroke="none">
<path d="M709 1525 c-350 -70 -604 -405 -575 -757 26 -308 244 -566 546 -644
87 -23 254 -23 340 -1 145 38 299 136 386 245 189 237 214 558 63 814 -156
265 -461 402 -760 343z m223 -331 c61 -31 101 -120 88 -196 -8 -46 -30 -79
-77 -115 -31 -24 -46 -28 -98 -28 -78 0 -125 29 -160 99 -30 59 -31 97 -6 151
46 99 156 138 253 89z m-91 -394 c59 0 110 4 113 9 3 5 15 7 26 4 16 -4 20
-14 20 -44 0 -32 -4 -41 -24 -48 -26 -11 -36 -30 -36 -72 0 -24 4 -29 25 -29
26 0 36 25 13 32 -7 3 -9 12 -5 22 5 12 15 16 34 14 25 -3 28 -7 25 -36 -2
-30 0 -33 20 -30 19 2 23 9 21 38 -1 21 -9 41 -22 51 -24 20 -30 79 -8 79 23
0 95 -58 112 -89 8 -17 15 -55 15 -86 l0 -55 -325 0 -325 0 0 65 c0 57 3 68
29 97 16 18 47 43 69 55 l39 23 7 -42 c4 -24 3 -45 -4 -52 -15 -15 -12 -62 4
-75 19 -16 66 -10 79 10 14 22 1 66 -22 74 -14 4 -20 18 -23 48 -4 42 8 65 26
47 6 -6 58 -10 117 -10z m-125 -121 c10 -17 -13 -36 -27 -22 -12 12 -4 33 11
33 5 0 12 -5 16 -11z"/>
<path d="M778 1160 c-47 -26 -66 -54 -73 -111 -11 -80 44 -147 126 -156 87 -8
151 53 151 143 0 105 -113 173 -204 124z"/>
</g>
</svg>
