<svg width="40" height="50" viewBox="0 0 40 50" fill="none" xmlns="http://www.w3.org/2000/svg">
<path d="M24.9479 15.0545L24.9455 15.0521C23.5935 13.7024 21.9091 13 20 13C18.0909 13 16.4066 13.7025 15.0558 15.0533C13.7041 16.405 13 18.0898 13 20C13 21.9097 13.7038 23.5939 15.0558 24.9442C16.4061 26.2962 18.0903 27 20 27C21.9102 27 23.595 26.2959 24.9467 24.9442C26.2975 23.5934 27 21.9091 27 20C27 18.0909 26.2976 16.4065 24.9479 15.0545ZM6.62669 32.9721L6.62625 32.9714C3.44691 28.2744 2 24.132 2 20.5C2 14.7209 3.83753 10.3069 7.38828 7.03283L7.38858 7.03255C11.0529 3.65235 15.2292 2 20 2C24.7708 2 28.9471 3.65235 32.6114 7.03255L32.6117 7.03283C36.1625 10.3069 38 14.7209 38 20.5C38 24.1323 36.5537 28.2748 33.376 32.9718C30.4111 37.3535 25.9728 42.1507 20 47.3603C14.0274 42.1507 9.58996 37.3536 6.62669 32.9721Z" stroke="#1D4999" stroke-width="4"/>
</svg>
