<svg id="svg" version="1.1" xmlns="http://www.w3.org/2000/svg" xmlns:xlink="http://www.w3.org/1999/xlink" width="400" height="357.63799743260586" viewBox="0, 0, 400,357.63799743260586"><g id="svgg"><path id="path0" d="M179.846 50.340 C 179.140 50.897,178.423 51.467,178.252 51.607 C 178.082 51.747,177.822 51.861,177.675 51.861 C 177.527 51.861,177.407 51.977,177.407 52.118 C 177.407 52.259,177.243 52.375,177.043 52.375 C 176.843 52.375,176.641 52.462,176.594 52.569 C 176.466 52.860,174.414 54.429,174.161 54.429 C 174.040 54.430,173.537 54.783,173.042 55.215 C 172.548 55.646,171.711 56.226,171.181 56.503 C 170.651 56.780,170.218 57.120,170.218 57.258 C 170.218 57.396,170.045 57.510,169.833 57.510 C 169.621 57.510,169.445 57.596,169.441 57.702 C 169.437 57.808,168.975 58.178,168.414 58.524 C 167.853 58.870,167.394 59.246,167.394 59.358 C 167.394 59.471,167.250 59.564,167.073 59.565 C 166.897 59.565,166.383 59.912,165.932 60.335 C 165.481 60.758,165.015 61.104,164.898 61.104 C 164.780 61.104,164.305 61.451,163.841 61.874 C 163.377 62.298,162.942 62.644,162.874 62.644 C 162.742 62.644,162.262 63.017,161.471 63.736 C 161.198 63.983,160.900 64.185,160.807 64.185 C 160.650 64.185,158.120 66.044,157.486 66.624 C 157.332 66.765,156.823 67.169,156.354 67.522 C 155.886 67.875,155.356 68.309,155.177 68.485 C 154.997 68.662,154.755 68.806,154.638 68.806 C 154.521 68.806,153.935 69.268,153.336 69.833 C 152.736 70.398,152.189 70.860,152.121 70.860 C 151.993 70.860,151.177 71.501,150.567 72.080 C 150.381 72.256,150.134 72.403,150.018 72.406 C 149.902 72.410,149.392 72.785,148.884 73.241 C 148.376 73.697,147.578 74.358,147.110 74.711 C 146.643 75.064,146.113 75.497,145.934 75.674 C 145.755 75.850,145.513 75.998,145.397 76.002 C 145.281 76.006,144.630 76.526,143.950 77.157 C 143.271 77.789,142.634 78.306,142.536 78.306 C 142.437 78.306,141.896 78.741,141.332 79.274 C 140.769 79.807,139.846 80.582,139.281 80.997 C 138.716 81.411,138.139 81.877,137.997 82.032 C 137.856 82.187,137.336 82.611,136.842 82.975 C 136.348 83.338,135.569 83.996,135.111 84.436 C 134.654 84.877,134.192 85.237,134.084 85.237 C 133.977 85.237,133.226 85.844,132.416 86.585 C 131.606 87.327,130.576 88.222,130.126 88.575 C 129.677 88.928,128.954 89.592,128.520 90.051 C 128.086 90.510,127.607 90.886,127.455 90.886 C 127.303 90.886,126.943 91.146,126.655 91.463 C 126.366 91.781,125.633 92.445,125.026 92.940 C 124.418 93.434,123.542 94.185,123.079 94.608 C 122.616 95.032,121.698 95.841,121.039 96.406 C 120.379 96.970,119.516 97.721,119.121 98.074 C 118.725 98.427,117.682 99.352,116.803 100.128 C 114.111 102.506,112.462 104.036,110.788 105.712 C 109.907 106.595,109.081 107.317,108.953 107.317 C 108.825 107.317,106.032 109.974,102.746 113.222 C 99.460 116.470,96.677 119.127,96.561 119.127 C 96.446 119.127,95.382 120.169,94.196 121.442 C 93.011 122.714,90.424 125.414,88.447 127.440 C 84.611 131.371,81.405 134.763,79.249 137.169 C 78.518 137.985,77.372 139.191,76.701 139.849 C 76.030 140.508,75.481 141.180,75.481 141.342 C 75.481 141.503,75.048 142.044,74.519 142.543 C 73.989 143.041,73.094 143.994,72.529 144.661 C 71.964 145.327,70.891 146.526,70.145 147.326 C 69.398 148.126,68.621 149.069,68.418 149.422 C 68.215 149.775,67.526 150.583,66.887 151.216 C 66.248 151.850,65.725 152.461,65.725 152.576 C 65.725 152.690,65.465 153.051,65.148 153.379 C 64.830 153.706,64.281 154.335,63.928 154.777 C 63.575 155.219,62.996 155.899,62.641 156.288 C 62.286 156.678,61.651 157.458,61.229 158.023 C 60.807 158.588,60.316 159.204,60.137 159.393 C 59.959 159.582,59.497 160.160,59.110 160.677 C 58.724 161.194,58.148 161.905,57.831 162.257 C 57.513 162.608,57.253 162.966,57.253 163.052 C 57.253 163.138,57.051 163.441,56.804 163.726 C 56.556 164.011,56.065 164.625,55.712 165.090 C 55.359 165.555,54.951 166.061,54.805 166.215 C 54.660 166.369,54.259 166.900,53.915 167.394 C 53.572 167.888,53.142 168.445,52.961 168.632 C 52.780 168.819,52.630 169.050,52.627 169.145 C 52.625 169.241,52.264 169.724,51.824 170.218 C 51.385 170.712,50.723 171.579,50.355 172.144 C 49.986 172.709,49.617 173.228,49.536 173.299 C 49.455 173.370,48.998 174.005,48.522 174.711 C 48.045 175.417,47.562 176.033,47.448 176.080 C 47.333 176.128,47.240 176.330,47.240 176.530 C 47.240 176.730,47.149 176.893,47.039 176.893 C 46.928 176.893,46.619 177.269,46.352 177.728 C 46.085 178.187,45.483 179.036,45.013 179.616 C 44.543 180.195,44.159 180.802,44.159 180.964 C 44.159 181.126,44.044 181.258,43.902 181.258 C 43.761 181.258,43.646 181.431,43.646 181.643 C 43.646 181.855,43.530 182.028,43.389 182.028 C 43.248 182.028,43.132 182.202,43.132 182.413 C 43.132 182.625,43.017 182.798,42.875 182.798 C 42.734 182.798,42.619 182.972,42.619 183.184 C 42.619 183.395,42.503 183.569,42.362 183.569 C 42.221 183.569,42.105 183.689,42.105 183.836 C 42.105 183.983,41.874 184.352,41.592 184.655 C 41.309 184.958,41.078 185.357,41.078 185.543 C 41.078 185.728,40.963 185.879,40.822 185.879 C 40.680 185.879,40.565 186.053,40.565 186.264 C 40.565 186.476,40.449 186.650,40.308 186.650 C 40.167 186.650,40.051 186.823,40.051 187.035 C 40.051 187.246,39.936 187.420,39.795 187.420 C 39.653 187.420,39.538 187.593,39.538 187.805 C 39.538 188.017,39.422 188.190,39.281 188.190 C 39.140 188.190,39.024 188.307,39.024 188.450 C 39.024 188.592,38.562 189.386,37.997 190.214 C 37.433 191.041,36.970 191.849,36.970 192.008 C 36.970 192.167,36.855 192.298,36.714 192.298 C 36.573 192.298,36.457 192.471,36.457 192.683 C 36.457 192.895,36.363 193.068,36.248 193.068 C 36.133 193.068,35.847 193.444,35.612 193.902 C 35.377 194.361,34.833 195.315,34.403 196.021 C 33.973 196.727,33.546 197.478,33.453 197.689 C 33.361 197.901,33.213 198.132,33.124 198.203 C 32.952 198.340,31.194 201.411,30.552 202.696 C 30.341 203.119,30.110 203.524,30.039 203.594 C 29.967 203.665,29.736 204.069,29.525 204.493 C 29.314 204.917,29.076 205.321,28.996 205.392 C 28.917 205.462,28.455 206.329,27.970 207.317 C 27.485 208.306,27.027 209.172,26.951 209.243 C 26.646 209.526,23.107 216.755,23.107 217.094 C 23.107 217.294,22.991 217.458,22.850 217.458 C 22.709 217.458,22.593 217.615,22.593 217.807 C 22.593 218.098,21.841 219.777,20.766 221.884 C 20.641 222.129,20.539 222.504,20.539 222.718 C 20.539 222.932,20.424 223.107,20.282 223.107 C 20.141 223.107,20.026 223.281,20.026 223.495 C 20.026 223.709,19.924 224.084,19.799 224.330 C 19.674 224.575,19.457 225.064,19.316 225.417 C 19.175 225.770,18.822 226.579,18.531 227.214 C 18.240 227.850,17.753 229.063,17.448 229.910 C 16.812 231.680,16.466 232.548,16.145 233.180 C 16.020 233.425,15.918 233.852,15.918 234.128 C 15.918 234.404,15.802 234.701,15.661 234.788 C 15.520 234.875,15.404 235.173,15.404 235.449 C 15.404 235.725,15.289 236.180,15.148 236.460 C 15.006 236.741,14.775 237.200,14.634 237.480 C 14.493 237.761,14.377 238.216,14.377 238.492 C 14.377 238.768,14.262 239.065,14.121 239.153 C 13.979 239.240,13.864 239.644,13.864 240.051 C 13.864 240.458,13.748 240.863,13.607 240.950 C 13.466 241.037,13.350 241.384,13.350 241.720 C 13.350 242.057,13.235 242.403,13.094 242.490 C 12.953 242.578,12.837 242.982,12.837 243.389 C 12.837 243.796,12.735 244.192,12.610 244.269 C 12.485 244.346,12.319 244.729,12.241 245.119 C 12.162 245.509,11.976 246.319,11.826 246.919 C 11.161 249.580,10.996 250.262,10.755 251.348 C 10.613 251.983,10.439 252.908,10.368 253.402 C 10.296 253.896,10.138 254.531,10.016 254.814 C 9.894 255.096,9.720 255.905,9.630 256.611 C 9.540 257.317,9.356 258.530,9.221 259.307 C 8.081 265.873,7.610 282.070,8.491 284.388 C 8.622 284.732,8.729 285.467,8.729 286.021 C 8.729 286.574,8.841 287.520,8.977 288.122 C 9.113 288.724,9.409 290.083,9.634 291.142 C 10.471 295.080,11.233 297.855,11.567 298.190 C 11.700 298.324,11.810 298.680,11.810 298.982 C 11.810 299.283,11.890 299.609,11.988 299.707 C 12.086 299.805,12.200 300.110,12.242 300.386 C 12.352 301.108,15.806 308.533,16.183 308.858 C 16.265 308.928,16.484 309.361,16.670 309.820 C 16.855 310.279,17.109 310.655,17.233 310.655 C 17.357 310.655,17.458 310.828,17.458 311.040 C 17.458 311.252,17.574 311.425,17.715 311.425 C 17.856 311.425,17.972 311.547,17.972 311.696 C 17.972 312.022,20.030 315.112,20.329 315.233 C 20.444 315.280,20.542 315.454,20.545 315.618 C 20.548 315.783,20.924 316.336,21.380 316.847 C 21.835 317.359,22.612 318.265,23.107 318.862 C 25.259 321.460,30.116 326.190,32.343 327.856 C 32.815 328.209,33.330 328.614,33.487 328.755 C 34.186 329.381,35.928 330.680,36.068 330.680 C 36.152 330.680,36.470 330.911,36.773 331.194 C 37.076 331.476,37.476 331.707,37.661 331.707 C 37.846 331.707,37.997 331.823,37.997 331.964 C 37.997 332.105,38.171 332.221,38.383 332.221 C 38.594 332.221,38.768 332.336,38.768 332.478 C 38.768 332.619,38.941 332.734,39.153 332.734 C 39.365 332.734,39.538 332.836,39.538 332.961 C 39.538 333.086,39.740 333.252,39.987 333.330 C 40.428 333.470,41.852 334.278,42.105 334.532 C 42.176 334.603,42.580 334.830,43.004 335.036 C 43.427 335.243,44.081 335.618,44.456 335.870 C 44.830 336.122,45.321 336.329,45.547 336.329 C 45.772 336.329,45.956 336.424,45.956 336.540 C 45.956 336.656,46.563 337.016,47.304 337.340 C 48.046 337.664,49.585 338.378,50.725 338.926 C 51.866 339.474,52.936 339.923,53.104 339.923 C 53.271 339.923,53.609 340.029,53.855 340.159 C 55.029 340.780,56.781 341.463,57.199 341.463 C 57.454 341.463,57.773 341.555,57.908 341.668 C 58.042 341.780,58.614 342.019,59.178 342.198 C 59.743 342.378,60.436 342.619,60.719 342.735 C 61.001 342.851,61.752 343.085,62.388 343.256 C 63.023 343.427,63.744 343.672,63.989 343.799 C 64.234 343.927,64.706 344.031,65.037 344.031 C 65.369 344.031,65.720 344.111,65.817 344.209 C 65.915 344.306,66.244 344.424,66.548 344.471 C 66.852 344.517,67.629 344.734,68.274 344.954 C 68.920 345.173,70.026 345.472,70.732 345.618 C 72.120 345.906,73.500 346.195,75.417 346.598 C 78.751 347.300,83.304 348.051,87.933 348.662 C 95.878 349.710,102.474 350.049,114.763 350.041 C 126.989 350.033,133.011 349.744,143.774 348.646 C 151.781 347.830,161.861 346.414,169.320 345.058 C 170.096 344.917,171.367 344.685,172.144 344.544 C 175.455 343.942,176.320 343.780,177.535 343.536 C 178.241 343.393,179.397 343.163,180.103 343.024 C 180.809 342.885,181.964 342.643,182.670 342.488 C 183.376 342.332,184.358 342.147,184.852 342.075 C 185.347 342.004,185.982 341.844,186.264 341.720 C 186.547 341.596,187.182 341.439,187.677 341.370 C 188.171 341.300,189.095 341.114,189.730 340.954 C 191.657 340.472,193.146 340.154,194.161 340.008 C 194.691 339.931,195.189 339.765,195.267 339.639 C 195.345 339.513,195.800 339.409,196.277 339.409 C 196.755 339.409,197.209 339.306,197.287 339.180 C 197.366 339.054,197.863 338.890,198.394 338.816 C 198.924 338.742,199.878 338.548,200.513 338.385 C 201.149 338.222,202.045 338.027,202.506 337.951 C 202.966 337.875,203.406 337.710,203.484 337.584 C 203.561 337.458,203.958 337.356,204.365 337.356 C 204.772 337.356,205.168 337.252,205.246 337.126 C 205.324 337.000,205.822 336.838,206.353 336.767 C 206.883 336.696,207.779 336.500,208.344 336.331 C 208.909 336.162,209.748 335.964,210.208 335.891 C 210.668 335.818,211.108 335.656,211.186 335.530 C 211.263 335.404,211.660 335.302,212.067 335.302 C 212.474 335.302,212.878 335.186,212.965 335.045 C 213.053 334.904,213.369 334.788,213.668 334.788 C 214.246 334.788,215.750 334.361,216.492 333.986 C 216.737 333.863,217.133 333.761,217.372 333.761 C 217.858 333.761,219.403 333.305,220.086 332.959 C 220.332 332.836,220.766 332.734,221.053 332.734 C 221.339 332.734,221.774 332.630,222.019 332.503 C 222.264 332.375,222.985 332.131,223.620 331.960 C 224.255 331.789,225.006 331.560,225.289 331.451 C 225.571 331.342,226.322 331.110,226.958 330.937 C 227.593 330.764,228.344 330.533,228.626 330.425 C 228.909 330.317,230.006 329.971,231.065 329.658 C 232.125 329.344,233.192 328.984,233.437 328.857 C 233.682 328.730,234.108 328.626,234.384 328.626 C 234.660 328.626,234.958 328.511,235.045 328.370 C 235.132 328.228,235.479 328.113,235.815 328.113 C 236.151 328.113,236.498 327.997,236.585 327.856 C 236.673 327.715,237.019 327.599,237.356 327.599 C 237.692 327.599,238.039 327.484,238.126 327.343 C 238.213 327.202,238.560 327.086,238.896 327.086 C 239.232 327.086,239.579 326.970,239.666 326.829 C 239.754 326.688,240.100 326.573,240.436 326.573 C 240.773 326.573,241.119 326.457,241.207 326.316 C 241.294 326.175,241.641 326.059,241.977 326.059 C 242.313 326.059,242.660 325.944,242.747 325.802 C 242.834 325.661,243.165 325.546,243.481 325.546 C 243.798 325.546,244.166 325.450,244.300 325.333 C 244.435 325.217,245.064 324.965,245.700 324.775 C 246.335 324.584,246.970 324.365,247.112 324.288 C 247.253 324.211,247.537 324.123,247.743 324.091 C 248.094 324.038,248.847 323.724,249.868 323.205 C 250.113 323.080,250.540 322.978,250.816 322.978 C 251.092 322.978,251.389 322.863,251.476 322.721 C 251.564 322.580,251.861 322.465,252.137 322.465 C 252.413 322.465,252.868 322.349,253.149 322.208 C 253.429 322.067,253.888 321.836,254.169 321.694 C 254.449 321.553,254.855 321.438,255.071 321.438 C 255.286 321.438,255.663 321.336,255.908 321.211 C 256.154 321.086,256.643 320.871,256.996 320.732 C 257.349 320.593,257.927 320.360,258.280 320.214 C 259.534 319.696,260.721 319.261,260.890 319.258 C 260.984 319.257,261.148 319.169,261.254 319.063 C 261.360 318.957,261.602 318.870,261.791 318.870 C 261.981 318.870,262.626 318.653,263.225 318.386 C 263.823 318.120,265.006 317.647,265.854 317.334 C 266.701 317.022,267.654 316.662,267.972 316.535 C 268.289 316.407,268.838 316.187,269.191 316.046 C 269.544 315.905,270.122 315.674,270.475 315.533 C 270.828 315.392,271.406 315.160,271.759 315.019 C 273.329 314.391,273.841 314.175,274.258 313.962 C 274.504 313.838,274.879 313.736,275.093 313.736 C 275.307 313.736,275.481 313.645,275.481 313.533 C 275.481 313.422,275.740 313.312,276.055 313.288 C 276.371 313.264,276.669 313.124,276.718 312.977 C 276.768 312.829,277.018 312.709,277.276 312.709 C 277.533 312.709,278.245 312.461,278.859 312.159 C 279.472 311.856,280.205 311.525,280.488 311.423 C 280.974 311.247,281.446 311.062,282.927 310.465 C 283.280 310.323,284.146 309.946,284.852 309.628 C 285.558 309.310,286.396 308.948,286.714 308.825 C 288.183 308.255,291.744 306.683,292.487 306.277 C 292.732 306.143,293.108 306.033,293.321 306.033 C 293.535 306.033,293.710 305.918,293.710 305.777 C 293.710 305.635,293.885 305.520,294.098 305.520 C 294.312 305.520,294.688 305.423,294.933 305.304 C 295.178 305.185,295.899 304.859,296.534 304.580 C 298.069 303.906,300.790 302.637,302.764 301.673 C 303.644 301.243,304.509 300.893,304.685 300.895 C 304.862 300.897,305.006 300.783,305.006 300.642 C 305.006 300.501,305.176 300.385,305.384 300.385 C 305.591 300.385,306.172 300.154,306.675 299.872 C 307.178 299.589,307.759 299.358,307.967 299.358 C 308.174 299.358,308.344 299.243,308.344 299.101 C 308.344 298.960,308.519 298.845,308.733 298.845 C 308.946 298.845,309.322 298.738,309.567 298.607 C 311.858 297.384,323.921 291.554,324.069 291.598 C 324.175 291.630,324.262 291.540,324.262 291.399 C 324.262 291.258,324.516 291.142,324.827 291.142 C 325.177 291.142,325.299 291.052,325.148 290.905 C 324.901 290.666,322.667 291.111,322.306 291.472 C 322.205 291.573,321.860 291.656,321.538 291.656 C 321.217 291.656,320.883 291.772,320.796 291.913 C 320.709 292.054,320.411 292.169,320.135 292.169 C 319.859 292.169,319.433 292.274,319.188 292.401 C 318.943 292.529,318.222 292.771,317.587 292.940 C 316.951 293.108,316.231 293.351,315.986 293.478 C 315.740 293.606,315.256 293.710,314.910 293.710 C 314.563 293.710,314.208 293.825,314.121 293.967 C 314.033 294.108,313.687 294.223,313.350 294.223 C 313.014 294.223,312.668 294.339,312.580 294.480 C 312.493 294.621,312.176 294.737,311.876 294.737 C 311.576 294.737,310.688 294.952,309.902 295.216 C 309.116 295.479,307.953 295.842,307.317 296.021 C 306.682 296.200,305.757 296.461,305.263 296.600 C 304.769 296.740,304.164 296.955,303.919 297.079 C 303.674 297.203,303.132 297.304,302.714 297.304 C 302.297 297.304,301.884 297.420,301.797 297.561 C 301.710 297.702,301.306 297.818,300.899 297.818 C 300.492 297.818,300.095 297.920,300.018 298.046 C 299.940 298.172,299.500 298.334,299.040 298.407 C 298.579 298.480,297.741 298.674,297.176 298.838 C 296.611 299.002,295.745 299.236,295.250 299.358 C 294.756 299.481,293.890 299.712,293.325 299.872 C 292.760 300.032,291.836 300.276,291.271 300.414 C 290.706 300.552,289.811 300.776,289.281 300.910 C 288.752 301.045,287.856 301.271,287.291 301.412 C 286.727 301.553,285.802 301.784,285.237 301.926 C 282.705 302.559,281.959 302.739,280.937 302.967 C 280.337 303.100,279.326 303.325,278.691 303.466 C 278.055 303.607,277.044 303.832,276.444 303.965 C 275.844 304.099,274.833 304.331,274.198 304.480 C 273.562 304.630,272.465 304.873,271.759 305.019 C 271.053 305.166,269.955 305.401,269.320 305.543 C 267.446 305.960,265.680 306.286,264.372 306.455 C 263.698 306.542,263.085 306.714,263.009 306.837 C 262.933 306.960,262.510 307.060,262.070 307.060 C 261.629 307.060,260.914 307.169,260.480 307.301 C 260.047 307.434,258.537 307.729,257.125 307.958 C 255.712 308.187,253.922 308.487,253.145 308.624 C 250.539 309.087,246.479 309.709,244.159 310.002 C 243.524 310.083,242.773 310.209,242.490 310.284 C 242.208 310.358,240.995 310.537,239.795 310.682 C 238.594 310.826,236.746 311.058,235.687 311.197 C 234.628 311.336,233.126 311.499,232.349 311.559 C 231.573 311.620,230.533 311.737,230.039 311.820 C 229.093 311.979,225.981 312.293,221.053 312.728 C 214.882 313.272,209.808 313.488,199.615 313.641 C 189.815 313.788,187.936 313.738,178.434 313.079 C 174.695 312.819,169.183 312.238,165.212 311.685 C 164.223 311.547,162.837 311.368,162.131 311.288 C 161.425 311.207,160.616 311.038,160.334 310.911 C 160.051 310.785,159.300 310.624,158.665 310.555 C 158.030 310.485,156.874 310.301,156.098 310.146 C 155.321 309.990,154.281 309.803,153.787 309.729 C 153.293 309.656,152.657 309.495,152.375 309.373 C 151.863 309.150,150.932 308.955,149.100 308.687 C 148.569 308.610,148.072 308.443,147.994 308.317 C 147.915 308.191,147.461 308.087,146.983 308.087 C 146.506 308.087,146.044 307.972,145.956 307.831 C 145.869 307.689,145.553 307.574,145.253 307.574 C 144.675 307.574,143.171 307.147,142.430 306.772 C 142.184 306.648,141.750 306.547,141.463 306.547 C 141.177 306.547,140.742 306.443,140.497 306.315 C 140.252 306.188,139.531 305.937,138.896 305.757 C 138.261 305.577,137.631 305.335,137.497 305.219 C 137.363 305.102,136.994 305.006,136.678 305.006 C 136.361 305.006,136.031 304.891,135.944 304.750 C 135.856 304.608,135.559 304.493,135.283 304.493 C 135.007 304.493,134.581 304.386,134.335 304.256 C 134.090 304.125,132.330 303.414,130.424 302.676 C 128.517 301.939,126.848 301.237,126.714 301.117 C 126.580 300.997,126.262 300.899,126.008 300.899 C 125.754 300.899,125.546 300.783,125.546 300.642 C 125.546 300.501,125.401 300.384,125.225 300.383 C 125.048 300.382,123.575 299.709,121.951 298.888 C 119.040 297.416,118.528 297.136,115.842 295.543 C 115.095 295.100,114.382 294.737,114.259 294.737 C 114.136 294.737,113.997 294.635,113.950 294.510 C 113.902 294.384,112.997 293.744,111.938 293.086 C 110.879 292.428,109.262 291.317,108.344 290.617 C 107.426 289.917,106.377 289.143,106.013 288.896 C 104.007 287.537,96.374 280.209,94.908 278.235 C 94.512 277.703,93.932 277.009,93.619 276.695 C 93.306 276.381,92.657 275.546,92.177 274.840 C 91.697 274.134,91.238 273.498,91.157 273.427 C 90.959 273.255,88.518 269.582,88.171 268.935 C 87.652 267.966,87.163 267.137,87.035 267.009 C 86.763 266.737,83.416 259.727,82.929 258.408 C 82.824 258.126,82.614 257.606,82.461 257.253 C 82.308 256.900,81.931 255.802,81.623 254.814 C 81.314 253.825,80.978 252.786,80.875 252.503 C 80.382 251.154,80.103 250.107,80.103 249.612 C 80.103 249.312,79.987 248.996,79.846 248.909 C 79.705 248.822,79.589 248.376,79.589 247.918 C 79.589 247.460,79.485 246.976,79.357 246.842 C 79.230 246.708,79.063 246.078,78.986 245.443 C 78.910 244.807,78.720 243.537,78.565 242.619 C 77.511 236.394,77.154 229.441,77.523 222.291 C 77.943 214.133,78.474 210.072,80.125 202.375 C 80.254 201.775,80.454 200.793,80.569 200.193 C 80.684 199.592,80.981 198.408,81.229 197.561 C 81.476 196.714,81.800 195.558,81.948 194.994 C 82.095 194.429,82.305 193.678,82.413 193.325 C 82.522 192.972,82.755 192.163,82.932 191.528 C 83.656 188.923,83.770 188.556,83.985 188.129 C 84.109 187.884,84.211 187.458,84.211 187.182 C 84.211 186.906,84.326 186.608,84.467 186.521 C 84.608 186.434,84.724 186.087,84.724 185.751 C 84.724 185.415,84.817 185.082,84.930 185.012 C 85.043 184.942,85.297 184.293,85.494 183.569 C 85.691 182.845,85.945 182.195,86.059 182.125 C 86.172 182.055,86.264 181.772,86.264 181.496 C 86.264 181.220,86.366 180.794,86.491 180.549 C 86.616 180.303,86.861 179.756,87.035 179.332 C 87.209 178.909,87.453 178.362,87.578 178.116 C 87.703 177.871,87.805 177.494,87.805 177.279 C 87.805 177.063,87.908 176.686,88.034 176.441 C 88.346 175.831,89.360 173.557,89.635 172.850 C 89.758 172.532,89.960 172.012,90.083 171.694 C 90.206 171.377,90.553 170.568,90.853 169.897 C 91.154 169.227,91.616 168.187,91.881 167.587 C 93.095 164.840,95.993 158.829,97.481 155.969 C 97.849 155.263,98.384 154.223,98.671 153.659 C 99.499 152.027,99.733 151.613,99.902 151.476 C 99.989 151.406,100.290 150.886,100.570 150.321 C 101.557 148.331,102.314 146.980,102.631 146.644 C 102.807 146.458,103.022 146.025,103.108 145.682 C 103.194 145.339,103.354 145.058,103.464 145.058 C 103.573 145.058,103.729 144.856,103.810 144.608 C 103.891 144.361,104.314 143.582,104.750 142.875 C 105.186 142.169,105.609 141.390,105.690 141.142 C 105.770 140.895,105.939 140.693,106.063 140.693 C 106.188 140.693,106.290 140.566,106.290 140.410 C 106.290 140.253,106.637 139.612,107.060 138.985 C 107.484 138.357,107.831 137.743,107.831 137.621 C 107.831 137.498,107.919 137.360,108.027 137.313 C 108.289 137.199,110.398 133.798,110.398 133.490 C 110.398 133.357,110.513 133.248,110.655 133.248 C 110.796 133.248,110.911 133.074,110.911 132.863 C 110.911 132.651,111.027 132.478,111.168 132.478 C 111.309 132.478,111.425 132.304,111.425 132.092 C 111.425 131.881,111.540 131.707,111.682 131.707 C 111.823 131.707,111.938 131.584,111.938 131.433 C 111.938 131.283,112.199 130.792,112.517 130.342 C 112.835 129.893,113.210 129.335,113.351 129.102 C 113.492 128.869,113.983 128.141,114.442 127.484 C 114.901 126.828,115.276 126.190,115.276 126.068 C 115.276 125.945,115.363 125.807,115.469 125.760 C 115.780 125.621,117.073 123.807,117.073 123.509 C 117.073 123.358,117.189 123.235,117.330 123.235 C 117.471 123.235,117.587 123.062,117.587 122.850 C 117.587 122.638,117.702 122.465,117.843 122.465 C 117.985 122.465,118.100 122.291,118.100 122.080 C 118.100 121.868,118.191 121.694,118.303 121.694 C 118.414 121.694,118.874 121.088,119.326 120.347 C 119.777 119.605,120.448 118.652,120.816 118.228 C 121.185 117.805,121.651 117.141,121.854 116.752 C 122.056 116.364,122.334 116.046,122.471 116.046 C 122.609 116.046,122.721 115.873,122.721 115.661 C 122.721 115.449,122.837 115.276,122.978 115.276 C 123.119 115.276,123.235 115.117,123.235 114.922 C 123.235 114.728,123.415 114.419,123.635 114.237 C 124.070 113.875,126.316 110.983,126.316 110.783 C 126.316 110.658,126.960 109.838,127.535 109.232 C 127.712 109.046,127.856 108.820,127.856 108.729 C 127.856 108.638,128.001 108.417,128.177 108.238 C 128.354 108.059,128.787 107.529,129.140 107.062 C 129.493 106.594,130.155 105.796,130.610 105.288 C 131.066 104.780,131.441 104.226,131.445 104.056 C 131.448 103.887,131.606 103.656,131.796 103.543 C 131.987 103.430,132.553 102.794,133.056 102.130 C 133.559 101.465,134.327 100.541,134.763 100.076 C 135.199 99.611,135.557 99.092,135.557 98.923 C 135.558 98.755,135.765 98.466,136.018 98.282 C 136.271 98.097,136.878 97.431,137.366 96.801 C 137.855 96.171,138.485 95.411,138.768 95.112 C 139.050 94.814,139.570 94.185,139.923 93.716 C 140.580 92.843,141.502 91.783,142.626 90.608 C 142.975 90.243,143.261 89.856,143.261 89.748 C 143.261 89.639,143.675 89.137,144.180 88.631 C 144.686 88.125,145.524 87.186,146.042 86.544 C 146.560 85.902,147.330 85.015,147.754 84.572 C 148.177 84.128,149.044 83.157,149.679 82.413 C 150.315 81.669,151.560 80.296,152.448 79.362 C 153.335 78.428,154.606 77.055,155.272 76.312 C 157.873 73.407,178.120 52.934,180.721 50.578 C 181.266 50.083,181.661 49.592,181.599 49.487 C 181.412 49.171,181.191 49.278,179.846 50.340 M227.856 113.251 C 222.158 114.550,216.892 119.467,215.377 124.904 C 215.084 125.956,215.019 130.231,215.019 148.652 L 215.019 171.117 215.620 172.747 C 217.607 178.139,221.997 182.121,227.599 183.612 C 229.466 184.109,249.086 184.101,251.091 183.603 C 256.622 182.228,261.216 177.876,263.189 172.144 C 263.716 170.615,263.712 126.793,263.185 124.904 C 261.740 119.720,256.918 114.969,251.608 113.497 C 249.515 112.917,230.199 112.717,227.856 113.251 M242.508 123.176 C 243.863 123.870,245.259 125.430,245.800 126.854 C 246.447 128.560,246.318 169.409,245.661 170.603 C 243.285 174.922,237.897 175.799,234.515 172.417 C 232.213 170.116,232.320 171.370,232.405 147.701 L 232.478 127.174 233.248 125.935 C 235.234 122.742,239.299 121.530,242.508 123.176 M156.868 221.706 C 140.719 225.481,140.289 246.794,156.316 249.072 C 164.743 250.270,172.034 246.551,174.510 239.795 C 178.669 228.443,169.271 218.807,156.868 221.706 M215.305 222.401 C 215.237 222.859,215.054 225.892,214.897 229.140 C 214.741 232.388,214.506 236.893,214.375 239.153 C 214.244 241.412,214.104 244.474,214.064 245.956 L 213.992 248.652 217.587 248.820 C 219.564 248.912,221.279 248.927,221.399 248.853 C 221.519 248.779,221.577 245.825,221.528 242.288 C 221.471 238.161,221.531 235.829,221.695 235.777 C 221.836 235.733,223.511 236.918,225.417 238.411 C 233.532 244.768,239.677 249.294,240.193 249.294 C 240.529 249.294,240.527 249.317,241.077 239.024 C 241.318 234.523,241.539 230.923,241.994 224.069 L 242.144 221.823 238.263 221.823 L 234.383 221.823 234.416 228.389 C 234.435 232.000,234.386 235.019,234.308 235.097 C 234.230 235.175,230.320 232.356,225.620 228.831 C 214.446 220.453,215.495 221.107,215.305 222.401 M270.835 222.015 C 270.820 222.121,270.821 228.042,270.836 235.173 C 270.851 242.304,270.862 248.286,270.862 248.466 C 270.860 248.721,271.785 248.778,275.032 248.723 L 279.204 248.652 279.271 235.237 L 279.337 221.823 275.099 221.823 C 272.767 221.823,270.849 221.909,270.835 222.015 M315.229 222.009 C 315.182 222.119,315.203 228.158,315.274 235.430 L 315.404 248.652 319.512 248.652 L 323.620 248.652 323.690 243.585 C 323.770 237.705,323.303 238.377,327.471 238.142 C 328.883 238.062,330.816 237.923,331.766 237.832 L 333.494 237.667 333.563 243.160 L 333.633 248.652 337.593 248.723 C 339.770 248.762,341.652 248.695,341.774 248.573 C 341.895 248.451,342.012 242.412,342.032 235.151 L 342.070 221.951 337.787 221.881 L 333.504 221.810 333.504 226.551 L 333.504 231.291 332.413 231.420 C 329.973 231.708,324.144 232.050,323.929 231.917 C 323.802 231.839,323.737 229.584,323.784 226.863 L 323.869 221.951 319.591 221.881 C 317.239 221.842,315.276 221.900,315.229 222.009 M163.436 228.045 C 167.963 230.903,166.885 241.076,161.852 242.999 C 156.611 245.000,152.435 239.554,154.134 232.932 C 155.369 228.117,159.833 225.771,163.436 228.045 " stroke="none" fill="#fbc305" fill-rule="evenodd"></path><path id="path1" d="M220.855 15.404 C 220.552 15.687,220.236 15.918,220.153 15.918 C 220.070 15.918,218.419 16.884,216.484 18.065 C 214.549 19.245,211.868 20.881,210.526 21.700 C 209.185 22.519,207.241 23.748,206.207 24.431 C 205.173 25.115,204.282 25.674,204.228 25.674 C 204.174 25.674,202.767 26.567,201.102 27.658 C 199.437 28.750,197.757 29.804,197.368 30.001 C 196.980 30.198,196.662 30.460,196.662 30.584 C 196.662 30.708,196.534 30.809,196.376 30.809 C 196.091 30.809,192.870 32.921,185.400 38.007 C 183.230 39.484,181.266 40.809,181.036 40.950 C 180.805 41.091,179.480 42.015,178.091 43.004 C 176.702 43.992,175.290 44.974,174.953 45.186 C 173.545 46.071,165.793 51.596,163.443 53.390 C 162.047 54.455,160.415 55.674,159.817 56.098 C 159.218 56.521,158.223 57.249,157.606 57.714 C 156.988 58.179,155.895 58.988,155.177 59.511 C 154.459 60.034,153.477 60.772,152.995 61.150 C 152.513 61.529,151.165 62.552,150.000 63.425 C 148.835 64.298,147.882 65.118,147.882 65.247 C 147.882 65.376,147.622 65.583,147.304 65.707 C 146.778 65.914,143.822 68.107,143.517 68.517 C 143.447 68.612,143.094 68.877,142.734 69.105 C 142.022 69.558,133.678 76.322,132.221 77.628 C 131.727 78.071,130.687 78.910,129.910 79.492 C 129.134 80.074,128.151 80.880,127.728 81.283 C 126.978 81.997,125.335 83.427,124.360 84.215 C 123.094 85.238,120.238 87.668,119.871 88.035 C 119.644 88.262,118.960 88.851,118.350 89.345 C 117.185 90.289,112.365 94.517,111.649 95.224 C 111.419 95.450,110.276 96.502,109.108 97.561 C 102.023 103.988,98.710 107.165,89.585 116.288 C 79.958 125.913,74.564 131.559,70.710 136.044 C 70.298 136.524,69.658 137.217,69.287 137.585 C 68.915 137.953,67.086 140.045,65.220 142.234 C 63.355 144.422,61.502 146.582,61.103 147.032 C 60.704 147.483,59.015 149.563,57.350 151.654 C 55.686 153.745,54.254 155.513,54.170 155.584 C 53.729 155.952,50.474 160.159,50.247 160.655 C 50.101 160.972,49.886 161.232,49.770 161.232 C 49.653 161.232,49.239 161.718,48.848 162.311 C 48.458 162.904,47.892 163.658,47.590 163.986 C 47.079 164.541,45.960 166.069,41.929 171.716 C 37.506 177.911,28.697 191.427,26.903 194.771 C 26.458 195.600,26.029 196.335,25.949 196.406 C 25.781 196.552,25.767 196.578,23.208 201.195 C 21.372 204.509,16.260 214.578,15.212 216.945 C 13.807 220.119,12.878 222.295,12.583 223.107 C 12.403 223.601,12.056 224.467,11.810 225.032 C 10.751 227.473,10.568 227.923,10.142 229.140 C 9.896 229.846,9.548 230.770,9.369 231.194 C 8.788 232.573,6.466 239.614,5.897 241.720 C 4.754 245.955,3.798 249.716,3.580 250.834 C -0.187 270.146,-0.104 283.617,3.866 297.433 C 5.169 301.968,5.741 303.497,7.705 307.702 C 8.101 308.549,8.607 309.647,8.830 310.141 C 12.108 317.401,19.776 326.822,27.482 333.056 C 30.632 335.605,33.014 337.276,37.073 339.784 C 39.550 341.315,44.977 344.095,48.267 345.517 C 48.902 345.792,49.827 346.196,50.321 346.415 C 55.437 348.684,66.987 352.251,72.473 353.258 C 73.210 353.393,74.332 353.621,74.968 353.765 C 77.030 354.231,82.231 355.109,84.467 355.369 C 85.668 355.509,87.458 355.718,88.447 355.835 C 97.910 356.951,102.279 357.201,112.837 357.228 C 121.807 357.251,131.432 357.015,132.991 356.734 C 133.344 356.670,135.308 356.499,137.356 356.353 C 140.948 356.098,143.094 355.894,148.010 355.341 C 149.281 355.199,150.899 355.018,151.605 354.941 C 152.311 354.863,153.177 354.747,153.530 354.683 C 153.883 354.619,154.750 354.504,155.456 354.426 C 156.162 354.349,157.433 354.172,158.280 354.033 C 159.127 353.894,161.033 353.607,162.516 353.395 C 165.011 353.037,167.689 352.586,170.860 351.990 C 171.566 351.857,173.184 351.564,174.454 351.339 C 177.780 350.751,177.930 350.722,179.204 350.440 C 179.840 350.300,181.226 350.017,182.285 349.812 C 184.345 349.413,188.167 348.593,191.271 347.885 C 195.954 346.816,201.686 345.442,203.081 345.054 C 204.959 344.532,213.458 342.284,214.249 342.101 C 214.531 342.035,215.918 341.639,217.330 341.221 C 218.742 340.802,220.533 340.291,221.309 340.084 C 226.338 338.749,248.052 331.672,252.246 330.001 C 254.064 329.277,254.268 329.202,256.354 328.496 C 259.196 327.533,272.303 322.522,273.540 321.926 C 274.096 321.657,274.646 321.438,274.762 321.438 C 274.878 321.438,275.463 321.222,276.062 320.957 C 276.660 320.693,278.248 320.039,279.589 319.503 C 283.637 317.888,289.619 315.388,291.528 314.514 C 292.516 314.062,294.018 313.371,294.865 312.979 C 295.712 312.587,297.330 311.883,298.460 311.415 C 300.509 310.566,302.762 309.555,306.162 307.960 C 307.150 307.496,308.883 306.694,310.013 306.179 C 318.022 302.522,340.414 291.260,347.240 287.457 C 347.805 287.143,349.191 286.385,350.321 285.773 C 352.752 284.456,360.936 279.923,361.489 279.587 C 364.722 277.621,366.124 276.817,366.816 276.532 C 367.275 276.344,367.651 276.088,367.651 275.964 C 367.651 275.840,367.762 275.738,367.897 275.738 C 368.033 275.738,370.026 274.655,372.326 273.330 L 376.508 270.922 376.508 267.361 C 376.508 263.344,376.599 263.472,374.466 264.452 C 373.895 264.715,371.810 265.580,369.833 266.374 C 367.856 267.169,365.315 268.201,364.185 268.669 C 363.055 269.136,361.322 269.830,360.334 270.211 C 359.345 270.592,358.190 271.057,357.766 271.245 C 356.507 271.803,342.138 277.197,339.923 277.943 C 339.288 278.156,338.508 278.441,338.190 278.575 C 336.757 279.180,336.410 279.303,335.687 279.461 C 335.263 279.553,334.570 279.783,334.146 279.971 C 333.723 280.159,332.683 280.531,331.836 280.797 C 330.988 281.063,328.158 281.994,325.546 282.866 C 319.937 284.737,313.664 286.754,312.580 287.035 C 312.157 287.145,309.615 287.889,306.932 288.690 C 300.431 290.631,294.101 292.397,290.372 293.312 C 283.635 294.963,281.134 295.602,279.699 296.038 C 279.266 296.170,278.696 296.277,278.434 296.277 C 278.172 296.277,277.602 296.389,277.168 296.526 C 276.735 296.663,275.282 297.007,273.941 297.291 C 272.599 297.574,270.693 297.989,269.705 298.213 C 267.960 298.607,263.965 299.417,261.617 299.853 C 260.982 299.971,259.134 300.324,257.510 300.636 C 255.886 300.948,254.211 301.255,253.787 301.318 C 253.363 301.381,251.688 301.661,250.064 301.942 C 246.836 302.500,239.104 303.658,236.457 303.980 C 235.539 304.092,234.211 304.254,233.504 304.341 C 229.437 304.841,218.948 305.778,211.673 306.292 C 203.648 306.859,183.706 306.563,175.866 305.761 C 174.525 305.623,172.908 305.462,172.272 305.402 C 171.271 305.307,169.148 305.015,161.874 303.971 C 159.129 303.577,153.111 302.318,149.551 301.393 C 146.419 300.579,140.372 298.841,139.795 298.589 C 139.512 298.466,138.530 298.117,137.612 297.813 C 136.694 297.510,135.454 297.040,134.855 296.769 C 134.257 296.499,133.648 296.277,133.504 296.277 C 133.359 296.277,133.040 296.171,132.795 296.042 C 132.324 295.793,130.962 295.192,128.626 294.203 C 127.180 293.590,124.750 292.357,121.566 290.619 C 120.578 290.079,119.480 289.481,119.127 289.290 C 117.475 288.396,110.648 283.695,109.725 282.816 C 109.567 282.665,108.816 282.029,108.057 281.402 C 103.986 278.042,98.995 272.473,95.848 267.779 C 94.637 265.973,90.371 258.391,90.374 258.050 C 90.375 257.911,89.116 254.581,88.568 253.273 C 88.298 252.631,87.954 251.499,87.281 249.037 C 86.991 247.978,86.651 246.881,86.525 246.598 C 86.399 246.316,86.241 245.680,86.173 245.186 C 86.106 244.692,85.734 242.381,85.347 240.051 C 82.890 225.238,85.397 205.342,92.125 186.264 C 94.733 178.870,94.714 178.921,95.991 176.062 C 96.290 175.393,96.534 174.766,96.534 174.670 C 96.534 174.574,96.868 173.793,97.277 172.934 C 98.654 170.043,99.872 167.349,99.872 167.195 C 99.872 167.020,104.196 158.424,105.261 156.483 C 105.648 155.777,106.372 154.448,106.871 153.530 C 109.485 148.715,113.197 142.490,116.862 136.777 C 118.108 134.834,119.127 133.140,119.127 133.011 C 119.127 132.882,119.222 132.739,119.338 132.691 C 119.455 132.644,120.534 131.162,121.737 129.397 C 125.015 124.588,130.364 117.070,131.183 116.121 C 131.330 115.951,131.451 115.716,131.451 115.601 C 131.451 115.485,131.653 115.198,131.900 114.963 C 132.147 114.728,132.781 113.981,133.308 113.302 C 133.836 112.622,135.251 110.821,136.453 109.299 C 137.656 107.777,138.639 106.425,138.639 106.295 C 138.639 106.165,138.801 105.967,138.999 105.854 C 139.197 105.741,140.405 104.348,141.684 102.758 C 142.964 101.168,144.679 99.077,145.497 98.111 C 146.314 97.144,147.161 96.134,147.379 95.866 C 147.597 95.598,148.333 94.743,149.016 93.967 C 149.698 93.190,150.503 92.266,150.804 91.913 C 153.317 88.969,158.849 82.850,162.764 78.687 C 167.648 73.492,175.591 65.261,176.624 64.323 C 177.253 63.753,179.274 61.801,181.117 59.986 C 182.960 58.170,184.872 56.336,185.366 55.910 C 185.860 55.483,187.246 54.196,188.447 53.048 C 189.647 51.901,191.322 50.333,192.169 49.564 C 193.017 48.795,194.639 47.293,195.774 46.227 C 196.909 45.160,198.238 43.955,198.726 43.549 C 199.977 42.510,203.085 39.774,203.774 39.107 C 204.091 38.799,205.307 37.737,206.476 36.746 C 215.637 28.978,220.321 25.068,222.899 23.035 C 226.467 20.221,226.360 20.713,224.098 17.497 C 222.180 14.770,221.800 14.524,220.855 15.404 M183.947 47.807 C 183.866 48.017,182.391 49.523,180.668 51.153 C 175.044 56.473,161.237 70.371,157.646 74.326 C 156.749 75.315,155.307 76.874,154.442 77.792 C 153.577 78.710,151.899 80.558,150.713 81.900 C 149.527 83.241,148.491 84.397,148.411 84.467 C 148.332 84.538,147.516 85.461,146.598 86.519 C 145.680 87.576,144.715 88.674,144.452 88.958 C 143.875 89.583,136.984 97.856,135.128 100.153 C 127.704 109.341,120.893 118.561,114.763 127.718 C 114.551 128.034,114.190 128.570,113.961 128.909 C 111.750 132.184,106.424 140.746,104.556 144.031 C 104.275 144.525,103.413 146.027,102.640 147.368 C 98.640 154.313,93.877 163.884,90.757 171.245 C 90.368 172.163,89.878 173.307,89.667 173.788 C 88.694 176.006,87.036 180.399,87.035 180.757 C 87.035 180.976,86.933 181.265,86.809 181.399 C 86.069 182.200,81.857 196.285,80.747 201.669 C 80.660 202.092,80.490 202.901,80.369 203.466 C 79.501 207.533,79.059 210.283,78.283 216.431 C 77.867 219.727,77.697 232.173,78.023 235.430 C 78.637 241.558,80.309 250.397,81.143 251.922 C 81.277 252.167,81.386 252.594,81.386 252.870 C 81.386 253.146,81.502 253.443,81.643 253.530 C 81.784 253.617,81.900 253.949,81.900 254.267 C 81.900 254.585,82.131 255.324,82.413 255.909 C 82.696 256.493,82.927 257.094,82.927 257.244 C 82.927 257.394,83.035 257.717,83.167 257.962 C 83.299 258.208,83.558 258.813,83.744 259.307 C 85.026 262.723,91.269 273.653,92.395 274.452 C 92.496 274.524,92.857 274.987,93.196 275.481 C 93.536 275.976,93.877 276.438,93.954 276.508 C 94.032 276.579,94.720 277.388,95.485 278.306 C 98.393 281.797,102.946 286.054,107.317 289.366 C 109.471 290.998,115.380 294.994,115.639 294.994 C 115.693 294.994,116.514 295.466,117.464 296.043 C 118.414 296.620,120.881 297.905,122.946 298.900 C 125.011 299.894,127.145 300.924,127.688 301.188 C 128.231 301.453,128.781 301.669,128.910 301.669 C 129.040 301.669,129.635 301.887,130.234 302.153 C 130.832 302.419,132.015 302.892,132.863 303.205 C 133.710 303.517,134.634 303.861,134.917 303.968 C 135.833 304.318,139.517 305.558,140.308 305.784 C 140.732 305.905,141.945 306.253,143.004 306.558 C 144.063 306.863,145.334 307.204,145.828 307.317 C 146.322 307.430,147.651 307.776,148.780 308.085 C 149.910 308.394,151.354 308.746,151.990 308.867 C 152.625 308.988,153.723 309.215,154.429 309.371 C 155.694 309.652,157.179 309.933,159.949 310.415 C 161.303 310.651,163.127 310.912,167.009 311.425 C 167.997 311.556,169.268 311.725,169.833 311.802 C 186.465 314.056,212.162 313.702,234.275 310.915 C 242.026 309.938,247.430 309.157,251.990 308.354 C 254.935 307.836,256.698 307.538,258.151 307.311 C 258.999 307.179,260.212 306.953,260.847 306.808 C 261.483 306.664,262.638 306.425,263.415 306.278 C 266.126 305.765,268.221 305.335,270.860 304.750 C 272.192 304.454,273.321 304.214,275.096 303.848 C 275.821 303.699,277.156 303.389,282.221 302.197 C 283.386 301.923,285.090 301.508,286.008 301.276 C 286.926 301.044,288.139 300.750,288.703 300.623 C 289.268 300.496,290.135 300.283,290.629 300.149 C 291.123 300.015,292.279 299.721,293.196 299.496 C 294.114 299.271,295.674 298.851,296.662 298.562 C 297.651 298.274,298.922 297.917,299.487 297.770 C 300.051 297.622,300.802 297.413,301.155 297.304 C 301.508 297.196,302.317 296.965,302.953 296.791 C 303.588 296.617,304.397 296.386,304.750 296.277 C 305.103 296.169,305.854 295.955,306.418 295.802 C 307.284 295.568,309.358 294.959,313.607 293.694 C 314.031 293.568,315.071 293.242,315.918 292.971 C 316.765 292.699,318.671 292.107,320.154 291.655 C 321.637 291.203,323.081 290.744,323.363 290.636 C 326.293 289.514,328.118 289.141,328.105 289.666 C 328.097 290.002,316.193 295.952,308.216 299.609 C 307.651 299.868,305.976 300.651,304.493 301.349 C 301.117 302.938,299.762 303.556,297.176 304.684 C 294.671 305.778,292.420 306.773,289.538 308.062 C 288.938 308.330,287.176 309.084,285.623 309.738 C 284.069 310.391,282.567 311.027,282.285 311.149 C 282.003 311.272,281.367 311.548,280.873 311.762 C 280.379 311.976,278.588 312.698,276.893 313.366 C 275.199 314.035,273.703 314.680,273.569 314.800 C 273.435 314.921,273.177 315.019,272.997 315.019 C 272.817 315.019,271.913 315.366,270.988 315.789 C 270.064 316.213,269.213 316.560,269.099 316.560 C 268.985 316.560,267.755 317.022,266.367 317.587 C 264.979 318.151,263.746 318.614,263.626 318.614 C 263.507 318.614,262.919 318.831,262.321 319.097 C 261.722 319.362,260.886 319.701,260.462 319.848 C 259.839 320.066,256.895 321.171,253.530 322.451 C 253.000 322.652,252.251 322.914,247.882 324.423 C 246.470 324.911,245.114 325.421,244.869 325.556 C 244.623 325.692,244.213 325.802,243.957 325.802 C 243.701 325.802,243.382 325.897,243.248 326.014 C 243.114 326.130,241.098 326.833,238.768 327.575 C 236.438 328.318,234.331 329.032,234.086 329.161 C 233.840 329.291,233.463 329.397,233.248 329.397 C 233.032 329.397,232.655 329.498,232.410 329.622 C 232.165 329.746,231.560 329.967,231.065 330.114 C 228.352 330.918,224.599 332.064,223.363 332.465 C 222.587 332.716,221.489 333.052,220.924 333.211 C 219.001 333.752,216.563 334.472,215.148 334.917 C 214.371 335.161,213.331 335.455,212.837 335.571 C 212.343 335.686,211.505 335.904,210.976 336.055 C 210.446 336.205,209.580 336.452,209.050 336.602 C 208.521 336.753,207.683 336.975,207.189 337.096 C 206.694 337.216,205.366 337.564,204.236 337.869 C 203.107 338.174,201.720 338.535,201.155 338.671 C 200.591 338.808,199.695 339.030,199.166 339.164 C 196.311 339.891,194.620 340.290,192.172 340.814 C 191.043 341.055,190.032 341.307,189.924 341.374 C 189.817 341.440,189.181 341.596,188.510 341.720 C 187.840 341.844,186.252 342.172,184.981 342.450 C 183.710 342.728,182.266 343.031,181.772 343.123 C 181.277 343.216,180.411 343.393,179.846 343.517 C 179.281 343.642,177.490 343.990,175.866 344.291 C 174.243 344.592,171.759 345.053,170.347 345.316 C 168.935 345.579,166.913 345.926,165.854 346.088 C 164.795 346.249,163.466 346.479,162.901 346.599 C 162.336 346.719,160.834 346.946,159.564 347.103 C 158.293 347.260,156.560 347.492,155.712 347.620 C 152.807 348.057,150.318 348.379,147.754 348.651 C 146.341 348.800,144.204 349.032,143.004 349.165 C 140.674 349.425,136.628 349.763,130.809 350.184 C 116.309 351.234,94.995 350.440,82.927 348.400 C 78.758 347.696,75.732 347.146,74.583 346.884 C 74.018 346.755,72.978 346.526,72.272 346.374 C 70.382 345.967,67.729 345.262,62.516 343.779 C 61.325 343.440,60.388 343.118,58.023 342.234 C 56.823 341.785,55.552 341.327,55.199 341.215 C 54.846 341.104,54.095 340.810,53.530 340.561 C 52.965 340.312,52.272 340.014,51.990 339.899 C 44.561 336.873,33.987 330.324,29.282 325.836 C 29.040 325.606,28.563 325.173,28.221 324.875 C 24.734 321.837,19.808 315.760,16.901 310.911 C 14.719 307.272,14.369 306.558,11.938 300.770 C 11.072 298.709,9.670 293.580,8.745 289.089 C 6.926 280.255,7.134 266.618,9.241 256.611 C 9.360 256.046,9.593 254.891,9.759 254.044 C 10.302 251.262,11.274 247.186,11.810 245.443 C 11.918 245.090,12.136 244.339,12.293 243.774 C 12.826 241.861,14.163 237.619,14.641 236.329 C 14.902 235.623,15.539 233.890,16.055 232.478 C 17.085 229.662,18.490 226.155,19.269 224.457 C 19.544 223.859,19.769 223.321,19.769 223.263 C 19.769 223.205,20.239 222.135,20.813 220.886 C 21.387 219.636,22.037 218.209,22.258 217.715 C 23.477 214.987,27.353 207.467,29.272 204.108 C 29.796 203.190,30.515 201.919,30.869 201.284 C 34.203 195.300,39.394 187.099,44.762 179.332 C 46.323 177.073,47.670 175.167,47.754 175.096 C 47.838 175.026,48.184 174.564,48.524 174.069 C 49.817 172.188,52.759 168.289,52.948 168.207 C 53.056 168.160,53.145 168.017,53.145 167.889 C 53.145 167.664,53.297 167.456,54.702 165.753 C 55.064 165.314,56.275 163.742,57.394 162.259 C 58.513 160.777,59.494 159.506,59.574 159.435 C 59.655 159.365,60.512 158.325,61.480 157.125 C 64.491 153.389,69.791 147.112,71.343 145.443 C 71.868 144.878,72.622 144.012,73.018 143.517 C 73.414 143.023,74.390 141.921,75.187 141.067 C 75.984 140.214,77.445 138.596,78.434 137.473 C 80.905 134.665,88.968 126.213,93.843 121.321 C 99.013 116.133,111.902 103.908,115.533 100.749 C 116.168 100.196,116.746 99.681,116.816 99.605 C 117.041 99.362,125.380 92.085,126.709 90.972 C 127.410 90.384,128.273 89.652,128.626 89.345 C 128.979 89.038,129.839 88.306,130.536 87.718 C 131.234 87.131,132.320 86.208,132.949 85.667 C 133.579 85.127,134.915 84.036,135.917 83.242 C 136.920 82.448,137.798 81.732,137.869 81.651 C 138.002 81.497,143.690 76.864,145.128 75.738 C 146.912 74.341,153.204 69.443,154.172 68.698 C 154.737 68.263,155.257 67.849,155.327 67.777 C 155.619 67.480,168.140 58.190,170.568 56.469 C 171.255 55.982,172.545 55.064,173.435 54.429 C 174.325 53.793,175.959 52.650,177.065 51.889 C 178.171 51.127,179.837 49.946,180.768 49.263 C 183.322 47.390,184.274 46.954,183.947 47.807 M151.894 113.102 C 151.687 113.641,151.682 183.137,151.889 183.676 C 152.115 184.264,185.002 184.284,187.805 183.697 C 193.683 182.467,198.911 177.456,200.383 171.641 C 200.965 169.340,200.963 127.419,200.380 125.182 C 198.981 119.813,194.182 114.998,188.557 113.322 C 186.291 112.647,152.147 112.442,151.894 113.102 M292.169 112.953 C 285.358 113.923,279.862 118.732,278.179 125.194 C 277.690 127.071,277.593 168.968,278.072 171.297 C 279.146 176.518,283.981 181.644,289.474 183.384 C 291.219 183.937,291.602 183.954,302.824 183.952 L 314.377 183.951 316.451 183.249 C 322.629 181.159,326.387 175.781,326.634 168.678 L 326.701 166.752 322.099 166.682 C 316.907 166.603,317.172 166.509,316.794 168.551 C 315.877 173.514,314.388 174.326,306.204 174.326 C 299.650 174.326,299.196 174.208,297.188 171.975 C 295.451 170.043,295.510 170.873,295.511 148.267 L 295.512 127.728 296.116 126.430 C 297.674 123.084,299.573 122.391,306.872 122.507 C 314.273 122.624,315.717 123.447,316.721 128.123 L 317.163 130.178 321.932 130.108 L 326.701 130.039 326.653 128.393 C 326.434 120.816,322.341 115.269,315.613 113.432 C 313.458 112.843,295.511 112.477,292.169 112.953 M179.367 123.163 C 180.717 123.882,181.892 125.057,182.616 126.410 L 183.184 127.471 183.255 147.612 C 183.334 169.741,183.341 169.619,181.829 171.620 C 180.078 173.937,178.922 174.326,173.783 174.326 L 169.448 174.326 169.448 148.374 L 169.448 122.422 173.877 122.509 C 177.853 122.588,178.414 122.654,179.367 123.163 M112.036 222.506 C 110.284 226.459,102.674 245.914,102.624 246.567 C 102.571 247.257,108.006 249.802,109.543 249.806 C 109.868 249.808,110.386 248.345,111.814 243.389 C 112.322 241.624,112.971 239.390,113.254 238.425 L 113.770 236.670 115.880 240.093 C 119.156 245.413,121.213 248.524,121.454 248.524 C 121.574 248.524,123.440 245.870,125.599 242.627 C 127.758 239.384,129.591 236.727,129.672 236.722 C 129.753 236.718,130.894 239.543,132.209 243.001 C 133.524 246.459,134.752 249.414,134.937 249.568 C 135.319 249.885,142.490 246.839,142.490 246.359 C 142.490 245.556,131.541 221.823,131.170 221.823 C 130.911 221.823,129.225 224.350,126.549 228.750 C 124.232 232.560,122.279 235.674,122.208 235.670 C 122.137 235.666,120.116 232.413,117.715 228.441 C 112.794 220.298,112.945 220.456,112.036 222.506 M190.244 221.719 C 180.727 223.758,175.554 234.286,179.985 242.599 C 184.969 251.950,202.698 251.471,207.572 241.853 C 213.786 229.589,204.402 218.685,190.244 221.719 M302.824 221.436 C 302.683 221.483,301.412 221.890,300.000 222.341 C 282.893 227.801,279.043 244.329,293.887 248.577 C 297.030 249.477,307.220 249.384,308.422 248.445 C 308.760 248.180,308.794 247.344,308.670 242.291 L 308.526 236.444 304.520 236.515 L 300.513 236.585 300.441 239.602 L 300.369 242.619 299.488 242.619 C 298.085 242.619,295.881 241.664,295.020 240.684 C 291.481 236.654,295.919 231.046,304.189 229.096 C 305.633 228.755,306.043 228.561,305.964 228.255 C 305.907 228.036,305.524 226.383,305.113 224.583 C 304.326 221.139,304.207 220.975,302.824 221.436 M248.637 235.232 L 248.677 248.652 253.543 248.846 C 256.219 248.952,260.026 249.010,262.003 248.974 L 265.597 248.909 265.597 245.571 L 265.597 242.234 261.386 242.163 L 257.176 242.092 257.278 232.022 L 257.381 221.951 252.989 221.881 L 248.597 221.811 248.637 235.232 M345.959 222.293 C 345.660 223.073,345.825 228.498,346.149 228.521 C 346.325 228.534,348.240 228.524,350.404 228.500 L 354.338 228.456 354.255 238.501 C 354.173 248.368,354.181 248.549,354.685 248.673 C 354.968 248.742,356.932 248.766,359.050 248.726 L 362.901 248.652 362.800 238.550 L 362.699 228.449 366.908 228.531 L 371.117 228.614 371.117 225.337 L 371.117 222.060 358.604 222.006 C 348.382 221.961,346.066 222.014,345.959 222.293 M195.912 227.507 C 201.560 229.199,201.429 240.734,195.739 242.863 C 191.231 244.549,187.818 241.568,187.817 235.944 C 187.817 229.951,191.445 226.169,195.912 227.507 " stroke="none" fill="#285196" fill-rule="evenodd"></path><path id="path2" d="M182.927 48.168 C 182.644 48.386,182.189 48.727,181.915 48.924 C 181.641 49.121,181.491 49.356,181.581 49.446 C 181.671 49.535,182.184 49.192,182.721 48.683 C 183.727 47.730,183.832 47.466,182.927 48.168 M109.997 106.354 L 109.243 107.189 110.077 106.435 C 110.855 105.732,111.029 105.520,110.831 105.520 C 110.787 105.520,110.411 105.895,109.997 106.354 M234.082 112.901 C 236.942 112.942,241.621 112.942,244.480 112.901 C 247.340 112.860,245.000 112.826,239.281 112.826 C 233.562 112.826,231.223 112.860,234.082 112.901 M227.086 113.234 C 226.728 113.396,226.884 113.419,227.599 113.310 C 228.164 113.224,228.675 113.112,228.733 113.060 C 228.954 112.865,227.579 113.011,227.086 113.234 M250.578 113.222 C 251.567 113.539,252.095 113.539,251.605 113.222 C 251.393 113.085,250.931 112.983,250.578 112.995 L 249.936 113.017 250.578 113.222 M224.262 114.219 C 222.483 115.046,219.187 117.591,218.181 118.914 C 217.355 119.999,215.559 123.218,215.700 123.360 C 215.755 123.415,216.182 122.723,216.650 121.822 C 218.264 118.707,222.050 115.307,225.225 114.121 C 225.895 113.871,226.444 113.624,226.444 113.572 C 226.444 113.334,225.674 113.562,224.262 114.219 M253.487 114.107 C 257.851 115.901,261.947 120.461,263.185 124.904 C 263.479 125.957,263.543 130.261,263.543 148.860 C 263.543 161.330,263.618 171.266,263.710 170.940 C 264.117 169.494,263.944 126.835,263.524 125.216 C 262.208 120.136,255.855 113.434,252.405 113.485 C 252.176 113.488,252.664 113.768,253.487 114.107 M238.447 122.650 C 238.906 122.707,239.657 122.707,240.116 122.650 C 240.574 122.593,240.199 122.547,239.281 122.547 C 238.363 122.547,237.988 122.593,238.447 122.650 M235.523 123.556 C 234.083 124.519,232.595 126.579,232.629 127.564 C 232.650 128.173,232.678 128.152,232.907 127.352 C 233.384 125.689,234.574 124.369,236.551 123.306 C 237.135 122.993,237.423 122.733,237.192 122.729 C 236.961 122.725,236.210 123.097,235.523 123.556 M242.188 123.344 C 243.816 124.142,244.534 124.846,245.313 126.410 L 245.956 127.700 245.956 148.223 C 245.956 170.746,246.005 170.021,244.368 171.881 C 242.919 173.527,241.389 174.182,239.024 174.169 C 237.202 174.159,237.158 174.172,238.200 174.409 C 241.164 175.084,245.130 172.694,245.951 169.738 C 246.524 167.676,246.274 127.887,245.679 126.573 C 244.848 124.733,242.521 122.699,241.281 122.729 C 241.099 122.734,241.507 123.011,242.188 123.344 M215.107 124.687 C 214.727 125.809,214.459 168.821,214.821 170.567 C 214.930 171.091,215.019 161.262,215.019 148.725 C 215.019 130.247,215.085 125.745,215.366 124.951 C 215.556 124.412,215.651 123.910,215.577 123.835 C 215.503 123.761,215.291 124.144,215.107 124.687 M232.471 148.524 C 232.471 159.679,232.503 164.205,232.542 158.582 C 232.580 152.958,232.580 143.831,232.542 138.299 C 232.503 132.767,232.471 137.368,232.471 148.524 M200.892 148.010 C 200.892 158.742,200.924 163.095,200.963 157.683 C 201.001 152.272,201.001 143.491,200.963 138.171 C 200.924 132.851,200.892 137.279,200.892 148.010 M232.624 169.135 C 232.547 170.536,236.167 174.702,236.859 174.010 C 236.924 173.945,236.477 173.575,235.866 173.189 C 234.545 172.354,233.478 171.081,232.994 169.763 C 232.800 169.237,232.634 168.954,232.624 169.135 M215.161 172.085 C 215.120 173.482,217.649 177.582,219.806 179.617 C 221.596 181.305,225.456 183.616,225.841 183.230 C 225.893 183.178,225.444 182.920,224.842 182.658 C 220.778 180.882,217.330 177.246,215.710 173.025 C 215.415 172.258,215.168 171.835,215.161 172.085 M263.044 172.435 C 262.947 172.821,262.645 173.597,262.373 174.161 C 261.811 175.323,261.894 175.793,262.463 174.671 C 262.974 173.662,263.492 172.007,263.343 171.858 C 263.275 171.790,263.140 172.050,263.044 172.435 M260.480 177.320 C 259.223 179.018,257.175 180.793,254.977 182.088 C 254.323 182.474,253.916 182.792,254.075 182.794 C 254.649 182.803,258.180 180.282,259.315 179.052 C 260.768 177.478,261.980 175.887,261.837 175.743 C 261.777 175.683,261.166 176.393,260.480 177.320 M226.573 183.569 C 226.855 183.690,227.317 183.789,227.599 183.789 L 228.113 183.789 227.599 183.569 C 227.317 183.447,226.855 183.348,226.573 183.348 L 226.059 183.348 226.573 183.569 M251.091 183.569 C 250.575 183.734,250.550 183.776,250.963 183.782 C 251.245 183.786,251.707 183.690,251.990 183.569 C 252.644 183.288,251.969 183.288,251.091 183.569 M229.168 184.132 C 230.469 184.363,248.092 184.363,249.396 184.132 C 249.947 184.034,245.396 183.954,239.283 183.954 C 233.170 183.954,228.618 184.034,229.168 184.132 M159.884 221.241 C 160.485 221.295,161.467 221.295,162.067 221.241 C 162.667 221.187,162.176 221.142,160.976 221.142 C 159.775 221.142,159.284 221.187,159.884 221.241 M156.354 221.566 L 155.712 221.772 156.354 221.772 C 156.707 221.772,157.285 221.679,157.638 221.566 L 158.280 221.361 157.638 221.361 C 157.285 221.361,156.707 221.453,156.354 221.566 M164.185 221.581 C 165.556 221.865,166.498 221.855,165.597 221.566 C 165.244 221.453,164.551 221.362,164.056 221.364 L 163.158 221.368 164.185 221.581 M215.177 221.887 C 215.200 222.322,215.236 222.354,215.325 222.015 C 215.537 221.201,214.732 220.668,225.620 228.831 C 230.320 232.356,234.230 235.175,234.308 235.097 C 234.386 235.019,234.435 232.004,234.416 228.396 L 234.383 221.837 238.051 221.758 L 241.720 221.679 237.933 221.623 L 234.146 221.566 234.146 228.113 C 234.146 231.714,234.080 234.660,233.998 234.660 C 233.917 234.660,229.844 231.656,224.949 227.985 C 216.141 221.379,215.118 220.742,215.177 221.887 M154.557 222.080 C 154.215 222.301,154.215 222.328,154.557 222.328 C 154.769 222.328,155.116 222.216,155.327 222.080 C 155.670 221.858,155.670 221.831,155.327 221.831 C 155.116 221.831,154.769 221.943,154.557 222.080 M166.881 222.142 C 170.703 223.835,172.835 225.562,173.917 227.842 C 174.166 228.367,174.432 228.735,174.508 228.659 C 175.501 227.665,168.638 221.744,166.605 221.840 C 166.403 221.850,166.528 221.986,166.881 222.142 M241.977 223.923 C 241.880 225.098,241.843 226.406,241.894 226.829 C 241.946 227.253,242.081 226.347,242.194 224.816 C 242.307 223.284,242.344 221.976,242.277 221.909 C 242.210 221.842,242.075 222.748,241.977 223.923 M279.271 235.197 L 279.204 248.652 275.116 248.723 C 272.026 248.777,270.971 248.714,270.796 248.466 C 270.620 248.218,270.590 248.232,270.669 248.524 C 270.788 248.960,278.967 249.249,279.384 248.831 C 279.620 248.596,279.711 222.116,279.477 221.882 C 279.400 221.805,279.307 227.797,279.271 235.197 M314.963 235.233 C 315.003 242.608,315.127 248.734,315.239 248.847 C 315.351 248.959,317.341 249.019,319.660 248.980 L 323.877 248.909 323.946 243.849 L 324.016 238.789 324.845 238.652 C 325.301 238.577,326.078 238.476,326.573 238.426 C 327.082 238.375,326.804 238.320,325.931 238.299 C 323.665 238.245,323.769 237.994,323.690 243.657 L 323.620 248.652 319.660 248.723 C 317.482 248.762,315.612 248.705,315.504 248.595 C 315.396 248.485,315.284 242.417,315.254 235.109 C 315.224 227.802,315.130 221.823,315.045 221.823 C 314.960 221.823,314.923 227.857,314.963 235.233 M333.306 226.362 L 333.248 231.029 331.900 231.174 C 329.239 231.463,329.045 231.538,331.130 231.473 C 333.777 231.391,333.529 231.933,333.440 226.417 L 333.364 221.694 333.306 226.362 M342.032 235.087 C 342.012 242.382,341.896 248.450,341.774 248.572 C 341.652 248.694,339.770 248.762,337.593 248.723 L 333.633 248.652 333.564 243.173 L 333.494 237.694 330.996 237.876 C 327.751 238.113,327.544 238.337,330.680 238.218 L 333.119 238.126 333.248 243.517 L 333.376 248.909 337.356 248.982 C 339.544 249.023,341.566 248.999,341.849 248.929 C 342.361 248.803,342.743 221.823,342.232 221.823 C 342.141 221.823,342.051 227.791,342.032 235.087 M152.888 222.660 C 148.528 225.156,145.390 228.871,144.923 232.092 C 144.826 232.758,144.926 232.612,145.310 231.529 C 146.573 227.961,149.393 224.709,152.572 223.153 C 153.452 222.722,153.999 222.369,153.787 222.368 C 153.575 222.367,153.171 222.499,152.888 222.660 M214.935 223.620 C 214.907 223.832,214.835 225.680,214.775 227.728 L 214.667 231.451 214.911 228.626 C 215.107 226.349,215.127 222.169,214.935 223.620 M323.803 227.520 C 323.740 232.460,323.546 232.129,326.334 231.848 L 328.498 231.631 326.316 231.645 L 324.134 231.659 323.995 227.447 L 323.857 223.235 323.803 227.520 M270.721 236.457 C 270.721 242.458,270.755 244.913,270.796 241.913 C 270.837 238.912,270.837 234.002,270.796 231.001 C 270.755 228.001,270.721 230.456,270.721 236.457 M160.670 227.449 C 162.843 227.722,164.210 228.671,165.139 230.552 C 165.523 231.329,165.841 231.806,165.845 231.614 C 165.892 229.652,163.262 227.444,160.735 227.324 L 159.050 227.245 160.670 227.449 M157.510 227.953 C 155.888 228.964,154.450 231.081,154.173 232.866 C 154.061 233.588,154.124 233.511,154.499 232.465 C 155.375 230.026,156.294 228.867,158.046 227.993 C 158.598 227.717,158.877 227.487,158.665 227.482 C 158.453 227.477,157.933 227.689,157.510 227.953 M241.484 231.916 C 241.372 233.866,241.339 235.519,241.409 235.590 C 241.578 235.759,241.937 229.513,241.796 228.867 C 241.736 228.594,241.595 229.965,241.484 231.916 M174.604 229.192 C 174.592 229.362,174.701 229.766,174.846 230.091 C 174.990 230.415,175.217 231.374,175.349 232.221 L 175.589 233.761 175.499 232.221 C 175.423 230.894,174.663 228.324,174.604 229.192 M165.930 234.403 C 165.944 238.265,164.798 241.091,162.701 242.370 C 162.246 242.647,162.021 242.874,162.201 242.875 C 164.364 242.881,166.835 236.981,166.179 233.376 C 165.928 231.995,165.922 232.017,165.930 234.403 M214.258 236.200 C 214.153 238.248,214.114 240.212,214.172 240.565 C 214.230 240.918,214.371 239.399,214.486 237.189 C 214.600 234.979,214.639 233.015,214.572 232.824 C 214.504 232.633,214.363 234.153,214.258 236.200 M144.449 233.697 C 144.249 234.445,144.289 238.207,144.506 238.975 C 144.598 239.301,144.673 238.117,144.673 236.344 C 144.673 232.833,144.675 232.856,144.449 233.697 M153.875 235.815 C 153.876 236.945,153.921 237.375,153.975 236.771 C 154.029 236.167,154.029 235.243,153.974 234.717 C 153.918 234.191,153.874 234.685,153.875 235.815 M221.539 235.879 C 221.401 236.879,221.485 249.036,221.630 249.037 C 221.736 249.037,221.823 246.139,221.823 242.597 C 221.823 238.639,221.917 236.190,222.067 236.243 C 222.201 236.290,224.245 237.831,226.609 239.666 C 240.626 250.551,240.858 250.689,240.774 248.074 L 240.727 246.598 240.632 247.946 C 240.570 248.832,240.424 249.294,240.205 249.294 C 239.677 249.294,233.594 244.817,225.417 238.411 C 222.049 235.772,221.595 235.476,221.539 235.879 M175.232 237.227 C 174.481 241.633,171.548 245.552,167.536 247.510 C 166.399 248.065,165.608 248.520,165.778 248.521 C 169.396 248.550,176.642 239.556,175.543 236.400 C 175.480 236.220,175.340 236.592,175.232 237.227 M240.963 240.897 C 240.851 243.268,240.818 245.268,240.891 245.341 C 241.061 245.512,241.428 237.747,241.281 237.086 C 241.219 236.811,241.076 238.526,240.963 240.897 M144.801 240.079 C 144.801 242.958,150.616 248.371,154.300 248.921 C 154.950 249.018,154.807 248.922,153.787 248.577 C 149.731 247.202,146.747 244.497,145.444 241.014 C 144.993 239.807,144.801 239.528,144.801 240.079 M154.557 239.974 C 154.557 241.928,159.635 244.316,161.400 243.192 C 161.563 243.089,160.812 243.004,159.732 243.004 C 157.482 243.004,156.619 242.564,155.305 240.749 C 154.893 240.182,154.557 239.833,154.557 239.974 M213.747 245.432 C 213.517 249.278,213.321 249.047,216.767 248.986 L 219.641 248.936 216.816 248.794 L 213.992 248.652 214.089 245.507 C 214.212 241.477,213.986 241.427,213.747 245.432 M164.056 248.780 C 163.541 248.946,163.515 248.988,163.928 248.994 C 164.211 248.998,164.673 248.902,164.955 248.780 C 165.609 248.499,164.934 248.499,164.056 248.780 M155.888 249.332 C 156.645 249.545,161.375 249.542,162.372 249.328 C 162.787 249.239,161.364 249.165,159.210 249.165 C 157.056 249.165,155.561 249.240,155.888 249.332 M8.029 270.090 C 8.029 270.725,8.079 270.985,8.140 270.668 C 8.201 270.350,8.201 269.830,8.140 269.512 C 8.079 269.194,8.029 269.454,8.029 270.090 M8.024 279.461 C 8.027 280.026,8.079 280.227,8.141 279.907 C 8.202 279.588,8.200 279.126,8.135 278.880 C 8.071 278.635,8.021 278.896,8.024 279.461 M326.252 290.036 C 326.004 290.100,325.802 290.264,325.802 290.400 C 325.802 290.542,326.047 290.520,326.380 290.347 C 327.343 289.846,327.307 289.760,326.252 290.036 M222.401 312.629 C 222.648 312.693,223.052 312.693,223.299 312.629 C 223.546 312.564,223.344 312.511,222.850 312.511 C 222.356 312.511,222.153 312.564,222.401 312.629 M215.729 313.150 C 216.119 313.209,216.697 313.207,217.013 313.146 C 217.328 313.085,217.009 313.037,216.303 313.039 C 215.597 313.041,215.339 313.091,215.729 313.150 M186.714 313.663 C 187.102 313.722,187.737 313.722,188.126 313.663 C 188.514 313.604,188.196 313.556,187.420 313.556 C 186.643 313.556,186.325 313.604,186.714 313.663 M205.327 313.665 C 205.786 313.721,206.537 313.721,206.996 313.665 C 207.455 313.608,207.080 313.561,206.162 313.561 C 205.244 313.561,204.868 313.608,205.327 313.665 M99.683 349.863 C 100.073 349.922,100.651 349.921,100.966 349.860 C 101.282 349.799,100.963 349.751,100.257 349.753 C 99.551 349.754,99.292 349.804,99.683 349.863 M128.437 349.863 C 128.828 349.922,129.405 349.921,129.721 349.860 C 130.037 349.799,129.718 349.751,129.012 349.753 C 128.306 349.754,128.047 349.804,128.437 349.863 " stroke="none" fill="#f9e795" fill-rule="evenodd"></path></g></svg>