<svg width="42" height="34" viewBox="0 0 42 34" fill="none" xmlns="http://www.w3.org/2000/svg">
<path d="M4.2 34C3.045 34 2.0566 33.5842 1.2348 32.7526C0.4116 31.9196 0 30.9188 0 29.75V4.25C0 3.08125 0.4116 2.08108 1.2348 1.2495C2.0566 0.4165 3.045 0 4.2 0H37.8C38.955 0 39.9441 0.4165 40.7673 1.2495C41.5891 2.08108 42 3.08125 42 4.25V29.75C42 30.9188 41.5891 31.9196 40.7673 32.7526C39.9441 33.5842 38.955 34 37.8 34H4.2ZM21 19.125L4.2 8.5V29.75H37.8V8.5L21 19.125ZM21 14.875L37.8 4.25H4.2L21 14.875ZM4.2 8.5V4.25V29.75V8.5Z" fill="#1D4999"/>
</svg>
