<svg version="1.1" id="Layer_1" xmlns="http://www.w3.org/2000/svg" xmlns:xlink="http://www.w3.org/1999/xlink" x="0px" y="0px"
	 width="100%" viewBox="0 0 600 73" enable-background="new 0 0 600 73" xml:space="preserve">
<path fill="#FDFEFE" opacity="1.000000" stroke="none" 
	d="
M601.000000,27.000000 
	C601.000000,42.654922 601.000000,58.309845 601.000000,74.000000 
	C422.312439,74.000000 243.624878,74.000000 64.465927,73.531342 
	C63.994541,63.314991 63.994541,53.567299 63.994541,43.819607 
	C60.683678,50.016823 56.596184,54.568718 49.992878,56.370174 
	C42.933750,58.295990 36.721184,56.552639 31.000000,50.723454 
	C31.000000,59.134377 31.000000,66.567184 31.000000,74.000000 
	C28.299986,74.000000 25.599974,74.000000 22.662827,73.628365 
	C22.672573,68.496819 23.095390,63.738277 23.132383,58.976742 
	C23.231798,46.180332 23.166332,33.382648 23.166332,20.645441 
	C15.165863,19.821405 10.218307,23.858133 9.953444,31.550070 
	C9.668300,39.830971 9.888996,48.129284 9.888996,57.000000 
	C6.568552,57.000000 3.784276,57.000000 1.000000,57.000000 
	C1.000000,42.645771 1.000000,28.291544 1.382624,13.605258 
	C3.817334,13.670866 5.869421,14.068530 7.941570,14.470083 
	C8.284678,16.455082 8.628339,18.443285 9.134364,21.370821 
	C14.069904,11.659951 21.895113,12.465589 29.790138,13.281597 
	C30.004999,15.394890 30.196297,17.276428 30.423174,19.507906 
	C40.947510,7.998219 56.686241,9.363118 64.000000,25.524738 
	C64.000000,16.820070 64.000000,8.910035 64.000000,1.000000 
	C243.000000,1.000000 422.000000,1.000000 601.000000,1.000000 
	C601.000000,8.073411 601.000000,15.067924 600.716187,22.324299 
	C599.217590,22.584642 598.002808,22.583122 596.482117,22.478977 
	C595.605103,22.539707 595.034058,22.703058 594.462952,22.866428 
	C595.311951,23.424559 596.160950,23.982672 596.742310,24.676620 
	C596.414734,25.974094 596.354858,27.135733 596.295044,28.297371 
	C597.353577,27.874605 598.412109,27.451839 599.853760,27.063446 
	C600.491272,27.065216 600.745667,27.032608 601.000000,27.000000 
M177.031860,54.095169 
	C177.031860,43.839649 177.031860,33.584129 177.031860,23.358130 
	C174.731094,23.358130 173.008316,23.358130 171.153305,23.358130 
	C171.153305,34.136864 171.153305,44.585991 171.113968,55.584286 
	C171.410187,55.725952 171.706406,55.867619 172.785751,56.202793 
	C173.854294,56.145996 174.922852,56.089195 176.561630,56.043190 
	C176.672089,55.704422 176.782547,55.365654 177.031860,54.095169 
M224.083176,55.595123 
	C224.391876,55.740879 224.700562,55.886635 225.794266,56.208355 
	C226.859970,56.149715 227.925674,56.091076 229.561615,56.043198 
	C229.672073,55.704426 229.782532,55.365654 230.031860,54.095169 
	C229.985641,39.055454 229.939423,24.015738 229.918930,8.446472 
	C229.616455,8.311605 229.313995,8.176739 228.265381,7.716031 
	C227.190002,7.767841 226.114624,7.819652 224.436172,7.878663 
	C224.326340,8.243287 224.216507,8.607911 223.967743,9.904316 
	C224.014191,24.944376 224.060654,39.984436 224.083176,55.595123 
M158.736435,56.208385 
	C159.487213,56.151306 160.237976,56.094223 161.614075,56.043312 
	C161.756592,55.691067 161.899094,55.338818 162.182327,54.059464 
	C162.103302,39.034714 162.024277,24.009962 161.955460,8.346066 
	C161.616516,8.175296 161.277557,8.004525 160.046875,7.657104 
	C158.791153,7.762811 157.535431,7.868518 156.011841,7.996774 
	C156.011841,11.294115 156.011841,14.271975 156.011841,17.249834 
	C156.011841,20.163246 156.011841,23.076660 156.011841,26.278782 
	C147.809891,20.736305 139.881485,21.389765 134.770203,27.680424 
	C128.994217,34.789150 129.521774,47.309673 135.852356,53.363125 
	C141.610168,58.868874 149.028107,58.267185 156.679016,51.606590 
	C156.837387,52.789848 156.987564,53.911781 157.115463,55.583206 
	C157.411636,55.726452 157.707794,55.869694 158.736435,56.208385 
M278.337585,64.893539 
	C278.693756,66.276917 278.598877,68.391495 279.475037,68.931931 
	C289.563049,75.154808 304.101471,68.786110 305.058228,57.118008 
	C305.976135,45.923485 305.256470,34.594685 305.256470,21.947746 
	C302.834503,23.448009 300.906189,24.642477 298.809845,25.941036 
	C292.590210,20.870552 285.028595,20.949705 279.335022,26.659992 
	C273.395416,32.617031 272.772491,44.488297 278.053040,51.090519 
	C282.981323,57.252308 290.341644,57.734440 298.955505,52.459728 
	C300.452118,61.414059 295.707336,66.762360 286.918701,65.838226 
	C284.199158,65.552269 281.530487,64.782806 278.337585,64.893539 
M34.689034,22.235155 
	C29.670471,28.679560 30.232327,35.975616 32.122635,43.125111 
	C33.372425,47.852043 37.369091,50.346367 42.185818,50.859257 
	C46.998039,51.371666 51.803947,49.895844 53.543255,45.404324 
	C55.372463,40.680664 56.538521,35.122776 55.967056,30.162998 
	C54.636898,18.618540 44.545177,14.812217 34.689034,22.235155 
M382.328522,23.918837 
	C375.451355,20.787846 369.506866,22.522318 363.963348,28.063223 
	C364.333099,23.217005 362.381592,22.071703 358.594543,23.486694 
	C358.594543,38.915718 358.594543,54.300335 358.594543,69.691452 
	C360.711823,69.691452 362.448090,69.691452 364.788818,69.691452 
	C364.788818,64.075996 364.788818,58.763783 364.788818,53.085869 
	C373.661621,59.091160 382.230469,57.955555 387.174194,50.613197 
	C392.706207,42.397099 390.809479,30.427149 382.328522,23.918837 
M207.002548,23.158281 
	C205.698318,22.890802 204.404846,22.540665 203.088104,22.369173 
	C194.112122,21.200144 185.918945,27.816843 184.949860,36.981438 
	C183.791458,47.936317 189.484573,56.109001 198.907318,57.017899 
	C207.295151,57.826969 214.485794,53.297264 216.785172,45.755848 
	C219.669601,36.295616 216.200546,27.768497 207.002548,23.158281 
M242.089706,53.508766 
	C243.213074,54.218174 244.274719,55.060783 245.470093,55.614822 
	C251.976440,58.630413 259.988678,57.087185 264.777588,51.970047 
	C269.767548,46.638092 270.749176,36.680531 266.942047,30.014309 
	C263.516266,24.015821 256.699768,21.222628 249.315689,22.791557 
	C236.111847,25.597048 231.938095,41.791374 242.089706,53.508766 
M316.103058,35.444725 
	C318.053345,40.211697 320.016205,44.973583 321.950867,49.746891 
	C324.494751,56.023384 323.709930,59.106373 318.324005,63.415680 
	C316.790039,64.643005 315.042633,65.603584 313.172607,66.831268 
	C313.708527,68.275284 314.250366,69.735229 315.342651,72.678345 
	C319.325562,69.190147 323.848999,66.959816 325.612946,63.372559 
	C331.960052,50.465034 337.375946,37.099617 343.170013,23.846975 
	C337.934998,21.980406 335.843048,23.334818 334.623749,27.697147 
	C332.662201,34.714939 330.007233,41.538902 327.614349,48.535004 
	C327.405090,48.264793 327.261993,48.148251 327.207001,47.999218 
	C324.733948,41.298237 322.054382,34.662930 319.880157,27.866022 
	C318.507935,23.576284 316.369141,21.767475 311.509735,23.681351 
	C312.970337,27.354597 314.430969,31.027895 316.103058,35.444725 
M124.757027,33.222771 
	C121.920990,22.107365 111.252312,18.676041 100.946671,25.742693 
	C101.489059,26.813381 102.043434,27.907745 102.579559,28.966068 
	C113.169067,24.976002 117.822464,26.700293 118.430321,34.120922 
	C113.589317,35.459755 108.635490,36.292919 104.149132,38.216408 
	C99.336128,40.279938 97.524841,45.542076 98.968102,50.405071 
	C100.251984,54.731045 104.230385,57.583145 109.402000,56.943844 
	C112.681358,56.538456 115.811913,54.929356 118.202164,54.129978 
	C120.428490,55.081417 122.362061,55.907749 124.864647,56.977253 
	C124.864647,48.647739 124.864647,41.369259 124.757027,33.222771 
M526.793213,52.176083 
	C519.514526,51.108822 516.678711,47.926987 517.075134,40.760864 
	C524.620117,40.760864 532.200317,40.760864 539.720886,40.760864 
	C540.650024,30.736652 537.023560,24.446175 529.696167,22.813200 
	C521.719788,21.035589 514.604919,24.771637 511.917419,32.657310 
	C509.486206,39.790863 509.532532,47.001263 515.234558,52.653732 
	C521.127258,58.495243 528.570679,57.818573 535.825806,55.724247 
	C536.817566,55.437969 537.205566,53.060349 538.077026,51.220501 
	C533.567749,51.649540 530.621582,51.929859 526.793213,52.176083 
M421.445862,47.468761 
	C421.445465,43.978828 421.481750,40.488441 421.438171,36.999046 
	C421.279816,24.319328 412.153320,18.610418 400.457520,24.042267 
	C399.287323,24.585737 398.797272,26.593742 397.991547,27.922056 
	C410.636902,25.171415 415.025848,26.836676 414.958801,34.158367 
	C410.093079,35.538006 405.144226,36.397751 400.678223,38.357731 
	C396.051453,40.388260 394.357269,45.478416 395.722229,50.148464 
	C397.071564,54.764851 400.652466,57.497303 405.941315,56.905861 
	C409.243683,56.536556 412.406647,54.920296 414.805267,54.134495 
	C417.111023,55.064369 419.145569,55.884884 421.915955,57.002148 
	C421.716827,53.365559 421.582123,50.905350 421.445862,47.468761 
M505.972778,51.367405 
	C505.747955,44.894375 506.134979,38.325748 505.142456,31.972656 
	C503.918365,24.137440 496.653320,20.406919 489.305603,23.232569 
	C487.070404,24.092161 485.167084,25.814756 483.087372,27.157845 
	C482.692749,25.883053 482.263733,24.497074 481.796844,22.988806 
	C480.174622,23.072039 478.745056,23.145386 477.339844,23.217484 
	C477.339844,34.313084 477.339844,45.064060 477.339844,55.861210 
	C479.394562,55.861210 481.121582,55.861210 483.221497,55.861210 
	C483.221497,49.897091 483.126556,44.259979 483.270264,38.628952 
	C483.324371,36.509727 483.483093,34.186100 484.382568,32.339764 
	C486.115967,28.781660 489.191162,26.769899 493.331543,27.456793 
	C497.970276,28.226360 499.513092,31.838581 499.683258,35.853157 
	C499.963287,42.459602 499.759186,49.086571 499.759186,55.606758 
	C505.580078,56.486313 505.580078,56.486313 505.972778,51.367405 
M572.410706,32.889759 
	C572.993164,22.532249 579.900330,28.460985 584.797852,28.009743 
	C585.082703,26.985279 585.450928,25.661100 586.185364,23.019978 
	C581.416809,23.019978 577.300537,22.511089 573.375793,23.160126 
	C569.281067,23.837263 566.742432,26.941900 566.241821,31.171810 
	C565.774170,35.123619 567.941833,37.849960 571.185791,39.702293 
	C573.050293,40.766922 575.133240,41.442017 577.084229,42.363716 
	C579.859497,43.674828 582.413330,45.820396 580.783203,48.859360 
	C579.800781,50.690758 576.757019,52.087421 574.477539,52.369526 
	C572.038147,52.671417 569.408264,51.434639 566.599915,50.811378 
	C566.168030,52.254967 565.813049,53.441349 565.109863,55.791706 
	C569.765869,56.201363 573.829407,57.057434 577.816284,56.786301 
	C583.064392,56.429394 586.535461,52.836468 587.076233,48.476170 
	C587.734375,43.169548 584.967957,40.089397 580.511841,37.910961 
	C577.866272,36.617687 575.376160,35.006573 572.410706,32.889759 
M470.852325,27.615587 
	C471.200623,26.231850 471.548889,24.848112 471.956573,23.228512 
	C468.560150,23.069937 465.956757,22.948385 463.216583,22.820450 
	C463.053680,20.150578 462.908936,17.777960 462.750793,15.185691 
	C460.615265,15.859020 458.898499,16.400312 457.157593,16.949219 
	C457.035461,19.014423 456.929779,20.801817 456.820190,22.654943 
	C455.066071,22.963831 453.530426,23.234251 452.276184,23.455112 
	C450.394104,28.628481 454.886261,27.350266 456.990936,28.331251 
	C456.990936,31.614555 456.990204,34.603306 456.991150,37.592060 
	C456.992157,40.757351 456.875916,43.928093 457.020844,47.086823 
	C457.348083,54.219093 460.681641,57.282230 467.277039,57.060642 
	C471.001099,56.935520 471.992188,55.449814 470.548950,52.011765 
	C466.957489,52.215363 463.344147,52.105873 463.170074,47.455540 
	C462.928894,41.012375 463.109528,34.553421 463.109528,27.744423 
	C465.707001,27.744423 467.848846,27.744423 470.852325,27.615587 
M83.768875,51.185726 
	C83.787979,46.532661 83.706955,41.876404 83.855103,37.227451 
	C83.995659,32.816914 85.985657,29.353476 90.459480,28.383348 
	C94.492668,27.508768 94.490311,25.405190 93.065079,21.212847 
	C89.413208,23.299849 86.150658,25.164354 83.057381,26.932123 
	C82.856270,25.991199 82.555565,24.584381 82.196831,22.906017 
	C80.381821,23.062498 78.834785,23.195877 77.528427,23.308506 
	C77.528427,34.525726 77.528427,45.248497 77.528427,56.054386 
	C81.226212,56.730740 84.426926,57.332603 83.768875,51.185726 
M546.540955,23.224627 
	C546.540955,34.102119 546.540955,44.979614 546.540955,56.214481 
	C548.510132,56.127796 550.235291,56.051857 552.244080,55.963428 
	C552.244080,50.169044 552.117065,44.865593 552.273926,39.570560 
	C552.508728,31.643877 554.984375,28.900894 562.546021,27.682945 
	C562.546021,25.964947 562.546021,24.266115 562.546021,20.938225 
	C558.299377,23.373449 555.059937,25.231119 551.799927,27.100569 
	C551.432007,25.141001 551.424805,22.005657 546.540955,23.224627 
M441.646545,23.005615 
	C439.518707,24.681154 437.390869,26.356691 435.226929,28.060680 
	C435.094513,26.528965 434.957855,24.948393 434.812897,23.271786 
	C433.121765,23.271786 431.708679,23.271786 429.998047,23.271786 
	C429.998047,28.936779 429.998047,34.385426 429.998047,39.834072 
	C429.998047,45.231705 429.998047,50.629337 429.998047,56.239128 
	C432.396149,56.128342 434.000275,56.054234 436.045837,55.959736 
	C436.045837,50.743290 436.042786,45.793831 436.046478,40.844376 
	C436.053223,31.771236 437.690521,29.611195 446.369751,27.299770 
	C446.701294,24.320827 447.254639,21.199446 441.646545,23.005615 
M170.119156,14.251975 
	C171.566254,15.289042 172.901566,16.774389 174.507401,17.174788 
	C175.314972,17.376143 177.208786,15.777270 177.524292,14.679935 
	C177.842621,13.572712 177.218842,11.475971 176.304321,10.864002 
	C173.224884,8.803301 171.112320,10.132651 170.119156,14.251975 
M590.683716,28.957636 
	C590.923462,29.103140 591.163269,29.248646 591.403015,29.394140 
	C591.491211,29.146151 591.579468,28.898159 591.667725,28.650167 
	C591.311951,28.608841 590.956116,28.567514 590.683716,28.957636 
z"/>
<path fill="#03A7E1" opacity="1.000000" stroke="none" 
	d="
M63.531342,1.000000 
	C64.000000,8.910035 64.000000,16.820070 64.000000,25.524738 
	C56.686241,9.363118 40.947510,7.998219 30.423174,19.507906 
	C30.196297,17.276428 30.004999,15.394890 29.790138,13.281597 
	C21.895113,12.465589 14.069904,11.659951 9.134364,21.370821 
	C8.628339,18.443285 8.284678,16.455082 7.941570,14.470083 
	C5.869421,14.068530 3.817334,13.670866 1.382624,13.136600 
	C1.000000,9.023480 1.000000,5.046960 1.000000,1.000000 
	C21.687513,1.000000 42.375099,1.000000 63.531342,1.000000 
z"/>
<path fill="#01A7E1" opacity="1.000000" stroke="none" 
	d="
M1.000000,57.470451 
	C3.784276,57.000000 6.568552,57.000000 9.888996,57.000000 
	C9.888996,48.129284 9.668300,39.830971 9.953444,31.550070 
	C10.218307,23.858133 15.165863,19.821405 23.166332,20.645441 
	C23.166332,33.382648 23.231798,46.180332 23.132383,58.976742 
	C23.095390,63.738277 22.672573,68.496819 22.212847,73.628365 
	C15.082302,74.000000 8.164605,74.000000 1.000000,74.000000 
	C1.000000,68.649475 1.000000,63.295193 1.000000,57.470451 
z"/>
<path fill="#04A8E1" opacity="1.000000" stroke="none" 
	d="
M31.468658,74.000000 
	C31.000000,66.567184 31.000000,59.134377 31.000000,50.723454 
	C36.721184,56.552639 42.933750,58.295990 49.992878,56.370174 
	C56.596184,54.568718 60.683678,50.016823 63.994541,43.819607 
	C63.994541,53.567299 63.994541,63.314991 63.997269,73.531342 
	C53.312439,74.000000 42.624878,74.000000 31.468658,74.000000 
z"/>
<path fill="#EBF7FC" opacity="1.000000" stroke="none" 
	d="
M596.788025,22.581600 
	C598.002808,22.583122 599.217590,22.584642 600.716187,22.793081 
	C601.000000,23.000000 601.000000,23.500000 600.691589,23.925459 
	C600.078979,25.243637 599.774841,26.136356 599.470642,27.029074 
	C598.412109,27.451839 597.353577,27.874605 596.295044,28.297371 
	C596.354858,27.135733 596.414734,25.974094 596.806519,24.342892 
	C597.021667,23.442751 596.904846,23.012175 596.788025,22.581600 
z"/>
<path fill="#78C7EC" opacity="1.000000" stroke="none" 
	d="
M599.853760,27.063450 
	C599.774841,26.136356 600.078979,25.243637 600.691589,24.175459 
	C601.000000,24.750000 601.000000,25.500000 601.000000,26.625000 
	C600.745667,27.032608 600.491272,27.065216 599.853760,27.063450 
z"/>
<path fill="#727375" opacity="1.000000" stroke="none" 
	d="
M278.588043,64.564125 
	C281.530487,64.782806 284.199158,65.552269 286.918701,65.838226 
	C295.707336,66.762360 300.452118,61.414059 298.955505,52.459728 
	C290.341644,57.734440 282.981323,57.252308 278.053040,51.090519 
	C272.772491,44.488297 273.395416,32.617031 279.335022,26.659992 
	C285.028595,20.949705 292.590210,20.870552 298.809845,25.941036 
	C300.906189,24.642477 302.834503,23.448009 305.256470,21.947746 
	C305.256470,34.594685 305.976135,45.923485 305.058228,57.118008 
	C304.101471,68.786110 289.563049,75.154808 279.475037,68.931931 
	C278.598877,68.391495 278.693756,66.276917 278.588043,64.564125 
M280.901031,37.781845 
	C280.887268,38.612709 280.832031,39.445290 280.866302,40.274166 
	C281.143341,46.973465 284.460083,51.082142 289.850342,51.429520 
	C294.927673,51.756729 298.649750,48.546600 299.298950,43.280434 
	C300.471893,33.766327 298.194916,28.365463 292.384155,27.273451 
	C290.975006,27.008633 289.342163,27.095032 287.985535,27.543873 
	C283.543793,29.013407 281.541199,32.474266 280.901031,37.781845 
z"/>
<path fill="#04A8E1" opacity="1.000000" stroke="none" 
	d="
M34.946442,21.960651 
	C44.545177,14.812217 54.636898,18.618540 55.967056,30.162998 
	C56.538521,35.122776 55.372463,40.680664 53.543255,45.404324 
	C51.803947,49.895844 46.998039,51.371666 42.185818,50.859257 
	C37.369091,50.346367 33.372425,47.852043 32.122635,43.125111 
	C30.232327,35.975616 29.670471,28.679560 34.946442,21.960651 
z"/>
<path fill="#07A8E1" opacity="1.000000" stroke="none" 
	d="
M382.664093,24.093750 
	C390.809479,30.427149 392.706207,42.397099 387.174194,50.613197 
	C382.230469,57.955555 373.661621,59.091160 364.788818,53.085869 
	C364.788818,58.763783 364.788818,64.075996 364.788818,69.691452 
	C362.448090,69.691452 360.711823,69.691452 358.594543,69.691452 
	C358.594543,54.300335 358.594543,38.915718 358.594543,23.486694 
	C362.381592,22.071703 364.333099,23.217005 363.963348,28.063223 
	C369.506866,22.522318 375.451355,20.787846 382.664093,24.093750 
M383.954132,36.994106 
	C382.176147,30.179182 378.382385,26.622593 373.435791,27.133327 
	C367.886108,27.706335 364.396454,32.357185 364.379150,39.456741 
	C364.373962,41.590767 364.474976,43.820999 365.082672,45.840008 
	C366.241425,49.689816 369.011139,51.876369 373.109955,52.179447 
	C377.107941,52.475063 380.638306,51.266159 382.137177,47.436939 
	C383.304749,44.453995 383.413727,41.056702 383.954132,36.994106 
z"/>
<path fill="#6F7073" opacity="1.000000" stroke="none" 
	d="
M160.988770,56.037144 
	C160.237976,56.094223 159.487213,56.151306 158.280243,55.903389 
	C157.663162,55.327663 157.434387,55.139439 157.137726,55.033714 
	C156.987564,53.911781 156.837387,52.789848 156.679016,51.606590 
	C149.028107,58.267185 141.610168,58.868874 135.852356,53.363125 
	C129.521774,47.309673 128.994217,34.789150 134.770203,27.680424 
	C139.881485,21.389765 147.809891,20.736305 156.011841,26.278782 
	C156.011841,23.076660 156.011841,20.163246 156.011841,17.249834 
	C156.011841,14.271975 156.011841,11.294115 156.011841,7.996774 
	C157.535431,7.868518 158.791153,7.762811 160.597458,7.989090 
	C161.413773,8.542456 161.679520,8.763835 161.945251,8.985212 
	C162.024277,24.009962 162.103302,39.034714 161.878021,54.632416 
	C161.378738,55.482624 161.183746,55.759888 160.988770,56.037144 
M156.012558,36.837612 
	C155.463593,31.046465 152.646194,27.671135 147.911362,27.132090 
	C143.394409,26.617849 138.779617,29.562181 137.923401,34.918091 
	C137.281799,38.931465 137.818970,43.450317 139.051529,47.359367 
	C140.350662,51.479542 144.396667,52.645519 148.520615,51.919239 
	C152.723877,51.178986 155.205170,48.344212 155.881241,44.194080 
	C156.224533,42.086803 155.989532,39.885319 156.012558,36.837612 
z"/>
<path fill="#707174" opacity="1.000000" stroke="none" 
	d="
M207.360901,23.314831 
	C216.200546,27.768497 219.669601,36.295616 216.785172,45.755848 
	C214.485794,53.297264 207.295151,57.826969 198.907318,57.017899 
	C189.484573,56.109001 183.791458,47.936317 184.949860,36.981438 
	C185.918945,27.816843 194.112122,21.200144 203.088104,22.369173 
	C204.404846,22.540665 205.698318,22.890802 207.360901,23.314831 
M196.184174,28.401588 
	C190.918793,33.369987 189.491547,40.339104 192.468658,46.544346 
	C194.745270,51.289543 199.336319,53.457325 203.982941,51.981121 
	C209.806122,50.131130 212.869202,41.951832 210.502151,34.572952 
	C208.401459,28.024475 203.697159,25.768270 196.184174,28.401588 
z"/>
<path fill="#707174" opacity="1.000000" stroke="none" 
	d="
M241.807373,53.264160 
	C231.938095,41.791374 236.111847,25.597048 249.315689,22.791557 
	C256.699768,21.222628 263.516266,24.015821 266.942047,30.014309 
	C270.749176,36.680531 269.767548,46.638092 264.777588,51.970047 
	C259.988678,57.087185 251.976440,58.630413 245.470093,55.614822 
	C244.274719,55.060783 243.213074,54.218174 241.807373,53.264160 
M245.760681,30.327269 
	C244.894272,32.104469 243.706985,33.798431 243.220413,35.674160 
	C241.636337,41.780708 243.672455,48.380230 247.860992,50.969898 
	C251.292709,53.091629 254.829590,53.025517 258.128967,50.624466 
	C262.491302,47.449902 264.091980,40.888538 262.130615,34.735683 
	C259.580688,26.736504 253.273941,24.746906 245.760681,30.327269 
z"/>
<path fill="#717275" opacity="1.000000" stroke="none" 
	d="
M315.997314,35.072960 
	C314.430969,31.027895 312.970337,27.354597 311.509735,23.681351 
	C316.369141,21.767475 318.507935,23.576284 319.880157,27.866022 
	C322.054382,34.662930 324.733948,41.298237 327.207001,47.999218 
	C327.261993,48.148251 327.405090,48.264793 327.614349,48.535004 
	C330.007233,41.538902 332.662201,34.714939 334.623749,27.697147 
	C335.843048,23.334818 337.934998,21.980406 343.170013,23.846975 
	C337.375946,37.099617 331.960052,50.465034 325.612946,63.372559 
	C323.848999,66.959816 319.325562,69.190147 315.342651,72.678345 
	C314.250366,69.735229 313.708527,68.275284 313.172607,66.831268 
	C315.042633,65.603584 316.790039,64.643005 318.324005,63.415680 
	C323.709930,59.106373 324.494751,56.023384 321.950867,49.746891 
	C320.016205,44.973583 318.053345,40.211697 315.997314,35.072960 
z"/>
<path fill="#717275" opacity="1.000000" stroke="none" 
	d="
M124.810837,33.656773 
	C124.864647,41.369259 124.864647,48.647739 124.864647,56.977253 
	C122.362061,55.907749 120.428490,55.081417 118.202164,54.129978 
	C115.811913,54.929356 112.681358,56.538456 109.402000,56.943844 
	C104.230385,57.583145 100.251984,54.731045 98.968102,50.405071 
	C97.524841,45.542076 99.336128,40.279938 104.149132,38.216408 
	C108.635490,36.292919 113.589317,35.459755 118.430321,34.120922 
	C117.822464,26.700293 113.169067,24.976002 102.579559,28.966068 
	C102.043434,27.907745 101.489059,26.813381 100.946671,25.742693 
	C111.252312,18.676041 121.920990,22.107365 124.810837,33.656773 
M104.920143,48.183289 
	C106.268974,52.914761 109.606148,53.320385 113.536415,51.956196 
	C118.295914,50.304192 119.785309,46.268360 118.309258,39.602695 
	C109.699837,38.963253 105.718048,41.262691 104.920143,48.183289 
z"/>
<path fill="#0CA9E2" opacity="1.000000" stroke="none" 
	d="
M527.234253,52.193130 
	C530.621582,51.929859 533.567749,51.649540 538.077026,51.220501 
	C537.205566,53.060349 536.817566,55.437969 535.825806,55.724247 
	C528.570679,57.818573 521.127258,58.495243 515.234558,52.653732 
	C509.532532,47.001263 509.486206,39.790863 511.917419,32.657310 
	C514.604919,24.771637 521.719788,21.035589 529.696167,22.813200 
	C537.023560,24.446175 540.650024,30.736652 539.720886,40.760864 
	C532.200317,40.760864 524.620117,40.760864 517.075134,40.760864 
	C516.678711,47.926987 519.514526,51.108822 527.234253,52.193130 
M522.354004,27.312826 
	C518.859131,29.140720 516.967041,31.944407 516.758118,36.296738 
	C522.613586,36.296738 528.147339,36.296738 533.675781,36.296738 
	C534.007446,29.071566 530.984436,26.488077 522.354004,27.312826 
z"/>
<path fill="#09A8E2" opacity="1.000000" stroke="none" 
	d="
M421.446655,47.956947 
	C421.582123,50.905350 421.716827,53.365559 421.915955,57.002148 
	C419.145569,55.884884 417.111023,55.064369 414.805267,54.134495 
	C412.406647,54.920296 409.243683,56.536556 405.941315,56.905861 
	C400.652466,57.497303 397.071564,54.764851 395.722229,50.148464 
	C394.357269,45.478416 396.051453,40.388260 400.678223,38.357731 
	C405.144226,36.397751 410.093079,35.538006 414.958801,34.158367 
	C415.025848,26.836676 410.636902,25.171415 397.991547,27.922056 
	C398.797272,26.593742 399.287323,24.585737 400.457520,24.042267 
	C412.153320,18.610418 421.279816,24.319328 421.438171,36.999046 
	C421.481750,40.488441 421.445465,43.978828 421.446655,47.956947 
M402.561401,43.135292 
	C400.694794,45.985413 400.427765,49.455280 403.280396,50.993462 
	C405.547485,52.215897 409.478088,52.246861 411.798737,51.077515 
	C416.462463,48.727528 416.402924,44.084545 415.018707,38.219112 
	C410.799103,39.746971 406.926147,41.149303 402.561401,43.135292 
z"/>
<path fill="#09A8E2" opacity="1.000000" stroke="none" 
	d="
M505.972687,51.849167 
	C505.580078,56.486313 505.580078,56.486313 499.759186,55.606758 
	C499.759186,49.086571 499.963287,42.459602 499.683258,35.853157 
	C499.513092,31.838581 497.970276,28.226360 493.331543,27.456793 
	C489.191162,26.769899 486.115967,28.781660 484.382568,32.339764 
	C483.483093,34.186100 483.324371,36.509727 483.270264,38.628952 
	C483.126556,44.259979 483.221497,49.897091 483.221497,55.861210 
	C481.121582,55.861210 479.394562,55.861210 477.339844,55.861210 
	C477.339844,45.064060 477.339844,34.313084 477.339844,23.217484 
	C478.745056,23.145386 480.174622,23.072039 481.796844,22.988806 
	C482.263733,24.497074 482.692749,25.883053 483.087372,27.157845 
	C485.167084,25.814756 487.070404,24.092161 489.305603,23.232569 
	C496.653320,20.406919 503.918365,24.137440 505.142456,31.972656 
	C506.134979,38.325748 505.747955,44.894375 505.972687,51.849167 
z"/>
<path fill="#0CA9E2" opacity="1.000000" stroke="none" 
	d="
M572.613403,33.214058 
	C575.376160,35.006573 577.866272,36.617687 580.511841,37.910961 
	C584.967957,40.089397 587.734375,43.169548 587.076233,48.476170 
	C586.535461,52.836468 583.064392,56.429394 577.816284,56.786301 
	C573.829407,57.057434 569.765869,56.201363 565.109863,55.791706 
	C565.813049,53.441349 566.168030,52.254967 566.599915,50.811378 
	C569.408264,51.434639 572.038147,52.671417 574.477539,52.369526 
	C576.757019,52.087421 579.800781,50.690758 580.783203,48.859360 
	C582.413330,45.820396 579.859497,43.674828 577.084229,42.363716 
	C575.133240,41.442017 573.050293,40.766922 571.185791,39.702293 
	C567.941833,37.849960 565.774170,35.123619 566.241821,31.171810 
	C566.742432,26.941900 569.281067,23.837263 573.375793,23.160126 
	C577.300537,22.511089 581.416809,23.019978 586.185364,23.019978 
	C585.450928,25.661100 585.082703,26.985279 584.797852,28.009743 
	C579.900330,28.460985 572.993164,22.532249 572.613403,33.214058 
z"/>
<path fill="#07A8E1" opacity="1.000000" stroke="none" 
	d="
M470.421509,27.680004 
	C467.848846,27.744423 465.707001,27.744423 463.109528,27.744423 
	C463.109528,34.553421 462.928894,41.012375 463.170074,47.455540 
	C463.344147,52.105873 466.957489,52.215363 470.548950,52.011765 
	C471.992188,55.449814 471.001099,56.935520 467.277039,57.060642 
	C460.681641,57.282230 457.348083,54.219093 457.020844,47.086823 
	C456.875916,43.928093 456.992157,40.757351 456.991150,37.592060 
	C456.990204,34.603306 456.990936,31.614555 456.990936,28.331251 
	C454.886261,27.350266 450.394104,28.628481 452.276184,23.455112 
	C453.530426,23.234251 455.066071,22.963831 456.820190,22.654943 
	C456.929779,20.801817 457.035461,19.014423 457.157593,16.949219 
	C458.898499,16.400312 460.615265,15.859020 462.750793,15.185691 
	C462.908936,17.777960 463.053680,20.150578 463.216583,22.820450 
	C465.956757,22.948385 468.560150,23.069937 471.956573,23.228512 
	C471.548889,24.848112 471.200623,26.231850 470.421509,27.680004 
z"/>
<path fill="#797A7D" opacity="1.000000" stroke="none" 
	d="
M83.768906,51.640102 
	C84.426926,57.332603 81.226212,56.730740 77.528427,56.054386 
	C77.528427,45.248497 77.528427,34.525726 77.528427,23.308506 
	C78.834785,23.195877 80.381821,23.062498 82.196831,22.906017 
	C82.555565,24.584381 82.856270,25.991199 83.057381,26.932123 
	C86.150658,25.164354 89.413208,23.299849 93.065079,21.212847 
	C94.490311,25.405190 94.492668,27.508768 90.459480,28.383348 
	C85.985657,29.353476 83.995659,32.816914 83.855103,37.227451 
	C83.706955,41.876404 83.787979,46.532661 83.768906,51.640102 
z"/>
<path fill="#6D6E71" opacity="1.000000" stroke="none" 
	d="
M228.991379,56.032433 
	C227.925674,56.091076 226.859970,56.149715 225.310928,55.903854 
	C224.660736,55.315865 224.420563,55.124249 224.107101,55.024494 
	C224.060654,39.984436 224.014191,24.944376 224.254181,9.315151 
	C224.786636,8.487740 224.952850,8.202899 225.039246,7.871464 
	C226.114624,7.819652 227.190002,7.767841 228.727646,8.083663 
	C229.358612,8.714297 229.593048,8.889207 229.893219,8.976023 
	C229.939423,24.015738 229.985641,39.055454 229.754715,54.669640 
	C229.232895,55.455925 229.070831,55.718697 228.991379,56.032433 
z"/>
<path fill="#0FAAE2" opacity="1.000000" stroke="none" 
	d="
M546.973633,23.138805 
	C551.424805,22.005657 551.432007,25.141001 551.799927,27.100569 
	C555.059937,25.231119 558.299377,23.373449 562.546021,20.938225 
	C562.546021,24.266115 562.546021,25.964947 562.546021,27.682945 
	C554.984375,28.900894 552.508728,31.643877 552.273926,39.570560 
	C552.117065,44.865593 552.244080,50.169044 552.244080,55.963428 
	C550.235291,56.051857 548.510132,56.127796 546.540955,56.214481 
	C546.540955,44.979614 546.540955,34.102119 546.973633,23.138805 
z"/>
<path fill="#03A6E1" opacity="1.000000" stroke="none" 
	d="
M442.005341,22.923157 
	C447.254639,21.199446 446.701294,24.320827 446.369751,27.299770 
	C437.690521,29.611195 436.053223,31.771236 436.046478,40.844376 
	C436.042786,45.793831 436.045837,50.743290 436.045837,55.959736 
	C434.000275,56.054234 432.396149,56.128342 429.998047,56.239128 
	C429.998047,50.629337 429.998047,45.231705 429.998047,39.834072 
	C429.998047,34.385426 429.998047,28.936779 429.998047,23.271786 
	C431.708679,23.271786 433.121765,23.271786 434.812897,23.271786 
	C434.957855,24.948393 435.094513,26.528965 435.226929,28.060680 
	C437.390869,26.356691 439.518707,24.681154 442.005341,22.923157 
z"/>
<path fill="#6D6E71" opacity="1.000000" stroke="none" 
	d="
M175.991394,56.032394 
	C174.922852,56.089195 173.854294,56.145996 172.306000,55.901169 
	C171.667450,55.333305 171.443130,55.145161 171.153305,55.035122 
	C171.153305,44.585991 171.153305,34.136864 171.153305,23.358130 
	C173.008316,23.358130 174.731094,23.358130 177.031860,23.358130 
	C177.031860,33.584129 177.031860,43.839649 176.754730,54.669640 
	C176.232925,55.455914 176.070862,55.718674 175.991394,56.032394 
z"/>
<path fill="#727375" opacity="1.000000" stroke="none" 
	d="
M170.106354,13.879359 
	C171.112320,10.132651 173.224884,8.803301 176.304321,10.864002 
	C177.218842,11.475971 177.842621,13.572712 177.524292,14.679935 
	C177.208786,15.777270 175.314972,17.376143 174.507401,17.174788 
	C172.901566,16.774389 171.566254,15.289042 170.106354,13.879359 
z"/>
<path fill="#78C7EC" opacity="1.000000" stroke="none" 
	d="
M596.482117,22.478975 
	C596.904846,23.012175 597.021667,23.442751 597.074219,24.207054 
	C596.160950,23.982672 595.311951,23.424559 594.462952,22.866428 
	C595.034058,22.703058 595.605103,22.539707 596.482117,22.478975 
z"/>
<path fill="#F0F9FD" opacity="1.000000" stroke="none" 
	d="
M590.642029,28.741911 
	C590.956116,28.567514 591.311951,28.608841 591.667725,28.650167 
	C591.579468,28.898159 591.491211,29.146151 591.403015,29.394146 
	C591.163269,29.248646 590.923462,29.103140 590.642029,28.741911 
z"/>
<path fill="#5F6164" opacity="1.000000" stroke="none" 
	d="
M229.906067,8.711247 
	C229.593048,8.889207 229.358612,8.714297 229.100708,8.246584 
	C229.313995,8.176739 229.616455,8.311605 229.906067,8.711247 
z"/>
<path fill="#5F6164" opacity="1.000000" stroke="none" 
	d="
M224.737701,7.875064 
	C224.952850,8.202899 224.786636,8.487740 224.323639,8.849260 
	C224.216507,8.607911 224.326340,8.243287 224.737701,7.875064 
z"/>
<path fill="#5F6164" opacity="1.000000" stroke="none" 
	d="
M161.950348,8.665640 
	C161.679520,8.763835 161.413773,8.542456 161.043335,8.077415 
	C161.277557,8.004525 161.616516,8.175296 161.950348,8.665640 
z"/>
<path fill="#5F6164" opacity="1.000000" stroke="none" 
	d="
M157.126587,55.308460 
	C157.434387,55.139439 157.663162,55.327663 157.914001,55.805664 
	C157.707794,55.869694 157.411636,55.726452 157.126587,55.308460 
z"/>
<path fill="#5F6164" opacity="1.000000" stroke="none" 
	d="
M161.301422,56.040230 
	C161.183746,55.759888 161.378738,55.482624 161.807678,55.095970 
	C161.899094,55.338818 161.756592,55.691067 161.301422,56.040230 
z"/>
<path fill="#5F6164" opacity="1.000000" stroke="none" 
	d="
M171.133636,55.309704 
	C171.443130,55.145161 171.667450,55.333305 171.914429,55.804413 
	C171.706406,55.867619 171.410187,55.725952 171.133636,55.309704 
z"/>
<path fill="#5F6164" opacity="1.000000" stroke="none" 
	d="
M176.276520,56.037792 
	C176.070862,55.718674 176.232925,55.455914 176.685303,55.135498 
	C176.782547,55.365654 176.672089,55.704422 176.276520,56.037792 
z"/>
<path fill="#5F6164" opacity="1.000000" stroke="none" 
	d="
M224.095139,55.309807 
	C224.420563,55.124249 224.660736,55.315865 224.918427,55.815872 
	C224.700562,55.886635 224.391876,55.740879 224.095139,55.309807 
z"/>
<path fill="#5F6164" opacity="1.000000" stroke="none" 
	d="
M229.276489,56.037815 
	C229.070831,55.718697 229.232895,55.455925 229.685272,55.135498 
	C229.782532,55.365654 229.672073,55.704426 229.276489,56.037815 
z"/>
<path fill="#FBFBFB" opacity="1.000000" stroke="none" 
	d="
M280.934387,37.353447 
	C281.541199,32.474266 283.543793,29.013407 287.985535,27.543873 
	C289.342163,27.095032 290.975006,27.008633 292.384155,27.273451 
	C298.194916,28.365463 300.471893,33.766327 299.298950,43.280434 
	C298.649750,48.546600 294.927673,51.756729 289.850342,51.429520 
	C284.460083,51.082142 281.143341,46.973465 280.866302,40.274166 
	C280.832031,39.445290 280.887268,38.612709 280.934387,37.353447 
z"/>
<path fill="#F9FCFE" opacity="1.000000" stroke="none" 
	d="
M383.973633,37.418831 
	C383.413727,41.056702 383.304749,44.453995 382.137177,47.436939 
	C380.638306,51.266159 377.107941,52.475063 373.109955,52.179447 
	C369.011139,51.876369 366.241425,49.689816 365.082672,45.840008 
	C364.474976,43.820999 364.373962,41.590767 364.379150,39.456741 
	C364.396454,32.357185 367.886108,27.706335 373.435791,27.133327 
	C378.382385,26.622593 382.176147,30.179182 383.973633,37.418831 
z"/>
<path fill="#FCFCFC" opacity="1.000000" stroke="none" 
	d="
M156.014252,37.282021 
	C155.989532,39.885319 156.224533,42.086803 155.881241,44.194080 
	C155.205170,48.344212 152.723877,51.178986 148.520615,51.919239 
	C144.396667,52.645519 140.350662,51.479542 139.051529,47.359367 
	C137.818970,43.450317 137.281799,38.931465 137.923401,34.918091 
	C138.779617,29.562181 143.394409,26.617849 147.911362,27.132090 
	C152.646194,27.671135 155.463593,31.046465 156.014252,37.282021 
z"/>
<path fill="#FCFCFC" opacity="1.000000" stroke="none" 
	d="
M196.527908,28.218628 
	C203.697159,25.768270 208.401459,28.024475 210.502151,34.572952 
	C212.869202,41.951832 209.806122,50.131130 203.982941,51.981121 
	C199.336319,53.457325 194.745270,51.289543 192.468658,46.544346 
	C189.491547,40.339104 190.918793,33.369987 196.527908,28.218628 
z"/>
<path fill="#FDFDFD" opacity="1.000000" stroke="none" 
	d="
M246.005798,30.026669 
	C253.273941,24.746906 259.580688,26.736504 262.130615,34.735683 
	C264.091980,40.888538 262.491302,47.449902 258.128967,50.624466 
	C254.829590,53.025517 251.292709,53.091629 247.860992,50.969898 
	C243.672455,48.380230 241.636337,41.780708 243.220413,35.674160 
	C243.706985,33.798431 244.894272,32.104469 246.005798,30.026669 
z"/>
<path fill="#FAFAFA" opacity="1.000000" stroke="none" 
	d="
M104.880234,47.782070 
	C105.718048,41.262691 109.699837,38.963253 118.309258,39.602695 
	C119.785309,46.268360 118.295914,50.304192 113.536415,51.956196 
	C109.606148,53.320385 106.268974,52.914761 104.880234,47.782070 
z"/>
<path fill="#EBF7FC" opacity="1.000000" stroke="none" 
	d="
M522.746765,27.200466 
	C530.984436,26.488077 534.007446,29.071566 533.675781,36.296738 
	C528.147339,36.296738 522.613586,36.296738 516.758118,36.296738 
	C516.967041,31.944407 518.859131,29.140720 522.746765,27.200466 
z"/>
<path fill="#F0F9FD" opacity="1.000000" stroke="none" 
	d="
M402.807312,42.843468 
	C406.926147,41.149303 410.799103,39.746971 415.018707,38.219112 
	C416.402924,44.084545 416.462463,48.727528 411.798737,51.077515 
	C409.478088,52.246861 405.547485,52.215897 403.280396,50.993462 
	C400.427765,49.455280 400.694794,45.985413 402.807312,42.843468 
z"/>
</svg>