<svg version="1.1" id="Layer_1" xmlns="http://www.w3.org/2000/svg" xmlns:xlink="http://www.w3.org/1999/xlink" x="0px" y="0px"
	 width="100%" viewBox="0 0 1280 720" enable-background="new 0 0 1280 720" xml:space="preserve">
<path fill="transparent" opacity="1.000000" stroke="none" 
	d="
M1281.000000,241.000000 
	C1281.000000,401.313385 1281.000000,561.126770 1281.000000,720.970093 
	C854.406555,720.970093 427.813141,720.970093 1.109856,720.970093 
	C1.109856,481.103241 1.109856,241.206436 1.109856,1.154810 
	C427.666626,1.154810 854.333313,1.154810 1281.000000,1.154810 
	C1281.000000,80.853653 1281.000000,160.676834 1281.000000,241.000000 
M26.077562,646.492249 
	C26.448971,646.342285 26.820381,646.192261 27.543570,646.112122 
	C27.543570,646.112122 27.897562,646.169739 28.198065,646.731628 
	C29.119860,647.113892 30.041655,647.496216 31.593536,648.046997 
	C32.026974,648.080933 32.460411,648.114868 33.231045,648.643433 
	C33.808239,648.721619 34.385437,648.799805 35.728176,649.060608 
	C40.449516,650.307922 45.170856,651.555237 50.804455,652.972717 
	C79.529648,653.305298 108.254837,653.637939 137.671890,654.025024 
	C138.133209,653.997559 138.594543,653.970154 139.677856,653.966431 
	C140.092102,653.950562 140.506348,653.934692 141.754181,653.998413 
	C142.868713,653.966797 143.983246,653.935181 145.793732,653.944641 
	C146.489807,653.924805 147.185867,653.904968 148.830429,653.973755 
	C166.143829,653.988037 183.457245,654.025879 200.770630,654.011719 
	C237.559479,653.981567 274.348297,653.924438 312.030090,653.928711 
	C315.657715,653.927979 319.285309,653.927185 323.635925,653.991821 
	C324.118896,653.969971 324.601868,653.948120 326.005402,653.967468 
	C362.984863,653.950256 399.964325,653.932983 437.713776,654.014038 
	C438.489044,653.989990 439.264282,653.965881 440.971527,653.968750 
	C460.087921,653.973877 479.204376,654.006592 498.320740,653.976624 
	C518.595703,653.944885 538.870605,653.853638 559.509949,653.852356 
	C559.509949,653.852356 559.879456,653.830872 560.765442,653.995605 
	C562.562561,653.941833 564.359680,653.888123 567.032349,653.884888 
	C569.967163,653.868103 572.901978,653.851257 576.581360,653.982117 
	C577.085144,653.954651 577.588989,653.927185 578.980713,653.967041 
	C581.954895,653.944763 584.929077,653.922485 588.715149,654.013733 
	C589.529236,653.953918 590.343323,653.894165 592.067810,653.886414 
	C601.679626,653.890991 611.291504,653.895569 621.694214,654.015137 
	C622.490234,653.976013 623.286194,653.936890 624.692200,653.961304 
	C625.099915,653.940247 625.507690,653.919189 626.813538,654.018188 
	C628.923523,653.956299 631.033447,653.894348 633.810120,653.881958 
	C634.475891,653.848816 635.141724,653.815674 636.677795,653.924072 
	C637.848938,653.879150 639.020081,653.834167 641.094482,653.873962 
	C651.341492,653.860901 661.588440,653.847839 672.712952,653.996216 
	C674.193909,653.942139 675.674805,653.888062 678.006287,653.884644 
	C680.283264,653.867859 682.560303,653.851074 685.581665,653.981995 
	C686.085449,653.954590 686.589233,653.927185 688.015503,653.928345 
	C701.930725,653.868958 715.846008,653.809570 730.723633,653.850464 
	C785.807251,653.891174 840.890808,653.931946 896.736450,654.038452 
	C897.499817,654.016602 898.263184,653.994812 899.674927,654.005920 
	C900.107422,653.994812 900.539917,653.983704 901.852905,654.038330 
	C903.912048,654.016968 905.971191,653.995605 908.961487,654.010132 
	C918.927734,653.966675 928.893921,653.923279 939.811035,653.972534 
	C1004.097229,653.985474 1068.383423,654.016174 1132.669678,654.001892 
	C1156.147339,653.996704 1179.624878,653.884766 1203.898560,653.913635 
	C1207.932129,652.942749 1211.965820,651.971863 1216.570923,650.915344 
	C1216.808594,650.618225 1217.046265,650.321167 1217.672852,650.028076 
	C1217.672852,650.028076 1218.042725,649.908142 1218.825562,649.960266 
	C1224.229370,648.019226 1229.633301,646.078125 1235.785278,644.010925 
	C1237.862915,643.317078 1239.940430,642.623230 1242.682129,641.856628 
	C1243.803955,641.191528 1244.925659,640.526428 1246.578247,639.884583 
	C1246.785034,639.602844 1246.991821,639.321106 1247.646606,638.961609 
	C1247.940918,638.788208 1248.073730,638.531372 1248.752197,637.766907 
	C1249.122925,633.189575 1249.493774,628.612183 1250.034790,623.179749 
	C1249.979126,621.442017 1249.923462,619.704224 1249.955688,617.196228 
	C1247.959961,616.536072 1245.964355,615.875916 1243.078857,615.067932 
	C1239.703735,615.344849 1236.328613,615.621765 1232.151123,615.971191 
	C1229.782104,615.710449 1227.413086,615.449707 1224.371216,615.011536 
	C1223.915283,615.071838 1223.459229,615.132141 1222.348267,615.082764 
	C1221.909180,615.124023 1221.469971,615.165222 1220.201660,615.003052 
	C1211.457764,614.729858 1202.713745,614.456665 1193.162964,614.065979 
	C1182.438110,614.425110 1171.713257,614.784241 1160.148071,615.001099 
	C1157.115479,615.296997 1154.082764,615.592834 1150.814209,615.283508 
	C1150.491577,614.515381 1150.168945,613.747192 1149.972778,612.102478 
	C1149.927612,609.742798 1149.882446,607.383118 1149.999756,604.231873 
	C1149.950684,603.158569 1149.901611,602.085327 1149.996460,600.096863 
	C1150.334717,590.374817 1150.932251,580.652893 1150.937622,570.930664 
	C1150.942993,561.352844 1150.081055,551.775269 1150.062378,542.196655 
	C1149.976562,498.198120 1150.052856,454.199249 1150.650513,409.990448 
	C1150.456543,409.594879 1150.262573,409.199310 1150.030518,407.999207 
	C1149.968018,406.661682 1149.905518,405.324188 1149.973389,403.059143 
	C1150.313965,387.636719 1150.808960,372.215485 1150.928101,356.791351 
	C1150.985229,349.394379 1150.075806,341.992981 1150.044556,334.591766 
	C1149.929199,307.256409 1149.994263,279.920288 1149.997681,252.584457 
	C1150.000610,229.754791 1150.012329,206.925125 1150.807617,183.686050 
	C1150.804565,171.808640 1150.801514,159.931213 1150.892944,147.207581 
	C1150.905518,138.860474 1150.933960,130.513351 1150.927979,122.166252 
	C1150.909790,96.431046 1150.878296,70.695847 1151.021729,44.253277 
	C1150.697876,43.442844 1150.374023,42.632416 1150.032593,41.379868 
	C1150.032593,41.379868 1149.858765,40.973015 1149.969360,40.191113 
	C1145.555542,24.564753 1136.441528,19.266396 1121.192993,16.010382 
	C1102.484619,13.734503 1083.714966,15.372992 1064.503540,15.022051 
	C1064.503540,15.022051 1064.046631,15.179514 1063.113403,15.033410 
	C1030.115356,15.011342 997.117249,14.989274 963.953735,14.454713 
	C963.646851,14.346060 963.340027,14.237408 962.106750,13.957865 
	C956.395691,14.014834 950.684692,14.071803 944.156616,14.009269 
	C942.783447,14.049104 941.410217,14.088938 939.108826,13.957825 
	C925.730469,14.014808 912.352173,14.071790 898.331665,14.009950 
	C897.899963,14.049558 897.468201,14.089167 896.153748,13.958069 
	C893.760742,14.014970 891.367737,14.071871 888.504089,14.018395 
	C888.504089,14.018395 888.033447,14.128773 887.125366,13.957977 
	C883.741821,14.014910 880.358337,14.071841 876.434631,14.075787 
	C876.248840,14.374042 876.062988,14.672297 874.955383,14.985427 
	C826.676636,14.979356 778.397949,14.973284 729.953735,14.454747 
	C729.646851,14.346093 729.340027,14.237439 728.105530,13.957825 
	C721.061584,14.014807 714.017578,14.071790 706.131775,14.009288 
	C704.433533,14.049116 702.735291,14.088944 700.108826,13.957825 
	C616.773865,13.962551 533.438904,13.967278 449.952881,13.455246 
	C449.646301,13.346419 449.339691,13.237594 448.105408,12.957821 
	C439.554016,12.619805 431.000946,12.318175 422.451782,11.931027 
	C416.720184,11.671474 410.980988,10.882881 405.268921,11.067224 
	C398.121918,11.297874 391.011200,12.533154 383.862854,12.875090 
	C376.246826,13.239394 368.605164,13.066902 360.433258,13.076572 
	C360.236542,13.371509 360.039795,13.666446 358.925568,13.944583 
	C334.264954,13.944109 309.604340,13.919671 284.943756,13.950554 
	C264.287384,13.976422 243.631058,14.066902 222.434601,14.075830 
	C222.248718,14.374063 222.062836,14.672294 221.007721,14.984870 
	C216.031815,14.986539 211.055923,14.989407 206.080017,14.989655 
	C190.584427,14.990432 175.088516,15.039927 159.593521,14.943908 
	C156.850266,14.926908 154.048523,13.762191 151.382523,14.069844 
	C145.819229,14.711842 140.328644,15.983769 134.808060,16.996101 
	C118.722275,19.945808 107.978920,30.945223 107.980537,48.609604 
	C107.996506,223.072845 107.986320,397.536102 107.997299,571.999329 
	C107.998154,585.659058 108.102432,599.318726 107.971176,613.831116 
	C104.003143,614.216064 100.035110,614.601013 95.679314,614.189026 
	C83.492561,614.183533 71.305809,614.178101 58.166916,614.138489 
	C49.418293,614.239929 40.669674,614.341431 31.050035,614.305298 
	C26.706446,614.623779 22.362856,614.942261 17.228260,615.103210 
	C16.569733,615.056824 15.895703,615.085144 15.255141,614.952209 
	C10.174817,613.898193 9.103847,614.693848 9.026678,619.709045 
	C8.975856,623.012024 9.326079,626.363586 8.881582,629.609131 
	C7.973006,636.243286 10.727668,640.161865 17.631676,642.218994 
	C19.746378,643.114197 21.861080,644.009399 24.469095,645.141052 
	C24.915409,645.441528 25.361723,645.742065 26.077562,646.492249 
z"/>
<path fill="#848587" opacity="1.000000" stroke="none" 
	d="
M30.963455,647.878540 
	C30.041655,647.496216 29.119860,647.113892 28.055010,646.077271 
	C27.431583,644.672058 26.951212,643.921204 26.470835,643.170410 
	C25.639141,643.748474 24.807453,644.326538 23.975773,644.904602 
	C21.861080,644.009399 19.746378,643.114197 17.332279,641.693481 
	C17.034111,640.146484 17.035339,639.125061 17.466827,638.066589 
	C19.906370,637.938477 21.915653,637.847351 24.331453,637.848511 
	C26.118553,637.916626 27.499136,637.892395 29.268009,637.916870 
	C30.438480,637.986511 31.220667,638.007385 32.253639,638.251953 
	C38.045731,638.110107 43.480812,635.331665 49.182011,637.859985 
	C49.853466,638.157776 51.013569,637.353638 52.358627,637.116272 
	C56.558762,637.404236 60.347420,637.636230 64.596085,637.872498 
	C84.044022,637.853027 103.031952,637.829285 122.479660,637.871216 
	C127.909096,637.736389 132.878754,637.535950 138.308105,637.379639 
	C148.821701,637.401794 158.875610,637.379822 169.331177,637.453857 
	C172.889999,637.692444 176.047134,637.959839 179.204285,637.960022 
	C473.135712,637.974976 767.067139,637.970215 1060.998535,637.950867 
	C1062.986694,637.950745 1064.974731,637.729553 1067.419434,637.743530 
	C1077.559937,637.793640 1087.244019,637.711853 1097.387451,637.765015 
	C1106.931030,637.670471 1116.015137,637.440979 1125.532715,637.265991 
	C1132.307495,637.462341 1138.648804,637.604187 1145.451416,637.830322 
	C1150.590698,637.872131 1155.268799,637.829651 1160.413818,637.858398 
	C1169.551147,637.904358 1178.221436,637.879150 1187.353638,637.908813 
	C1190.870483,637.969604 1193.925537,637.975525 1197.449951,637.991089 
	C1203.289429,637.990356 1208.659424,637.979980 1214.430298,637.976013 
	C1217.222046,637.970642 1219.612915,637.958984 1222.437012,637.979248 
	C1224.606445,637.926453 1226.342651,637.841736 1228.534180,637.821716 
	C1233.317993,637.960999 1237.646240,638.035583 1242.086426,638.367920 
	C1242.138306,639.726868 1242.078247,640.828064 1242.018066,641.929321 
	C1239.940430,642.623230 1237.862915,643.317078 1235.163208,643.796143 
	C1233.584839,643.476929 1232.600220,643.171326 1231.676636,643.300720 
	C1225.646118,644.145691 1219.628784,645.878296 1213.606812,645.880249 
	C824.443359,646.007996 435.279938,646.002197 46.116528,645.955200 
	C40.834347,645.954590 35.552246,645.279907 30.044188,644.904480 
	C30.405779,646.074280 30.684620,646.976379 30.963455,647.878540 
z"/>
<path fill="#E2E2E2" opacity="1.000000" stroke="none" 
	d="
M1064.974731,15.128773 
	C1083.714966,15.372992 1102.484619,13.734503 1121.599609,16.445616 
	C1122.004150,17.588245 1122.002075,18.295643 1121.531494,19.001207 
	C798.119446,18.999521 475.176178,18.994106 152.232880,19.042934 
	C146.271484,19.043835 140.260941,19.340910 134.368179,20.172178 
	C131.076630,20.636499 127.493439,21.846426 124.883698,23.828840 
	C115.180405,31.199671 110.890060,41.129181 110.922676,53.482235 
	C111.372719,223.915497 111.666496,394.349182 111.995178,564.782776 
	C112.012535,573.781189 111.947960,582.780151 112.045837,591.777527 
	C112.064835,593.524048 112.662453,595.264221 112.995544,597.473389 
	C113.001320,602.953125 113.004730,607.966736 112.604004,612.991211 
	C110.852798,612.994202 109.505730,612.986328 108.158653,612.978455 
	C108.102432,599.318726 107.998154,585.659058 107.997299,571.999329 
	C107.986320,397.536102 107.996506,223.072845 107.980537,48.609604 
	C107.978920,30.945223 118.722275,19.945808 134.808060,16.996101 
	C140.328644,15.983769 145.819229,14.711842 151.382523,14.069844 
	C154.048523,13.762191 156.850266,14.926908 159.593521,14.943908 
	C175.088516,15.039927 190.584427,14.990432 206.080017,14.989655 
	C211.055923,14.989407 216.031815,14.986539 221.653763,14.870562 
	C222.621246,14.650836 222.846207,14.441675 222.974716,14.128773 
	C243.631058,14.066902 264.287384,13.976422 284.943756,13.950554 
	C309.604340,13.919671 334.264954,13.944109 359.598389,13.843517 
	C360.601959,13.648186 360.836426,13.443626 360.974670,13.128773 
	C368.605164,13.066902 376.246826,13.239394 383.862854,12.875090 
	C391.011200,12.533154 398.121918,11.297874 405.268921,11.067224 
	C410.980988,10.882881 416.720184,11.671474 422.451782,11.931027 
	C431.000946,12.318175 439.554016,12.619805 448.696533,13.238505 
	C449.551208,13.685534 449.823303,13.836473 450.103973,13.972004 
	C533.438904,13.967278 616.773865,13.962551 700.834473,14.285741 
	C703.364685,14.452028 705.169128,14.290399 706.973633,14.128771 
	C714.017578,14.071790 721.061584,14.014807 728.698608,14.239276 
	C729.558167,14.686966 729.833984,14.835794 730.119202,14.967213 
	C778.397949,14.973284 826.676636,14.979356 875.627686,14.870834 
	C876.621338,14.650779 876.846313,14.441622 876.974792,14.128773 
	C880.358337,14.071841 883.741821,14.014910 887.668579,14.184055 
	C888.211731,14.410134 888.649719,14.486199 888.649719,14.486199 
	C888.649719,14.486199 888.974731,14.128773 888.974731,14.128772 
	C891.367737,14.071871 893.760742,14.014970 896.740479,14.244509 
	C897.876099,14.396889 898.424927,14.262829 898.973816,14.128771 
	C912.352173,14.071790 925.730469,14.014808 939.816589,14.280981 
	C942.007446,14.445682 943.490540,14.287225 944.973633,14.128771 
	C950.684692,14.071803 956.395691,14.014834 962.699219,14.239296 
	C963.558167,14.686964 963.833984,14.835791 964.119202,14.967207 
	C997.117249,14.989274 1030.115356,15.011342 1063.682373,15.229376 
	C1064.251465,15.425343 1064.672485,15.481873 1064.672485,15.481873 
	C1064.672485,15.481873 1064.974731,15.128773 1064.974731,15.128773 
z"/>
<path fill="#67696A" opacity="1.000000" stroke="none" 
	d="
M31.278500,647.962769 
	C30.684620,646.976379 30.405779,646.074280 30.044188,644.904480 
	C35.552246,645.279907 40.834347,645.954590 46.116528,645.955200 
	C435.279938,646.002197 824.443359,646.007996 1213.606812,645.880249 
	C1219.628784,645.878296 1225.646118,644.145691 1231.676636,643.300720 
	C1232.600220,643.171326 1233.584839,643.476929 1234.789062,643.859131 
	C1229.633301,646.078125 1224.229370,648.019226 1218.303345,649.574219 
	C1213.870361,649.373779 1209.959717,649.559387 1205.605957,649.766479 
	C1203.095825,649.885193 1201.028687,649.982422 1198.497803,650.041260 
	C1166.261719,649.968323 1134.489136,649.896729 1102.716675,649.907532 
	C1049.819092,649.925476 996.921387,649.996155 943.557556,649.976685 
	C928.130066,649.881409 913.168701,649.842896 898.207397,649.829651 
	C877.142029,649.810913 856.076599,649.810974 834.697449,649.562378 
	C827.139038,649.202576 819.894470,648.981506 812.649841,648.979736 
	C727.045776,648.958862 641.441711,648.958130 555.837646,648.983582 
	C536.189087,648.989380 516.540588,649.114807 496.434906,649.150574 
	C477.394165,649.323975 458.810608,649.531982 440.101776,649.455627 
	C439.267395,648.903015 438.558228,648.634705 437.430847,648.320068 
	C429.907776,648.804626 422.804443,649.768677 415.697784,649.794250 
	C377.076721,649.933105 338.454681,649.916687 299.833374,649.809204 
	C244.586929,649.655518 189.340851,649.376953 133.620056,649.085938 
	C103.646896,649.020264 74.148293,649.020264 44.772942,649.020264 
	C46.424812,650.240723 48.158493,651.521606 49.892185,652.802490 
	C45.170856,651.555237 40.449516,650.307922 35.309605,648.686340 
	C34.225304,648.257629 33.559574,648.203186 32.893845,648.148743 
	C32.460411,648.114868 32.026974,648.080933 31.278500,647.962769 
z"/>
<path fill="#424445" opacity="1.000000" stroke="none" 
	d="
M496.892059,649.185181 
	C516.540588,649.114807 536.189087,648.989380 555.837646,648.983582 
	C641.441711,648.958130 727.045776,648.958862 812.649841,648.979736 
	C819.894470,648.981506 827.139038,649.202576 834.791016,649.970398 
	C835.679871,651.025574 836.147217,651.767395 836.645081,651.788513 
	C844.580872,652.125183 852.520691,652.582703 860.459534,652.582825 
	C871.066406,652.583069 881.672913,652.145752 892.280640,652.090637 
	C893.508606,652.084229 894.742981,653.315308 895.974426,653.972656 
	C840.890808,653.931946 785.807251,653.891174 729.921387,653.582214 
	C716.027527,653.228027 702.936035,653.124817 689.844299,653.093201 
	C688.927856,653.091003 688.010132,653.618530 687.093018,653.899780 
	C686.589233,653.927185 686.085449,653.954590 684.925659,653.683899 
	C681.898376,653.535217 679.527039,653.684570 677.155762,653.833984 
	C675.674805,653.888062 674.193909,653.942139 671.955078,653.682312 
	C660.861816,653.508667 650.526550,653.648926 640.191223,653.789185 
	C639.020081,653.834167 637.848938,653.879150 636.062683,653.667725 
	C634.679504,653.551758 633.911499,653.692078 633.143433,653.832397 
	C631.033447,653.894348 628.923523,653.956299 626.234985,653.751831 
	C625.131714,653.622986 624.606934,653.760376 624.082214,653.897766 
	C623.286194,653.936890 622.490234,653.976013 620.996216,653.685669 
	C610.584656,653.515625 600.871033,653.674988 591.157410,653.834351 
	C590.343323,653.894165 589.529236,653.953918 588.022339,653.693481 
	C584.250610,653.548645 581.171692,653.724182 578.092773,653.899719 
	C577.588989,653.927185 577.085144,653.954651 575.908936,653.679199 
	C572.209900,653.528992 569.183350,653.681702 566.156799,653.834351 
	C564.359680,653.888123 562.562561,653.941833 560.254028,653.806885 
	C559.505676,653.455200 559.306702,653.511963 559.145508,653.788330 
	C538.870605,653.853638 518.595703,653.944885 498.320740,653.976624 
	C479.204376,654.006592 460.087921,653.973877 440.606079,653.574280 
	C441.930756,652.790161 443.618896,652.072266 445.311310,652.061951 
	C460.976562,651.966736 476.642670,652.016663 492.308228,651.956299 
	C494.273254,651.948730 497.024597,652.836731 496.892059,649.185181 
z"/>
<path fill="#292B2C" opacity="1.000000" stroke="none" 
	d="
M496.434906,649.150574 
	C497.024597,652.836731 494.273254,651.948730 492.308228,651.956299 
	C476.642670,652.016663 460.976562,651.966736 445.311310,652.061951 
	C443.618896,652.072266 441.930756,652.790161 440.140076,653.560791 
	C439.264282,653.965881 438.489044,653.989990 437.228699,653.586609 
	C435.052917,652.778137 433.354828,652.039856 431.672699,652.074646 
	C421.543884,652.283875 411.420013,652.892883 401.292053,652.952576 
	C377.802246,653.091003 354.310974,652.970886 330.820465,653.030701 
	C328.907867,653.035583 326.996674,653.614197 325.084839,653.926270 
	C324.601868,653.948120 324.118896,653.969971 322.978699,653.693848 
	C318.593353,653.556641 314.865234,653.717468 311.137115,653.878357 
	C274.348297,653.924438 237.559479,653.981567 200.770630,654.011719 
	C183.457245,654.025879 166.143829,653.988037 148.178680,653.715393 
	C146.717224,653.605835 145.907501,653.754700 145.097778,653.903564 
	C143.983246,653.935181 142.868713,653.966797 141.199036,653.757935 
	C140.114563,653.659180 139.585205,653.800903 139.055862,653.942688 
	C138.594543,653.970154 138.133209,653.997559 137.273895,653.659607 
	C135.948822,651.913330 135.021729,650.532532 134.094620,649.151672 
	C189.340851,649.376953 244.586929,649.655518 299.833374,649.809204 
	C338.454681,649.916687 377.076721,649.933105 415.697784,649.794250 
	C422.804443,649.768677 429.907776,648.804626 437.553894,648.594788 
	C438.805786,649.190552 439.516388,649.465271 440.227020,649.739990 
	C458.810608,649.531982 477.394165,649.323975 496.434906,649.150574 
z"/>
<path fill="#C9CACB" opacity="1.000000" stroke="none" 
	d="
M108.064911,613.404785 
	C109.505730,612.986328 110.852798,612.994202 112.831085,613.167603 
	C113.965378,613.904175 114.468460,614.475159 115.008224,615.363342 
	C115.037933,619.000977 114.422478,622.465576 115.167175,625.607849 
	C116.272591,630.272156 115.498352,633.463562 110.461281,635.444214 
	C112.834953,636.005371 114.926620,635.773376 116.937988,636.075684 
	C118.679283,636.337402 120.329445,637.205444 122.019882,637.805481 
	C103.031952,637.829285 84.044022,637.853027 64.559631,637.460449 
	C63.786686,635.434265 62.832420,633.549988 63.353500,632.263000 
	C65.381760,627.253479 58.841976,619.186462 68.698387,616.932922 
	C68.912956,616.883850 68.871986,615.717102 69.360626,615.010620 
	C70.872246,615.001160 71.973457,615.052795 73.097488,615.376343 
	C73.427498,615.928833 73.734680,616.209412 74.041870,616.489929 
	C74.336174,616.028381 74.630478,615.566895 75.394005,615.038513 
	C82.597847,614.976440 89.332466,614.981140 96.067078,614.985962 
	C100.035110,614.601013 104.003143,614.216064 108.064911,613.404785 
z"/>
<path fill="#C8C8C9" opacity="1.000000" stroke="none" 
	d="
M1150.020142,184.095459 
	C1150.012329,206.925125 1150.000610,229.754791 1149.997681,252.584457 
	C1149.994263,279.920288 1149.929199,307.256409 1150.044556,334.591766 
	C1150.075806,341.992981 1150.985229,349.394379 1150.928101,356.791351 
	C1150.808960,372.215485 1150.313965,387.636719 1149.547974,403.526978 
	C1148.402222,403.989746 1147.681885,403.984619 1146.946777,403.513306 
	C1146.861816,374.358917 1146.791504,345.670715 1146.787964,316.525452 
	C1146.874023,307.471313 1146.906128,298.874268 1146.910522,290.277191 
	C1146.935181,240.850800 1146.953369,191.424423 1147.334106,142.089569 
	C1148.529541,144.150192 1149.364380,146.119308 1150.121582,148.543823 
	C1150.036133,160.697983 1150.028076,172.396713 1150.020142,184.095459 
z"/>
<path fill="#BABABB" opacity="1.000000" stroke="none" 
	d="
M1186.891724,637.853882 
	C1178.221436,637.879150 1169.551147,637.904358 1160.423096,637.489868 
	C1159.576294,636.034912 1159.465576,634.444214 1158.752319,634.099243 
	C1154.639038,632.109436 1156.743408,628.338074 1155.894775,625.425476 
	C1154.764526,621.545654 1154.919800,618.849304 1159.634521,617.974182 
	C1160.240112,617.861816 1160.544556,616.126709 1160.988525,615.143311 
	C1171.713257,614.784241 1182.438110,614.425110 1193.622437,614.473145 
	C1195.211304,617.458191 1193.931641,618.222107 1191.629639,617.946594 
	C1186.800049,617.368774 1185.562256,619.861145 1185.957031,624.127136 
	C1186.379639,628.692444 1186.589233,633.277466 1186.891724,637.853882 
z"/>
<path fill="#292B2C" opacity="1.000000" stroke="none" 
	d="
M896.355469,654.005554 
	C894.742981,653.315308 893.508606,652.084229 892.280640,652.090637 
	C881.672913,652.145752 871.066406,652.583069 860.459534,652.582825 
	C852.520691,652.582703 844.580872,652.125183 836.645081,651.788513 
	C836.147217,651.767395 835.679871,651.025574 835.104797,650.210999 
	C856.076599,649.810974 877.142029,649.810913 898.207397,649.829651 
	C913.168701,649.842896 928.130066,649.881409 943.672180,650.350708 
	C949.888550,651.524292 955.521484,652.865112 961.160156,652.890198 
	C1002.933350,653.076294 1044.707764,653.007141 1086.481689,653.005249 
	C1121.598389,653.003662 1156.715332,653.040833 1191.830933,652.849243 
	C1194.212769,652.836304 1196.584839,651.044250 1198.961426,650.079651 
	C1201.028687,649.982422 1203.095825,649.885193 1205.547729,650.117798 
	C1204.989136,651.572327 1204.045898,652.696960 1203.102539,653.821533 
	C1179.624878,653.884766 1156.147339,653.996704 1132.669678,654.001892 
	C1068.383423,654.016174 1004.097229,653.985474 939.028442,653.674316 
	C930.538208,653.236816 922.830688,653.009827 915.123108,653.010742 
	C912.758789,653.010986 910.394592,653.635498 908.030334,653.974243 
	C905.971191,653.995605 903.912048,654.016968 901.273071,653.786743 
	C900.137634,653.681152 899.582092,653.827087 899.026550,653.973022 
	C898.263184,653.994812 897.499817,654.016602 896.355469,654.005554 
z"/>
<path fill="#BABABB" opacity="1.000000" stroke="none" 
	d="
M1146.961548,403.979492 
	C1147.681885,403.984619 1148.402222,403.989746 1149.482788,403.990753 
	C1149.905518,405.324188 1149.968018,406.661682 1150.020264,408.750793 
	C1150.030396,409.735107 1150.050659,409.967834 1150.070801,410.200531 
	C1150.052856,454.199249 1149.976562,498.198120 1150.062378,542.196655 
	C1150.081055,551.775269 1150.942993,561.352844 1150.937622,570.930664 
	C1150.932251,580.652893 1150.334717,590.374817 1149.569702,600.546997 
	C1148.433350,600.995422 1147.723633,600.993713 1146.992920,600.557251 
	C1146.839966,598.393005 1146.708252,596.663452 1146.676392,594.479248 
	C1146.815674,591.697998 1146.888550,589.371521 1146.889648,587.044983 
	C1146.918091,526.023132 1146.939209,465.001343 1146.961548,403.979492 
z"/>
<path fill="#E2E2E2" opacity="1.000000" stroke="none" 
	d="
M1146.576538,594.933899 
	C1146.708252,596.663452 1146.839966,598.393005 1146.988281,600.912598 
	C1147.948853,602.809509 1148.893066,603.916504 1149.837158,605.023438 
	C1149.882446,607.383118 1149.927612,609.742798 1149.546997,612.539062 
	C1148.007324,612.841736 1146.171265,612.228882 1145.892578,612.649048 
	C1143.422852,616.371826 1139.724609,614.619873 1136.541626,615.002380 
	C1133.370361,615.383484 1130.184448,615.640869 1126.535767,615.939697 
	C1118.038208,615.793884 1110.009644,615.660950 1102.023438,615.147827 
	C1103.253296,614.179749 1104.407227,613.187927 1105.635620,613.084534 
	C1108.592896,612.835754 1111.585449,612.987854 1114.563477,613.005066 
	C1126.547852,613.074463 1124.343140,613.372375 1122.544189,603.201111 
	C1121.666748,598.239685 1125.468994,592.891968 1130.478027,593.099976 
	C1135.860229,593.323425 1141.211670,594.291016 1146.576538,594.933899 
z"/>
<path fill="#C9CACB" opacity="1.000000" stroke="none" 
	d="
M1127.004883,615.952515 
	C1130.184448,615.640869 1133.370361,615.383484 1136.541626,615.002380 
	C1139.724609,614.619873 1143.422852,616.371826 1145.892578,612.649048 
	C1146.171265,612.228882 1148.007324,612.841736 1149.483765,612.977295 
	C1150.168945,613.747192 1150.491577,614.515381 1150.754395,615.903931 
	C1147.111084,618.768372 1141.868530,619.323242 1141.971313,625.304321 
	C1141.990479,626.415100 1141.618042,627.620544 1141.124146,628.635193 
	C1139.813110,631.328308 1139.569946,633.282959 1143.255493,634.229980 
	C1144.080444,634.441956 1144.424683,636.524536 1144.990234,637.745972 
	C1138.648804,637.604187 1132.307495,637.462341 1125.484985,636.862915 
	C1124.334229,635.607544 1123.618896,634.843262 1123.005249,634.004456 
	C1121.971802,632.591858 1120.276123,631.202148 1120.129272,629.680298 
	C1119.377441,621.888672 1121.267578,620.169983 1129.121582,619.912231 
	C1131.432861,619.836365 1133.708130,618.667725 1136.322021,617.999023 
	C1137.404053,617.938599 1138.164185,617.879211 1138.924194,617.819885 
	C1138.859741,617.554810 1138.795166,617.289795 1138.730713,617.024780 
	C1137.820435,617.349426 1136.910278,617.674072 1135.562500,618.001709 
	C1132.418335,617.685303 1129.711548,617.366028 1126.997070,616.772949 
	C1126.994629,616.316956 1126.999756,616.134705 1127.004883,615.952515 
z"/>
<path fill="#A1A1A3" opacity="1.000000" stroke="none" 
	d="
M68.950226,615.071777 
	C68.871986,615.717102 68.912956,616.883850 68.698387,616.932922 
	C58.841976,619.186462 65.381760,627.253479 63.353500,632.263000 
	C62.832420,633.549988 63.786686,635.434265 64.099625,637.456177 
	C60.347420,637.636230 56.558762,637.404236 52.375195,636.664917 
	C51.655880,632.884888 50.981899,629.602478 51.072422,626.341309 
	C51.347546,616.429443 49.751595,618.113464 42.544563,618.000916 
	C42.048050,617.993225 41.551334,617.998352 41.054710,617.998474 
	C32.600239,618.000549 32.207401,618.860840 33.387707,627.200378 
	C33.879436,630.674744 32.520355,634.411072 32.002853,638.028259 
	C31.220667,638.007385 30.438480,637.986511 29.345718,637.561951 
	C30.009275,629.588074 27.584877,621.585999 31.921051,614.442871 
	C40.669674,614.341431 49.418293,614.239929 58.911430,614.452637 
	C62.754040,614.868408 65.852135,614.970093 68.950226,615.071777 
z"/>
<path fill="#424445" opacity="1.000000" stroke="none" 
	d="
M133.620056,649.085938 
	C135.021729,650.532532 135.948822,651.913330 136.927979,653.632324 
	C108.254837,653.637939 79.529648,653.305298 50.348316,652.887573 
	C48.158493,651.521606 46.424812,650.240723 44.772942,649.020264 
	C74.148293,649.020264 103.646896,649.020264 133.620056,649.085938 
z"/>
<path fill="#A1A1A3" opacity="1.000000" stroke="none" 
	d="
M1187.353638,637.908813 
	C1186.589233,633.277466 1186.379639,628.692444 1185.957031,624.127136 
	C1185.562256,619.861145 1186.800049,617.368774 1191.629639,617.946594 
	C1193.931641,618.222107 1195.211304,617.458191 1194.025879,614.531860 
	C1202.713745,614.456665 1211.457764,614.729858 1220.528931,615.426758 
	C1220.045898,616.610168 1218.587036,617.325256 1218.531250,618.136780 
	C1218.193970,623.046082 1217.873169,628.000305 1218.240112,632.887451 
	C1218.348999,634.338196 1220.693237,635.621094 1222.014404,637.222534 
	C1222.015381,637.464172 1222.003662,637.947327 1222.003662,637.947327 
	C1219.612915,637.958984 1217.222046,637.970642 1214.438721,637.557678 
	C1214.360229,632.045593 1214.920410,626.953308 1214.818359,621.874268 
	C1214.792236,620.574890 1212.699341,618.257751 1211.507080,618.225708 
	C1206.518799,618.091553 1201.511963,618.648682 1196.980469,618.924011 
	C1196.980469,625.938416 1196.980469,631.959961 1196.980469,637.981445 
	C1193.925537,637.975525 1190.870483,637.969604 1187.353638,637.908813 
z"/>
<path fill="#E2E2E2" opacity="1.000000" stroke="none" 
	d="
M1241.974609,638.110229 
	C1237.646240,638.035583 1233.317993,637.960999 1228.450195,637.452637 
	C1227.796997,634.931580 1227.447510,632.825256 1227.615112,630.760803 
	C1228.053955,625.354919 1226.950195,619.326477 1232.953491,615.898743 
	C1236.328613,615.621765 1239.703735,615.344849 1243.512451,615.531433 
	C1244.320557,617.665222 1244.694946,619.335571 1245.080933,621.473145 
	C1245.110107,626.015198 1245.396362,630.116516 1244.998291,634.150269 
	C1244.859741,635.555969 1243.031250,636.795044 1241.974609,638.110229 
z"/>
<path fill="#C9CACB" opacity="1.000000" stroke="none" 
	d="
M1150.199219,148.088440 
	C1149.364380,146.119308 1148.529541,144.150192 1147.324463,141.757416 
	C1146.961304,140.890747 1146.968262,140.447754 1147.351929,139.900024 
	C1149.310913,136.704895 1150.532104,133.645401 1146.962891,130.663544 
	C1146.958740,129.889526 1146.966675,129.447159 1147.345947,128.903564 
	C1149.469238,126.009956 1150.459961,123.289940 1146.963257,120.621628 
	C1146.958984,119.500282 1146.966553,118.752625 1147.361816,117.892853 
	C1148.127075,117.275398 1148.829102,116.773529 1148.834473,116.264236 
	C1148.929810,107.314873 1148.991821,98.363960 1148.881592,89.415588 
	C1148.871460,88.601082 1147.639404,87.801620 1146.958984,86.666473 
	C1146.647095,85.555435 1146.350952,84.773094 1146.075073,83.570892 
	C1146.395508,80.704720 1146.922119,78.261429 1146.954712,75.811577 
	C1147.069092,67.212692 1147.013428,58.611546 1147.296387,49.863922 
	C1147.372925,48.481468 1147.175415,47.246349 1146.985840,45.591454 
	C1146.986816,43.769466 1146.979980,42.367264 1147.333740,40.978722 
	C1148.415894,40.985928 1149.137329,40.979469 1149.858765,40.973015 
	C1149.858765,40.973015 1150.032593,41.379868 1149.989746,41.944942 
	C1150.248535,43.326889 1150.550171,44.143764 1150.852051,44.960640 
	C1150.878296,70.695847 1150.909790,96.431046 1150.927979,122.166252 
	C1150.933960,130.513351 1150.905518,138.860474 1150.696533,147.651276 
	C1150.500122,148.094955 1150.199219,148.088440 1150.199219,148.088440 
z"/>
<path fill="#C8C8C9" opacity="1.000000" stroke="none" 
	d="
M1145.451416,637.830322 
	C1144.424683,636.524536 1144.080444,634.441956 1143.255493,634.229980 
	C1139.569946,633.282959 1139.813110,631.328308 1141.124146,628.635193 
	C1141.618042,627.620544 1141.990479,626.415100 1141.971313,625.304321 
	C1141.868530,619.323242 1147.111084,618.768372 1150.872314,616.206543 
	C1154.082764,615.592834 1157.115479,615.296997 1160.568359,615.072205 
	C1160.544556,616.126709 1160.240112,617.861816 1159.634521,617.974182 
	C1154.919800,618.849304 1154.764526,621.545654 1155.894775,625.425476 
	C1156.743408,628.338074 1154.639038,632.109436 1158.752319,634.099243 
	C1159.465576,634.444214 1159.576294,636.034912 1159.956055,637.418701 
	C1155.268799,637.829651 1150.590698,637.872131 1145.451416,637.830322 
z"/>
<path fill="#EDEDEC" opacity="1.000000" stroke="none" 
	d="
M1149.914062,40.582062 
	C1149.137329,40.979469 1148.415894,40.985928 1147.110840,40.715233 
	C1145.745361,39.620224 1144.428345,38.895847 1144.266479,37.969666 
	C1143.012573,30.790970 1138.922363,26.144609 1132.233887,23.504511 
	C1128.770020,22.137259 1125.407959,20.511827 1122.000000,19.003033 
	C1122.002075,18.295643 1122.004150,17.588245 1122.007812,16.527153 
	C1136.441528,19.266396 1145.555542,24.564753 1149.914062,40.582062 
z"/>
<path fill="#A1A1A3" opacity="1.000000" stroke="none" 
	d="
M17.036558,638.103577 
	C17.035339,639.125061 17.034111,640.146484 17.007973,641.550415 
	C10.727668,640.161865 7.973006,636.243286 8.881582,629.609131 
	C9.326079,626.363586 8.975856,623.012024 9.026678,619.709045 
	C9.103847,614.693848 10.174817,613.898193 15.255141,614.952209 
	C15.895703,615.085144 16.569733,615.056824 17.519720,615.414185 
	C17.535110,616.144775 17.259039,616.564331 16.990086,616.988892 
	C16.997202,616.993896 16.984951,616.982483 16.635696,616.986694 
	C15.508557,617.646790 14.730671,618.302734 13.923815,619.428589 
	C13.884324,624.191101 13.559127,628.516907 14.008121,632.760925 
	C14.205612,634.627686 15.978787,636.327820 17.036558,638.103577 
z"/>
<path fill="#C8C8C9" opacity="1.000000" stroke="none" 
	d="
M16.982964,616.983887 
	C17.259039,616.564331 17.535110,616.144775 17.915222,615.492981 
	C22.362856,614.942261 26.706446,614.623779 31.485542,614.374084 
	C27.584877,621.585999 30.009275,629.588074 28.957430,637.513245 
	C27.499136,637.892395 26.118553,637.916626 24.418789,637.461243 
	C24.391510,633.378418 24.874882,629.778320 24.935968,626.171143 
	C25.068420,618.349792 24.980118,618.348267 16.982964,616.983887 
z"/>
<path fill="#424445" opacity="1.000000" stroke="none" 
	d="
M325.545105,653.946899 
	C326.996674,653.614197 328.907867,653.035583 330.820465,653.030701 
	C354.310974,652.970886 377.802246,653.091003 401.292053,652.952576 
	C411.420013,652.892883 421.543884,652.283875 431.672699,652.074646 
	C433.354828,652.039856 435.052917,652.778137 436.843689,653.537476 
	C399.964325,653.932983 362.984863,653.950256 325.545105,653.946899 
z"/>
<path fill="#C8C8C9" opacity="1.000000" stroke="none" 
	d="
M1232.552246,615.934937 
	C1226.950195,619.326477 1228.053955,625.354919 1227.615112,630.760803 
	C1227.447510,632.825256 1227.796997,634.931580 1227.994873,637.387939 
	C1226.342651,637.841736 1224.606445,637.926453 1222.437012,637.979248 
	C1222.003662,637.947327 1222.015381,637.464172 1222.018433,636.808167 
	C1222.184082,633.426453 1222.801392,630.632812 1222.406982,627.990234 
	C1221.745850,623.559692 1221.377686,619.422241 1225.028564,615.819214 
	C1225.039307,615.609253 1225.044067,615.188965 1225.044067,615.188965 
	C1227.413086,615.449707 1229.782104,615.710449 1232.552246,615.934937 
z"/>
<path fill="#BABABB" opacity="1.000000" stroke="none" 
	d="
M1225.017822,616.029053 
	C1221.377686,619.422241 1221.745850,623.559692 1222.406982,627.990234 
	C1222.801392,630.632812 1222.184082,633.426453 1222.017334,636.566528 
	C1220.693237,635.621094 1218.348999,634.338196 1218.240112,632.887451 
	C1217.873169,628.000305 1218.193970,623.046082 1218.531250,618.136780 
	C1218.587036,617.325256 1220.045898,616.610168 1220.943604,615.528503 
	C1221.469971,615.165222 1221.909180,615.124023 1222.876709,615.334595 
	C1223.942749,615.734009 1224.480225,615.881531 1225.017822,616.029053 
z"/>
<path fill="#A1A1A3" opacity="1.000000" stroke="none" 
	d="
M1242.086426,638.367920 
	C1243.031250,636.795044 1244.859741,635.555969 1244.998291,634.150269 
	C1245.396362,630.116516 1245.110107,626.015198 1245.311890,621.235718 
	C1245.873169,619.520386 1246.215210,618.509827 1246.592651,617.394714 
	C1247.760986,617.598633 1248.814453,617.782593 1249.867798,617.966492 
	C1249.923462,619.704224 1249.979126,621.442017 1249.576416,623.716736 
	C1248.760376,628.899475 1248.402710,633.545227 1248.045044,638.190979 
	C1248.073730,638.531372 1247.940918,638.788208 1247.200317,639.099487 
	C1246.416626,639.330078 1246.181152,639.538025 1246.047363,639.861328 
	C1244.925659,640.526428 1243.803955,641.191528 1242.350098,641.892944 
	C1242.078247,640.828064 1242.138306,639.726868 1242.086426,638.367920 
z"/>
<path fill="#424445" opacity="1.000000" stroke="none" 
	d="
M1203.500488,653.867615 
	C1204.045898,652.696960 1204.989136,651.572327 1205.990723,650.096313 
	C1209.959717,649.559387 1213.870361,649.373779 1217.911865,649.548157 
	C1218.042725,649.908142 1217.672852,650.028076 1217.194946,650.090942 
	C1216.477783,650.436157 1216.238647,650.718506 1215.999390,651.000916 
	C1211.965820,651.971863 1207.932129,652.942749 1203.500488,653.867615 
z"/>
<path fill="#67696A" opacity="1.000000" stroke="none" 
	d="
M687.554260,653.914062 
	C688.010132,653.618530 688.927856,653.091003 689.844299,653.093201 
	C702.936035,653.124817 716.027527,653.228027 729.440186,653.532043 
	C715.846008,653.809570 701.930725,653.868958 687.554260,653.914062 
z"/>
<path fill="#FFFFFF" opacity="1.000000" stroke="none" 
	d="
M69.360626,615.010620 
	C65.852135,614.970093 62.754040,614.868408 59.387505,614.469727 
	C71.305809,614.178101 83.492561,614.183533 95.873199,614.587463 
	C89.332466,614.981140 82.597847,614.976440 75.085846,615.026123 
	C73.897194,615.088501 73.485931,615.096436 73.074661,615.104370 
	C71.973457,615.052795 70.872246,615.001160 69.360626,615.010620 
z"/>
<path fill="#FFFFFF" opacity="1.000000" stroke="none" 
	d="
M1150.121582,148.543839 
	C1150.199219,148.088440 1150.500122,148.094955 1150.649292,148.074371 
	C1150.801514,159.931213 1150.804565,171.808640 1150.413818,183.890747 
	C1150.028076,172.396713 1150.036133,160.697983 1150.121582,148.543839 
z"/>
<path fill="#67696A" opacity="1.000000" stroke="none" 
	d="
M640.642822,653.831604 
	C650.526550,653.648926 660.861816,653.508667 671.516296,653.601562 
	C661.588440,653.847839 651.341492,653.860901 640.642822,653.831604 
z"/>
<path fill="#424445" opacity="1.000000" stroke="none" 
	d="
M908.495911,653.992188 
	C910.394592,653.635498 912.758789,653.010986 915.123108,653.010742 
	C922.830688,653.009827 930.538208,653.236816 938.552979,653.627991 
	C928.893921,653.923279 918.927734,653.966675 908.495911,653.992188 
z"/>
<path fill="#67696A" opacity="1.000000" stroke="none" 
	d="
M591.612610,653.860352 
	C600.871033,653.674988 610.584656,653.515625 620.600830,653.628174 
	C611.291504,653.895569 601.679626,653.890991 591.612610,653.860352 
z"/>
<path fill="#C8C8C9" opacity="1.000000" stroke="none" 
	d="
M1248.398682,637.978943 
	C1248.402710,633.545227 1248.760376,628.899475 1249.491211,624.144287 
	C1249.493774,628.612183 1249.122925,633.189575 1248.398682,637.978943 
z"/>
<path fill="#C8C8C9" opacity="1.000000" stroke="none" 
	d="
M1249.911743,617.581360 
	C1248.814453,617.782593 1247.760986,617.598633 1246.592651,617.394714 
	C1246.215210,618.509827 1245.873169,619.520386 1245.300171,620.768433 
	C1244.694946,619.335571 1244.320557,617.665222 1243.957397,615.605347 
	C1245.964355,615.875916 1247.959961,616.536072 1249.911743,617.581360 
z"/>
<path fill="#424445" opacity="1.000000" stroke="none" 
	d="
M311.583618,653.903564 
	C314.865234,653.717468 318.593353,653.556641 322.617188,653.661133 
	C319.285309,653.927185 315.657715,653.927979 311.583618,653.903564 
z"/>
<path fill="#67696A" opacity="1.000000" stroke="none" 
	d="
M24.222431,645.022827 
	C24.807453,644.326538 25.639141,643.748474 26.470835,643.170410 
	C26.951212,643.921204 27.431583,644.672058 27.904758,645.796265 
	C27.897562,646.169739 27.543570,646.112122 27.021534,646.061157 
	C26.269011,646.021057 26.038523,646.031799 25.808035,646.042542 
	C25.361723,645.742065 24.915409,645.441528 24.222431,645.022827 
z"/>
<path fill="#C8C8C9" opacity="1.000000" stroke="none" 
	d="
M1149.918457,604.627686 
	C1148.893066,603.916504 1147.948853,602.809509 1147.009399,601.347290 
	C1147.723633,600.993713 1148.433350,600.995422 1149.497803,601.004639 
	C1149.901611,602.085327 1149.950684,603.158569 1149.918457,604.627686 
z"/>
<path fill="#67696A" opacity="1.000000" stroke="none" 
	d="
M578.536743,653.933350 
	C581.171692,653.724182 584.250610,653.548645 587.616394,653.636658 
	C584.929077,653.922485 581.954895,653.944763 578.536743,653.933350 
z"/>
<path fill="#67696A" opacity="1.000000" stroke="none" 
	d="
M566.594604,653.859619 
	C569.183350,653.681702 572.209900,653.528992 575.536621,653.605408 
	C572.901978,653.851257 569.967163,653.868103 566.594604,653.859619 
z"/>
<path fill="#67696A" opacity="1.000000" stroke="none" 
	d="
M677.581055,653.859314 
	C679.527039,653.684570 681.898376,653.535217 684.553467,653.610046 
	C682.560303,653.851074 680.283264,653.867859 677.581055,653.859314 
z"/>
<path fill="#FFFFFF" opacity="1.000000" stroke="none" 
	d="
M706.552734,14.069029 
	C705.169128,14.290399 703.364685,14.452028 701.298584,14.371215 
	C702.735291,14.088944 704.433533,14.049116 706.552734,14.069029 
z"/>
<path fill="#FFFFFF" opacity="1.000000" stroke="none" 
	d="
M944.565125,14.069018 
	C943.490540,14.287225 942.007446,14.445682 940.280701,14.366455 
	C941.410217,14.088938 942.783447,14.049104 944.565125,14.069018 
z"/>
<path fill="#848587" opacity="1.000000" stroke="none" 
	d="
M33.062447,648.396118 
	C33.559574,648.203186 34.225304,648.257629 34.926834,648.594971 
	C34.385437,648.799805 33.808239,648.721619 33.062447,648.396118 
z"/>
<path fill="#424445" opacity="1.000000" stroke="none" 
	d="
M145.445755,653.924072 
	C145.907501,653.754700 146.717224,653.605835 147.704437,653.671021 
	C147.185867,653.904968 146.489807,653.924805 145.445755,653.924072 
z"/>
<path fill="#EDEDEC" opacity="1.000000" stroke="none" 
	d="
M1150.936768,44.606956 
	C1150.550171,44.143764 1150.248535,43.326889 1149.998413,42.166000 
	C1150.374023,42.632416 1150.697876,43.442844 1150.936768,44.606956 
z"/>
<path fill="#67696A" opacity="1.000000" stroke="none" 
	d="
M633.476807,653.857178 
	C633.911499,653.692078 634.679504,653.551758 635.627563,653.596985 
	C635.141724,653.815674 634.475891,653.848816 633.476807,653.857178 
z"/>
<path fill="#424445" opacity="1.000000" stroke="none" 
	d="
M139.366852,653.954590 
	C139.585205,653.800903 140.114563,653.659180 140.782257,653.718140 
	C140.506348,653.934692 140.092102,653.950562 139.366852,653.954590 
z"/>
<path fill="#A1A1A3" opacity="1.000000" stroke="none" 
	d="
M1225.028564,615.819153 
	C1224.480225,615.881531 1223.942749,615.734009 1223.204224,615.389404 
	C1223.459229,615.132141 1223.915283,615.071838 1224.707642,615.100220 
	C1225.044067,615.188965 1225.039307,615.609253 1225.028564,615.819153 
z"/>
<path fill="#424445" opacity="1.000000" stroke="none" 
	d="
M899.350708,653.989502 
	C899.582092,653.827087 900.137634,653.681152 900.832764,653.753906 
	C900.539917,653.983704 900.107422,653.994812 899.350708,653.989502 
z"/>
<path fill="#67696A" opacity="1.000000" stroke="none" 
	d="
M624.387207,653.929565 
	C624.606934,653.760376 625.131714,653.622986 625.785889,653.691833 
	C625.507690,653.919189 625.099915,653.940247 624.387207,653.929565 
z"/>
<path fill="#FFFFFF" opacity="1.000000" stroke="none" 
	d="
M898.652710,14.069360 
	C898.424927,14.262829 897.876099,14.396889 897.181885,14.329861 
	C897.468201,14.089167 897.899963,14.049558 898.652710,14.069360 
z"/>
<path fill="#FFFFFF" opacity="1.000000" stroke="none" 
	d="
M222.704651,14.102302 
	C222.846207,14.441675 222.621246,14.650836 222.088379,14.863390 
	C222.062836,14.672294 222.248718,14.374063 222.704651,14.102302 
z"/>
<path fill="#FFFFFF" opacity="1.000000" stroke="none" 
	d="
M450.028442,13.713625 
	C449.823303,13.836473 449.551208,13.685534 449.160400,13.323978 
	C449.339691,13.237594 449.646301,13.346419 450.028442,13.713625 
z"/>
<path fill="#FFFFFF" opacity="1.000000" stroke="none" 
	d="
M360.703979,13.102673 
	C360.836426,13.443626 360.601959,13.648186 360.057129,13.851917 
	C360.039795,13.666446 360.236542,13.371509 360.703979,13.102673 
z"/>
<path fill="#67696A" opacity="1.000000" stroke="none" 
	d="
M559.327759,653.820374 
	C559.306702,653.511963 559.505676,653.455200 559.811035,653.724487 
	C559.879456,653.830872 559.509949,653.852356 559.327759,653.820374 
z"/>
<path fill="#FFFFFF" opacity="1.000000" stroke="none" 
	d="
M730.036499,14.710979 
	C729.833984,14.835794 729.558167,14.686966 729.162415,14.324757 
	C729.340027,14.237439 729.646851,14.346093 730.036499,14.710979 
z"/>
<path fill="#67696A" opacity="1.000000" stroke="none" 
	d="
M1216.285156,650.958130 
	C1216.238647,650.718506 1216.477783,650.436157 1217.000488,650.088928 
	C1217.046265,650.321167 1216.808594,650.618225 1216.285156,650.958130 
z"/>
<path fill="#FFFFFF" opacity="1.000000" stroke="none" 
	d="
M876.704712,14.102280 
	C876.846313,14.441622 876.621338,14.650779 876.088623,14.863397 
	C876.062988,14.672297 876.248840,14.374042 876.704712,14.102280 
z"/>
<path fill="#FFFFFF" opacity="1.000000" stroke="none" 
	d="
M888.739380,14.073584 
	C888.974731,14.128773 888.649719,14.486199 888.649719,14.486199 
	C888.649719,14.486199 888.211731,14.410134 888.122559,14.269453 
	C888.033447,14.128773 888.504089,14.018395 888.739380,14.073584 
z"/>
<path fill="#FFFFFF" opacity="1.000000" stroke="none" 
	d="
M964.036499,14.710960 
	C963.833984,14.835791 963.558167,14.686964 963.162415,14.324740 
	C963.340027,14.237408 963.646851,14.346060 964.036499,14.710960 
z"/>
<path fill="#FFFFFF" opacity="1.000000" stroke="none" 
	d="
M1064.739136,15.075412 
	C1064.974731,15.128773 1064.672485,15.481873 1064.672485,15.481873 
	C1064.672485,15.481873 1064.251465,15.425343 1064.149048,15.302428 
	C1064.046631,15.179514 1064.503540,15.022051 1064.739136,15.075412 
z"/>
<path fill="#848587" opacity="1.000000" stroke="none" 
	d="
M25.942799,646.267395 
	C26.038523,646.031799 26.269011,646.021057 26.845644,646.026245 
	C26.820381,646.192261 26.448971,646.342285 25.942799,646.267395 
z"/>
<path fill="#C8C8C9" opacity="1.000000" stroke="none" 
	d="
M1246.312744,639.872925 
	C1246.181152,639.538025 1246.416626,639.330078 1246.976318,639.138428 
	C1246.991821,639.321106 1246.785034,639.602844 1246.312744,639.872925 
z"/>
<path fill="#C8C8C9" opacity="1.000000" stroke="none" 
	d="
M1150.360596,410.095490 
	C1150.050659,409.967834 1150.030396,409.735107 1150.039307,409.153076 
	C1150.262573,409.199310 1150.456543,409.594879 1150.360596,410.095490 
z"/>
<path fill="#F2F2F1" opacity="1.000000" stroke="none" 
	d="
M1066.962891,637.611572 
	C1064.974731,637.729553 1062.986694,637.950745 1060.998535,637.950867 
	C767.067139,637.970215 473.135712,637.974976 179.204285,637.960022 
	C176.047134,637.959839 172.889999,637.692444 169.370880,637.025513 
	C170.323700,635.666626 171.650696,634.850464 172.950104,633.992554 
	C174.462402,632.994080 176.815872,632.262756 177.298538,630.887146 
	C179.329834,625.098145 175.686859,620.195190 169.545288,620.029663 
	C164.918320,619.905029 160.271805,620.191101 155.664291,619.865479 
	C154.397232,619.775879 153.239014,618.145996 152.493958,617.163452 
	C168.954514,617.120178 184.951996,617.151611 200.949463,617.149841 
	C254.607681,617.144104 308.265900,617.126465 362.399536,617.129639 
	C387.571167,617.139526 412.267365,617.133057 437.433014,617.169922 
	C472.493958,617.282654 507.085480,617.352051 541.833191,617.724243 
	C544.239380,625.407227 548.943542,629.426453 557.393494,628.971802 
	C567.566895,629.001099 577.283447,629.000000 587.314819,629.270264 
	C589.930542,629.691162 592.236145,630.019653 594.531555,629.958984 
	C604.127136,629.705627 613.718323,629.133057 623.313538,629.075684 
	C630.247864,629.034241 637.183533,629.700806 644.123047,629.899414 
	C649.028076,630.039795 653.943909,630.041870 658.848633,629.895996 
	C665.235657,629.705994 671.616516,629.308289 678.460327,629.001343 
	C682.886475,629.301025 686.853455,629.846985 690.817871,629.829102 
	C694.880920,629.810730 698.941467,629.240540 703.406494,628.928833 
	C711.768250,629.125854 714.824341,623.591309 717.744812,617.353149 
	C789.656433,617.289001 861.119873,617.259399 932.583252,617.202454 
	C977.725037,617.166565 1022.866760,617.089966 1068.468628,617.100952 
	C1073.281006,617.281311 1077.633179,617.392334 1081.945557,617.880859 
	C1080.885010,618.836060 1079.883667,619.868164 1078.840210,619.912720 
	C1074.392944,620.102783 1069.931519,619.929138 1065.478394,620.026672 
	C1061.495239,620.113892 1058.035645,623.269226 1058.114624,627.108521 
	C1058.192261,630.876404 1058.875977,634.425598 1064.185913,634.190063 
	C1065.059326,634.151306 1066.034668,636.412964 1066.962891,637.611572 
z"/>
<path fill="#EBEBE9" opacity="1.000000" stroke="none" 
	d="
M1067.419434,637.743530 
	C1066.034668,636.412964 1065.059326,634.151306 1064.185913,634.190063 
	C1058.875977,634.425598 1058.192261,630.876404 1058.114624,627.108521 
	C1058.035645,623.269226 1061.495239,620.113892 1065.478394,620.026672 
	C1069.931519,619.929138 1074.392944,620.102783 1078.840210,619.912720 
	C1079.883667,619.868164 1080.885010,618.836060 1082.406006,617.782654 
	C1091.589722,617.353638 1100.273071,617.400269 1108.923584,617.826782 
	C1105.713745,618.803711 1102.532959,619.381470 1099.360962,620.004272 
	C1097.182861,620.431946 1094.481934,620.262390 1092.946045,621.508118 
	C1088.307495,625.270142 1089.669800,631.602051 1095.108521,634.186157 
	C1096.048218,634.632751 1096.338013,636.447327 1096.927979,637.630005 
	C1087.244019,637.711853 1077.559937,637.793640 1067.419434,637.743530 
z"/>
<path fill="#EBEBE9" opacity="1.000000" stroke="none" 
	d="
M152.030869,617.222900 
	C153.239014,618.145996 154.397232,619.775879 155.664291,619.865479 
	C160.271805,620.191101 164.918320,619.905029 169.545288,620.029663 
	C175.686859,620.195190 179.329834,625.098145 177.298538,630.887146 
	C176.815872,632.262756 174.462402,632.994080 172.950104,633.992554 
	C171.650696,634.850464 170.323700,635.666626 168.969208,636.929565 
	C158.875610,637.379822 148.821701,637.401794 138.371155,636.966675 
	C138.624985,635.687683 139.180161,634.266479 139.942062,634.145325 
	C143.698212,633.548035 143.905792,631.114746 144.107498,628.005981 
	C144.349487,624.276489 142.601715,621.765686 139.760040,620.406433 
	C137.729446,619.435120 135.034653,619.852356 131.669113,619.568420 
	C133.321640,618.305481 134.160217,617.664612 135.466553,617.019409 
	C141.299820,617.084351 146.665344,617.153625 152.030869,617.222900 
z"/>
<path fill="#DBDBDB" opacity="1.000000" stroke="none" 
	d="
M1097.387451,637.765015 
	C1096.338013,636.447327 1096.048218,634.632751 1095.108521,634.186157 
	C1089.669800,631.602051 1088.307495,625.270142 1092.946045,621.508118 
	C1094.481934,620.262390 1097.182861,620.431946 1099.360962,620.004272 
	C1102.532959,619.381470 1105.713745,618.803711 1109.381470,617.705200 
	C1115.583008,617.151367 1121.293945,617.099060 1127.004883,617.046753 
	C1129.711548,617.366028 1132.418335,617.685303 1135.562500,618.002319 
	C1133.708130,618.667725 1131.432861,619.836365 1129.121582,619.912231 
	C1121.267578,620.169983 1119.377441,621.888672 1120.129272,629.680298 
	C1120.276123,631.202148 1121.971802,632.591858 1123.005249,634.004456 
	C1123.618896,634.843262 1124.334229,635.607544 1125.051636,636.808411 
	C1116.015137,637.440979 1106.931030,637.670471 1097.387451,637.765015 
z"/>
<path fill="#D6D7D7" opacity="1.000000" stroke="none" 
	d="
M134.998779,617.023682 
	C134.160217,617.664612 133.321640,618.305481 131.669113,619.568420 
	C135.034653,619.852356 137.729446,619.435120 139.760040,620.406433 
	C142.601715,621.765686 144.349487,624.276489 144.107498,628.005981 
	C143.905792,631.114746 143.698212,633.548035 139.942062,634.145325 
	C139.180161,634.266479 138.624985,635.687683 137.911469,636.922546 
	C132.878754,637.535950 127.909096,637.736389 122.479660,637.871216 
	C120.329445,637.205444 118.679283,636.337402 116.937988,636.075684 
	C114.926620,635.773376 112.834953,636.005371 110.461281,635.444214 
	C115.498352,633.463562 116.272591,630.272156 115.167175,625.607849 
	C114.422478,622.465576 115.037933,619.000977 115.429688,615.347473 
	C117.218193,614.988831 118.621933,614.963257 120.017624,614.968689 
	C120.009590,614.999695 119.977219,615.054871 119.868469,615.311218 
	C119.762703,616.126099 119.765671,616.684570 119.768646,617.243103 
	C120.836189,616.511597 121.903725,615.780029 123.429443,615.033081 
	C127.591751,615.330261 131.295868,615.642822 135.000946,616.222412 
	C135.000854,616.667542 134.999817,616.845642 134.998779,617.023682 
M129.561386,618.513123 
	C129.561386,618.513123 129.481689,618.554138 129.561386,618.513123 
z"/>
<path fill="#919394" opacity="1.000000" stroke="none" 
	d="
M1197.449951,637.991089 
	C1196.980469,631.959961 1196.980469,625.938416 1196.980469,618.924011 
	C1201.511963,618.648682 1206.518799,618.091553 1211.507080,618.225708 
	C1212.699341,618.257751 1214.792236,620.574890 1214.818359,621.874268 
	C1214.920410,626.953308 1214.360229,632.045593 1214.037720,637.551331 
	C1208.659424,637.979980 1203.289429,637.990356 1197.449951,637.991089 
z"/>
<path fill="#919394" opacity="1.000000" stroke="none" 
	d="
M32.253639,638.251953 
	C32.520355,634.411072 33.879436,630.674744 33.387707,627.200378 
	C32.207401,618.860840 32.600239,618.000549 41.054710,617.998474 
	C41.551334,617.998352 42.048050,617.993225 42.544563,618.000916 
	C49.751595,618.113464 51.347546,616.429443 51.072422,626.341309 
	C50.981899,629.602478 51.655880,632.884888 51.963715,636.608948 
	C51.013569,637.353638 49.853466,638.157776 49.182011,637.859985 
	C43.480812,635.331665 38.045731,638.110107 32.253639,638.251953 
z"/>
<path fill="#E2E2E2" opacity="1.000000" stroke="none" 
	d="
M16.990082,616.988892 
	C24.980118,618.348267 25.068420,618.349792 24.935968,626.171143 
	C24.874882,629.778320 24.391510,633.378418 24.012272,637.369019 
	C21.915653,637.847351 19.906370,637.938477 17.466820,638.066589 
	C15.978787,636.327820 14.205612,634.627686 14.008121,632.760925 
	C13.559127,628.516907 13.884324,624.191101 14.277859,619.435608 
	C15.435568,618.309326 16.210266,617.645935 16.984957,616.982483 
	C16.984951,616.982483 16.997202,616.993896 16.990082,616.988892 
z"/>
<path fill="#F1F1EF" opacity="1.000000" stroke="none" 
	d="
M135.000000,615.955322 
	C131.295868,615.642822 127.591751,615.330261 123.056198,615.017761 
	C121.475578,615.030151 120.726402,615.042480 119.977219,615.054871 
	C119.977219,615.054871 120.009590,614.999695 120.008865,614.515381 
	C120.092644,610.604248 119.975327,607.157715 120.307762,603.755127 
	C120.839935,598.308167 118.410614,595.949707 112.993172,597.007324 
	C112.662453,595.264221 112.064835,593.524048 112.045837,591.777527 
	C111.947960,582.780151 112.012535,573.781189 111.995178,564.782776 
	C111.666496,394.349182 111.372719,223.915497 110.922676,53.482235 
	C110.890060,41.129181 115.180405,31.199671 124.883698,23.828840 
	C127.493439,21.846426 131.076630,20.636499 134.368179,20.172178 
	C140.260941,19.340910 146.271484,19.043835 152.232880,19.042934 
	C475.176178,18.994106 798.119446,18.999521 1121.531372,19.001202 
	C1125.407959,20.511827 1128.770020,22.137259 1132.233887,23.504511 
	C1138.922363,26.144609 1143.012573,30.790970 1144.266479,37.969666 
	C1144.428345,38.895847 1145.745361,39.620224 1146.750244,40.701572 
	C1146.979980,42.367264 1146.986816,43.769466 1146.747559,45.817886 
	C1146.675049,47.646484 1146.848755,48.828873 1147.022461,50.011257 
	C1147.013428,58.611546 1147.069092,67.212692 1146.954712,75.811577 
	C1146.922119,78.261429 1146.395508,80.704720 1145.714966,83.620605 
	C1140.407715,86.725616 1135.578369,89.569466 1130.524170,91.932137 
	C1126.291016,93.910934 1121.795044,95.327583 1117.316895,96.534134 
	C1117.199097,81.920052 1117.041626,67.762924 1117.249878,53.611187 
	C1117.308228,49.645458 1116.103516,48.129639 1112.178711,48.573547 
	C1110.205688,48.796696 1108.186157,48.610638 1106.187744,48.608624 
	C970.465271,48.471954 834.742798,48.335182 698.788208,47.896660 
	C696.698059,47.796356 694.840088,47.997814 692.531250,48.215866 
	C673.060608,48.223259 654.040771,48.214058 634.778503,47.897491 
	C632.351257,47.795345 630.166504,48.000565 627.514709,48.220261 
	C620.371887,48.226601 613.696106,48.218456 606.850464,47.929832 
	C605.781067,47.835503 604.881531,48.021660 603.514893,48.221951 
	C594.038452,48.223923 585.029175,48.211761 575.822205,47.910099 
	C574.410461,47.813271 573.196411,48.005943 571.554077,48.214928 
	C558.423828,48.221413 545.721924,48.211586 532.822266,47.911526 
	C531.410217,47.817768 530.196106,48.014248 528.518005,48.225281 
	C493.042297,48.213787 458.030487,48.187748 422.731812,47.851025 
	C420.639832,47.375847 418.835052,47.072083 417.029663,47.068272 
	C397.532623,47.027092 378.035461,47.028072 358.538361,47.027126 
	C288.048615,47.023708 217.558807,47.067299 147.069366,46.925751 
	C142.351349,46.916279 140.684174,48.086292 140.859253,52.994236 
	C141.219376,63.089447 140.970551,73.206383 140.971786,83.314384 
	C140.973679,98.753532 140.977112,114.192673 140.976334,129.631821 
	C140.973785,179.901382 141.079391,230.171265 140.937485,280.440430 
	C140.770706,339.522736 140.373154,398.604340 140.110077,457.686401 
	C140.040573,473.295563 139.986557,488.906281 140.126617,504.514465 
	C140.280396,521.652527 140.746933,538.787781 140.901215,555.925781 
	C140.945953,560.894775 140.093842,565.880371 140.282150,570.834412 
	C140.338379,572.313782 142.530762,573.711914 144.223480,575.231201 
	C279.891479,575.328430 415.080414,575.340332 550.269348,575.365906 
	C552.760864,575.366394 555.252319,575.528748 557.719482,575.925903 
	C556.971924,576.835632 556.339783,577.645935 555.512085,578.003235 
	C541.294556,584.141541 527.019775,590.148193 512.827454,596.343750 
	C502.414124,600.889526 492.050140,605.558105 481.789032,610.434631 
	C479.782410,611.388245 478.349213,613.548645 476.219971,615.250854 
	C462.841858,615.511902 449.895264,615.674500 436.487091,615.787170 
	C411.316467,615.778931 386.607422,615.820618 361.437408,615.822021 
	C285.650940,615.839600 210.325470,615.897461 135.000000,615.955322 
z"/>
<path fill="#EBEBE9" opacity="1.000000" stroke="none" 
	d="
M112.995544,597.473389 
	C118.410614,595.949707 120.839935,598.308167 120.307762,603.755127 
	C119.975327,607.157715 120.092644,610.604248 120.016899,614.484375 
	C118.621933,614.963257 117.218193,614.988831 115.392998,615.030273 
	C114.468460,614.475159 113.965378,613.904175 113.235214,613.156738 
	C113.004730,607.966736 113.001320,602.953125 112.995544,597.473389 
z"/>
<path fill="#131516" opacity="1.000000" stroke="none" 
	d="
M1198.497803,650.041260 
	C1196.584839,651.044250 1194.212769,652.836304 1191.830933,652.849243 
	C1156.715332,653.040833 1121.598389,653.003662 1086.481689,653.005249 
	C1044.707764,653.007141 1002.933350,653.076294 961.160156,652.890198 
	C955.521484,652.865112 949.888550,651.524292 944.138367,650.418701 
	C996.921387,649.996155 1049.819092,649.925476 1102.716675,649.907532 
	C1134.489136,649.896729 1166.261719,649.968323 1198.497803,650.041260 
z"/>
<path fill="#424445" opacity="1.000000" stroke="none" 
	d="
M440.101776,649.455627 
	C439.516388,649.465271 438.805786,649.190552 437.972107,648.641113 
	C438.558228,648.634705 439.267395,648.903015 440.101776,649.455627 
z"/>
<path fill="#A1A1A3" opacity="1.000000" stroke="none" 
	d="
M73.097488,615.376343 
	C73.485931,615.096436 73.897194,615.088501 74.616623,615.092896 
	C74.630478,615.566895 74.336174,616.028381 74.041870,616.489929 
	C73.734680,616.209412 73.427498,615.928833 73.097488,615.376343 
z"/>
<path fill="#EBEBE9" opacity="1.000000" stroke="none" 
	d="
M1146.676392,594.479248 
	C1141.211670,594.291016 1135.860229,593.323425 1130.478027,593.099976 
	C1125.468994,592.891968 1121.666748,598.239685 1122.544189,603.201111 
	C1124.343140,613.372375 1126.547852,613.074463 1114.563477,613.005066 
	C1111.585449,612.987854 1108.592896,612.835754 1105.635620,613.084534 
	C1104.407227,613.187927 1103.253296,614.179749 1101.593994,615.241699 
	C1099.102661,615.618103 1097.082886,615.520264 1095.010742,615.098877 
	C1092.921631,611.971375 1091.194824,611.740173 1089.486206,615.492310 
	C1084.048706,615.526978 1079.059326,615.450073 1074.022705,615.041199 
	C1072.954590,613.818542 1072.058105,612.685059 1070.887817,612.086304 
	C1068.220459,610.721619 1065.269775,609.871094 1062.705444,608.353210 
	C1058.493286,605.859924 1054.779663,602.339111 1050.345703,600.446655 
	C1042.679932,597.174866 1034.687378,594.753662 1028.291382,588.999451 
	C1027.048828,587.881531 1024.915894,587.821411 1023.354553,586.976074 
	C1019.653259,584.972351 1016.048523,582.790222 1012.333618,580.638916 
	C1014.183289,578.224731 1015.124756,576.995911 1016.508423,575.631531 
	C1022.612732,575.586243 1028.274780,575.676575 1034.012451,576.114319 
	C1040.256348,576.699341 1046.424194,576.946716 1052.594116,577.115173 
	C1052.738281,577.119141 1052.906860,576.236084 1053.506836,575.631226 
	C1069.945435,575.586731 1085.941162,575.677795 1101.991211,576.070557 
	C1103.792358,578.874573 1105.125122,578.628845 1106.501953,575.630859 
	C1107.603638,575.446472 1108.266479,575.366699 1108.930664,575.354248 
	C1117.379272,575.196045 1117.372437,575.198425 1117.366943,566.689087 
	C1117.338501,522.410278 1117.264404,478.131409 1117.303101,433.852631 
	C1117.338379,393.574615 1117.497681,353.296753 1118.048584,313.013184 
	C1122.536987,312.520264 1124.339478,314.161987 1124.051758,318.361969 
	C1123.837036,321.495911 1123.691650,324.749542 1124.331177,327.777557 
	C1124.640991,329.243744 1126.824463,330.314148 1128.159668,331.563721 
	C1128.772217,330.181152 1129.826294,328.825775 1129.913452,327.410889 
	C1130.157959,323.440125 1129.929810,319.442505 1130.057007,315.460846 
	C1130.090088,314.422974 1130.564575,312.673859 1131.143188,312.535645 
	C1132.215576,312.279449 1133.910645,312.580109 1134.651001,313.332794 
	C1138.066895,316.805725 1141.921021,318.325867 1146.721191,316.982513 
	C1146.791504,345.670715 1146.861816,374.358917 1146.946777,403.513306 
	C1146.939209,465.001343 1146.918091,526.023132 1146.889648,587.044983 
	C1146.888550,589.371521 1146.815674,591.697998 1146.676392,594.479248 
z"/>
<path fill="#EDEDEC" opacity="1.000000" stroke="none" 
	d="
M1146.788086,316.525452 
	C1141.921021,318.325867 1138.066895,316.805725 1134.651001,313.332794 
	C1133.910645,312.580109 1132.215576,312.279449 1131.143188,312.535645 
	C1130.564575,312.673859 1130.090088,314.422974 1130.057007,315.460846 
	C1129.929810,319.442505 1130.157959,323.440125 1129.913452,327.410889 
	C1129.826294,328.825775 1128.772217,330.181152 1128.159668,331.563721 
	C1126.824463,330.314148 1124.640991,329.243744 1124.331177,327.777557 
	C1123.691650,324.749542 1123.837036,321.495911 1124.051758,318.361969 
	C1124.339478,314.161987 1122.536987,312.520264 1117.965332,312.609314 
	C1117.352783,310.383453 1117.197510,308.555878 1117.196899,306.728210 
	C1117.177490,238.308350 1117.170776,169.888504 1117.175659,101.468643 
	C1117.175781,99.976799 1117.332153,98.484962 1117.415527,96.993134 
	C1121.795044,95.327583 1126.291016,93.910934 1130.524170,91.932137 
	C1135.578369,89.569466 1140.407715,86.725616 1145.694580,84.040482 
	C1146.350952,84.773094 1146.647095,85.555435 1146.949463,87.135712 
	C1146.961792,97.957420 1146.967896,107.981194 1146.974121,118.004974 
	C1146.966553,118.752625 1146.958984,119.500282 1146.953857,121.066422 
	C1146.962280,124.258217 1146.968384,126.631508 1146.974609,129.004807 
	C1146.966675,129.447159 1146.958740,129.889526 1146.953613,131.114136 
	C1146.962646,134.599182 1146.968872,137.301971 1146.975098,140.004761 
	C1146.968262,140.447754 1146.961304,140.890747 1146.963989,141.665894 
	C1146.953369,191.424423 1146.935181,240.850800 1146.910522,290.277191 
	C1146.906128,298.874268 1146.874023,307.471313 1146.788086,316.525452 
z"/>
<path fill="#A1A1A3" opacity="1.000000" stroke="none" 
	d="
M1074.070068,615.373169 
	C1079.059326,615.450073 1084.048706,615.526978 1089.898804,615.641663 
	C1092.194092,615.593811 1093.628540,615.508118 1095.062988,615.422485 
	C1097.082886,615.520264 1099.102661,615.618103 1101.551880,615.621948 
	C1110.009644,615.660950 1118.038208,615.793884 1126.535767,615.939697 
	C1126.999756,616.134705 1126.994629,616.316956 1126.997070,616.773010 
	C1121.293945,617.099060 1115.583008,617.151367 1109.414307,617.325256 
	C1100.273071,617.400269 1091.589722,617.353638 1082.445923,617.405151 
	C1077.633179,617.392334 1073.281006,617.281311 1068.466919,616.833008 
	C1068.007690,616.317200 1068.010132,616.138611 1068.444580,615.911377 
	C1070.607544,615.699463 1072.338867,615.536316 1074.070068,615.373169 
z"/>
<path fill="#C8C8C9" opacity="1.000000" stroke="none" 
	d="
M1136.322021,617.998413 
	C1136.910278,617.674072 1137.820435,617.349426 1138.730713,617.024780 
	C1138.795166,617.289795 1138.859741,617.554810 1138.924194,617.819885 
	C1138.164185,617.879211 1137.404053,617.938599 1136.322021,617.998413 
z"/>
<path fill="#C8C8C9" opacity="1.000000" stroke="none" 
	d="
M1147.361694,117.892853 
	C1146.967896,107.981194 1146.961792,97.957420 1146.965210,87.464401 
	C1147.639404,87.801620 1148.871460,88.601082 1148.881592,89.415588 
	C1148.991821,98.363960 1148.929810,107.314873 1148.834473,116.264236 
	C1148.829102,116.773529 1148.127075,117.275398 1147.361694,117.892853 
z"/>
<path fill="#C8C8C9" opacity="1.000000" stroke="none" 
	d="
M1147.351929,139.900024 
	C1146.968872,137.301971 1146.962646,134.599182 1146.965576,131.445801 
	C1150.532104,133.645401 1149.310913,136.704895 1147.351929,139.900024 
z"/>
<path fill="#C8C8C9" opacity="1.000000" stroke="none" 
	d="
M1147.345947,128.903564 
	C1146.968384,126.631508 1146.962280,124.258217 1146.965820,121.440125 
	C1150.459961,123.289940 1149.469238,126.009956 1147.345947,128.903564 
z"/>
<path fill="#EDEDEC" opacity="1.000000" stroke="none" 
	d="
M1147.296387,49.863922 
	C1146.848755,48.828873 1146.675049,47.646484 1146.739624,46.237663 
	C1147.175415,47.246349 1147.372925,48.481468 1147.296387,49.863922 
z"/>
<path fill="#C8C8C9" opacity="1.000000" stroke="none" 
	d="
M16.635704,616.986694 
	C16.210266,617.645935 15.435568,618.309326 14.306827,618.965698 
	C14.730671,618.302734 15.508557,617.646790 16.635704,616.986694 
z"/>
<path fill="#E2E2E2" opacity="1.000000" stroke="none" 
	d="
M678.000000,629.000000 
	C671.616516,629.308289 665.235657,629.705994 658.848633,629.895996 
	C653.943909,630.041870 649.028076,630.039795 644.123047,629.899414 
	C637.183533,629.700806 630.247864,629.034241 623.313538,629.075684 
	C613.718323,629.133057 604.127136,629.705627 594.531555,629.958984 
	C592.236145,630.019653 589.930542,629.691162 587.469116,628.921936 
	C588.705078,621.866394 587.308472,620.038879 580.921753,620.008911 
	C575.957520,619.985535 570.983826,620.166565 566.035034,619.888245 
	C564.677307,619.811829 563.394043,618.410400 562.525818,617.506348 
	C607.048157,617.348633 651.121399,617.297852 695.194580,617.278076 
	C696.161316,617.277649 697.128113,617.631775 697.972778,618.221558 
	C696.377441,619.081604 694.917786,619.876648 693.428528,619.936768 
	C688.964600,620.116943 684.483521,620.151611 680.019714,619.975220 
	C675.575378,619.799500 675.541321,622.314697 676.408813,625.427612 
	C676.754944,626.669739 677.458923,627.812195 678.000000,629.000000 
z"/>
<path fill="#919394" opacity="1.000000" stroke="none" 
	d="
M698.094910,617.820557 
	C697.128113,617.631775 696.161316,617.277649 695.194580,617.278076 
	C651.121399,617.297852 607.048157,617.348633 562.127747,617.371094 
	C558.814453,617.512512 556.348389,617.678650 553.513916,617.695312 
	C549.322693,617.504272 545.499817,617.462830 541.677002,617.421387 
	C507.085480,617.352051 472.493958,617.282654 437.433533,616.847168 
	C436.959290,616.266357 436.953979,616.051697 436.948700,615.837097 
	C449.895264,615.674500 462.841858,615.511902 476.684387,615.470337 
	C478.570770,615.675476 479.561157,615.832581 480.551575,615.833069 
	C514.930725,615.851135 549.309814,615.860474 583.688965,615.839478 
	C585.166626,615.838562 586.644165,615.539551 588.568726,615.499268 
	C631.727661,615.681152 674.439697,615.784302 717.151672,615.779114 
	C729.432129,615.777588 741.712524,615.463562 754.444458,615.443359 
	C767.589722,615.504883 780.283569,615.415710 793.428833,615.454346 
	C820.176514,615.652954 846.472595,615.757507 872.768799,615.787964 
	C937.850098,615.863342 1002.931396,615.904907 1068.012695,615.960083 
	C1068.010132,616.138611 1068.007690,616.317200 1068.006836,616.763672 
	C1022.866760,617.089966 977.725037,617.166565 932.583252,617.202454 
	C861.119873,617.259399 789.656433,617.289001 717.277039,617.238403 
	C712.613770,617.373840 708.866516,617.601074 704.677673,617.823059 
	C702.189026,617.818665 700.141968,617.819580 698.094910,617.820557 
z"/>
<path fill="#DBDBDB" opacity="1.000000" stroke="none" 
	d="
M553.882324,617.844849 
	C556.348389,617.678650 558.814453,617.512512 561.678589,617.481689 
	C563.394043,618.410400 564.677307,619.811829 566.035034,619.888245 
	C570.983826,620.166565 575.957520,619.985535 580.921753,620.008911 
	C587.308472,620.038879 588.705078,621.866394 587.154358,628.650635 
	C577.283447,629.000000 567.566895,629.001099 557.404053,628.544067 
	C557.576111,624.178711 556.497498,620.781067 553.882324,617.844849 
z"/>
<path fill="#D6D7D7" opacity="1.000000" stroke="none" 
	d="
M697.972778,618.221558 
	C700.141968,617.819580 702.189026,617.818665 704.596069,618.218689 
	C704.305115,622.050354 703.654114,625.481140 703.003113,628.911865 
	C698.941467,629.240540 694.880920,629.810730 690.817871,629.829102 
	C686.853455,629.846985 682.886475,629.301025 678.460327,629.001343 
	C677.458923,627.812195 676.754944,626.669739 676.408813,625.427612 
	C675.541321,622.314697 675.575378,619.799500 680.019714,619.975220 
	C684.483521,620.151611 688.964600,620.116943 693.428528,619.936768 
	C694.917786,619.876648 696.377441,619.081604 697.972778,618.221558 
z"/>
<path fill="#BABABB" opacity="1.000000" stroke="none" 
	d="
M135.000946,616.222412 
	C210.325470,615.897461 285.650940,615.839600 361.451843,616.135132 
	C361.926239,616.696838 361.925201,616.905090 361.924133,617.113342 
	C308.265900,617.126465 254.607681,617.144104 200.949463,617.149841 
	C184.951996,617.151611 168.954514,617.120178 152.493958,617.163452 
	C146.665344,617.153625 141.299820,617.084351 135.466537,617.019409 
	C134.999817,616.845642 135.000854,616.667542 135.000946,616.222412 
z"/>
<path fill="#BABABB" opacity="1.000000" stroke="none" 
	d="
M553.513916,617.695251 
	C556.497498,620.781067 557.576111,624.178711 556.947266,628.513672 
	C548.943542,629.426453 544.239380,625.407227 541.833191,617.724243 
	C545.499817,617.462830 549.322693,617.504272 553.513916,617.695251 
z"/>
<path fill="#BABABB" opacity="1.000000" stroke="none" 
	d="
M703.406494,628.928833 
	C703.654114,625.481140 704.305115,622.050354 705.037720,618.223999 
	C708.866516,617.601074 712.613770,617.373840 716.828796,617.261353 
	C714.824341,623.591309 711.768250,629.125854 703.406494,628.928833 
z"/>
<path fill="#A1A1A3" opacity="1.000000" stroke="none" 
	d="
M362.399536,617.129639 
	C361.925201,616.905090 361.926239,616.696838 361.912842,616.175415 
	C386.607422,615.820618 411.316467,615.778931 436.487091,615.787170 
	C436.953979,616.051697 436.959290,616.266357 436.964111,616.803833 
	C412.267365,617.133057 387.571167,617.139526 362.399536,617.129639 
z"/>
<path fill="#C9CACB" opacity="1.000000" stroke="none" 
	d="
M119.868469,615.311218 
	C120.726402,615.042480 121.475578,615.030151 122.598007,615.033081 
	C121.903725,615.780029 120.836189,616.511597 119.768646,617.243103 
	C119.765671,616.684570 119.762703,616.126099 119.868469,615.311218 
z"/>
<path fill="#EBEBE9" opacity="1.000000" stroke="none" 
	d="
M129.521545,618.533630 
	C129.481689,618.554138 129.561386,618.513123 129.521545,618.533630 
z"/>
<path fill="#7A7B80" opacity="1.000000" stroke="none" 
	d="
M1117.316895,96.534126 
	C1117.332153,98.484962 1117.175781,99.976799 1117.175659,101.468643 
	C1117.170776,169.888504 1117.177490,238.308350 1117.196899,306.728210 
	C1117.197510,308.555878 1117.352783,310.383453 1117.519165,312.614929 
	C1117.497681,353.296753 1117.338379,393.574615 1117.303101,433.852631 
	C1117.264404,478.131409 1117.338501,522.410278 1117.366943,566.689087 
	C1117.372437,575.198425 1117.379272,575.196045 1108.930664,575.354248 
	C1108.266479,575.366699 1107.603638,575.446472 1106.105713,575.470947 
	C1104.159790,575.554260 1103.048340,575.661560 1101.936890,575.768921 
	C1085.941162,575.677795 1069.945435,575.586731 1053.057129,575.468811 
	C1046.088745,575.550293 1040.012695,575.658630 1033.936768,575.766968 
	C1028.274780,575.676575 1022.612732,575.586243 1016.058105,575.469360 
	C993.758240,575.393066 972.350952,575.302246 950.943665,575.309326 
	C938.668457,575.313416 926.393250,575.476624 913.697144,575.418640 
	C911.811523,575.373718 910.346741,575.478333 908.430603,575.496399 
	C863.649231,575.382996 819.319214,575.353210 774.989197,575.348328 
	C774.007751,575.348206 773.026245,575.631714 771.595947,575.619080 
	C760.445435,575.557861 749.743896,575.660522 738.703857,575.624268 
	C737.896179,575.578064 737.426880,575.670654 736.515259,575.620361 
	C721.376770,575.570862 706.680542,575.664307 691.542603,575.605896 
	C665.392212,575.401917 639.683472,575.330322 613.974792,575.315613 
	C609.340698,575.312927 604.706421,575.544250 599.675293,575.504883 
	C598.162170,575.450867 597.045959,575.559387 595.547302,575.564941 
	C594.117004,575.534119 593.069275,575.606384 591.577026,575.524536 
	C580.002991,575.452148 568.873413,575.533875 557.743835,575.615601 
	C555.252319,575.528748 552.760864,575.366394 550.269348,575.365906 
	C415.080414,575.340332 279.891479,575.328430 144.190765,574.805359 
	C143.366791,572.005127 142.789062,569.715332 142.783295,567.424011 
	C142.721680,542.957458 142.751205,518.490723 142.754623,494.023987 
	C142.774887,348.702301 142.787308,203.380600 142.830414,58.058907 
	C142.833588,47.387230 141.590424,48.898411 152.207047,48.893902 
	C240.533310,48.856392 328.859589,48.878948 417.185883,48.845795 
	C419.130249,48.845066 421.074432,48.399677 423.018707,48.161713 
	C458.030487,48.187748 493.042297,48.213787 528.756958,48.428360 
	C530.646545,48.478516 531.833313,48.340137 533.020081,48.201763 
	C545.721924,48.211586 558.423828,48.221413 571.791748,48.420197 
	C573.645203,48.472637 574.832581,48.336117 576.019958,48.199600 
	C585.029175,48.211761 594.038452,48.223923 603.719727,48.419739 
	C605.268005,48.472366 606.144165,48.341343 607.020325,48.210320 
	C613.696106,48.218456 620.371887,48.226601 627.811035,48.434441 
	C630.723267,48.491043 632.872131,48.347950 635.020996,48.204857 
	C654.040771,48.214058 673.060608,48.223259 692.812744,48.428085 
	C695.370117,48.481941 697.195251,48.340179 699.020325,48.198418 
	C834.742798,48.335182 970.465271,48.471954 1106.187744,48.608624 
	C1108.186157,48.610638 1110.205688,48.796696 1112.178711,48.573547 
	C1116.103516,48.129639 1117.308228,49.645458 1117.249878,53.611187 
	C1117.041626,67.762924 1117.199097,81.920052 1117.316895,96.534126 
z"/>
<path fill="#C8C8C9" opacity="1.000000" stroke="none" 
	d="
M557.719482,575.925903 
	C568.873413,575.533875 580.002991,575.452148 591.405518,575.800781 
	C587.913696,577.004944 584.723877,577.574951 585.035522,583.107117 
	C585.542053,592.098633 584.960449,601.151550 584.829712,610.796631 
	C585.425476,611.625977 586.773621,613.502686 588.121765,615.379395 
	C586.644165,615.539551 585.166626,615.838562 583.688965,615.839478 
	C549.309814,615.860474 514.930725,615.851135 480.551575,615.833069 
	C479.561157,615.832581 478.570770,615.675476 477.115967,615.371887 
	C478.349213,613.548645 479.782410,611.388245 481.789032,610.434631 
	C492.050140,605.558105 502.414124,600.889526 512.827454,596.343750 
	C527.019775,590.148193 541.294556,584.141541 555.512085,578.003235 
	C556.339783,577.645935 556.971924,576.835632 557.719482,575.925903 
z"/>
<path fill="#C8C8C9" opacity="1.000000" stroke="none" 
	d="
M422.731812,47.851021 
	C421.074432,48.399677 419.130249,48.845066 417.185883,48.845795 
	C328.859589,48.878948 240.533310,48.856392 152.207047,48.893902 
	C141.590424,48.898411 142.833588,47.387230 142.830414,58.058907 
	C142.787308,203.380600 142.774887,348.702301 142.754623,494.023987 
	C142.751205,518.490723 142.721680,542.957458 142.783295,567.424011 
	C142.789062,569.715332 143.366791,572.005127 143.711700,574.721436 
	C142.530762,573.711914 140.338379,572.313782 140.282150,570.834412 
	C140.093842,565.880371 140.945953,560.894775 140.901215,555.925781 
	C140.746933,538.787781 140.280396,521.652527 140.126617,504.514465 
	C139.986557,488.906281 140.040573,473.295563 140.110077,457.686401 
	C140.373154,398.604340 140.770706,339.522736 140.937485,280.440430 
	C141.079391,230.171265 140.973785,179.901382 140.976334,129.631821 
	C140.977112,114.192673 140.973679,98.753532 140.971786,83.314384 
	C140.970551,73.206383 141.219376,63.089447 140.859253,52.994236 
	C140.684174,48.086292 142.351349,46.916279 147.069366,46.925751 
	C217.558807,47.067299 288.048615,47.023708 358.538361,47.027126 
	C378.035461,47.028072 397.532623,47.027092 417.029663,47.068272 
	C418.835052,47.072083 420.639832,47.375847 422.731812,47.851021 
z"/>
<path fill="#C8C8C9" opacity="1.000000" stroke="none" 
	d="
M634.778503,47.897491 
	C632.872131,48.347950 630.723267,48.491043 628.278076,48.419960 
	C630.166504,48.000565 632.351257,47.795345 634.778503,47.897491 
z"/>
<path fill="#C8C8C9" opacity="1.000000" stroke="none" 
	d="
M698.788208,47.896660 
	C697.195251,48.340179 695.370117,48.481941 693.263550,48.411488 
	C694.840088,47.997814 696.698059,47.796356 698.788208,47.896660 
z"/>
<path fill="#C8C8C9" opacity="1.000000" stroke="none" 
	d="
M532.822266,47.911526 
	C531.833313,48.340137 530.646545,48.478516 529.220825,48.413811 
	C530.196106,48.014248 531.410217,47.817768 532.822266,47.911526 
z"/>
<path fill="#C8C8C9" opacity="1.000000" stroke="none" 
	d="
M575.822205,47.910095 
	C574.832581,48.336117 573.645203,48.472637 572.220093,48.403885 
	C573.196411,48.005943 574.410461,47.813271 575.822205,47.910095 
z"/>
<path fill="#C8C8C9" opacity="1.000000" stroke="none" 
	d="
M606.850464,47.929832 
	C606.144165,48.341343 605.268005,48.472366 604.186951,48.405602 
	C604.881531,48.021660 605.781067,47.835503 606.850464,47.929832 
z"/>
<path fill="#E2E2E2" opacity="1.000000" stroke="none" 
	d="
M914.118042,575.568176 
	C926.393250,575.476624 938.668457,575.313416 950.943665,575.309326 
	C972.350952,575.302246 993.758240,575.393066 1015.615845,575.604980 
	C1015.124756,576.995911 1014.183289,578.224731 1012.333618,580.638916 
	C1016.048523,582.790222 1019.653259,584.972351 1023.354553,586.976074 
	C1024.915894,587.821411 1027.048828,587.881531 1028.291382,588.999451 
	C1034.687378,594.753662 1042.679932,597.174866 1050.345703,600.446655 
	C1054.779663,602.339111 1058.493286,605.859924 1062.705444,608.353210 
	C1065.269775,609.871094 1068.220459,610.721619 1070.887817,612.086304 
	C1072.058105,612.685059 1072.954590,613.818542 1074.022705,615.041138 
	C1072.338867,615.536316 1070.607544,615.699463 1068.444580,615.911377 
	C1002.931396,615.904907 937.850098,615.863342 872.768799,615.787964 
	C846.472595,615.757507 820.176514,615.652954 793.302612,615.184326 
	C792.048279,613.676575 790.858643,612.602600 790.777832,611.450806 
	C790.225464,603.584167 784.459106,600.960632 778.323425,598.591125 
	C777.091064,598.115295 775.730347,597.653748 774.803833,596.785400 
	C773.671753,595.724365 772.219543,594.277283 772.151978,592.934448 
	C771.864929,587.229980 772.039124,581.502197 772.044800,575.782959 
	C773.026245,575.631714 774.007751,575.348206 774.989197,575.348328 
	C819.319214,575.353210 863.649231,575.382996 908.570251,575.784424 
	C910.813538,575.962036 912.465759,575.765076 914.118042,575.568176 
z"/>
<path fill="#E2E2E2" opacity="1.000000" stroke="none" 
	d="
M1034.012451,576.114319 
	C1040.012695,575.658630 1046.088745,575.550293 1052.614258,575.604370 
	C1052.906860,576.236084 1052.738281,577.119141 1052.594116,577.115173 
	C1046.424194,576.946716 1040.256348,576.699341 1034.012451,576.114319 
z"/>
<path fill="#E2E2E2" opacity="1.000000" stroke="none" 
	d="
M1095.010742,615.098877 
	C1093.628540,615.508118 1092.194092,615.593811 1090.347046,615.530029 
	C1091.194824,611.740173 1092.921631,611.971375 1095.010742,615.098877 
z"/>
<path fill="#E2E2E2" opacity="1.000000" stroke="none" 
	d="
M1101.991211,576.070618 
	C1103.048340,575.661560 1104.159790,575.554260 1105.667480,575.606873 
	C1105.125122,578.628845 1103.792358,578.874573 1101.991211,576.070618 
z"/>
<path fill="#DBDBDB" opacity="1.000000" stroke="none" 
	d="
M588.568726,615.499268 
	C586.773621,613.502686 585.425476,611.625977 584.829712,610.796631 
	C584.960449,601.151550 585.542053,592.098633 585.035522,583.107117 
	C584.723877,577.574951 587.913696,577.004944 591.849976,575.954834 
	C593.069275,575.606384 594.117004,575.534119 595.690674,575.806519 
	C597.501831,575.989990 598.787048,575.828735 600.072266,575.667480 
	C604.706421,575.544250 609.340698,575.312927 613.974792,575.315613 
	C639.683472,575.330322 665.392212,575.401917 691.495483,575.949707 
	C690.139038,576.963623 688.414917,577.789185 686.632141,577.945679 
	C679.660156,578.558044 672.669617,578.959045 665.685974,579.438538 
	C665.620911,579.854675 665.555908,580.270874 665.490906,580.687012 
	C666.937988,581.124207 668.357849,581.771362 669.836731,581.963684 
	C678.185974,583.049438 686.594543,583.758972 694.887146,585.162537 
	C698.544189,585.781555 702.260376,587.263489 705.443787,589.189819 
	C710.468933,592.230591 714.921570,596.207458 719.894653,599.347778 
	C723.636536,601.710632 724.827698,604.468262 723.227234,608.540222 
	C722.770935,609.701172 722.495789,610.933167 721.954895,612.744324 
	C724.173096,612.848511 725.784424,612.984558 727.396179,612.989563 
	C734.888062,613.013062 742.383423,612.884827 749.869019,613.103882 
	C751.263855,613.144775 752.619385,614.528687 753.992981,615.292725 
	C741.712524,615.463562 729.432129,615.777588 717.151672,615.779114 
	C674.439697,615.784302 631.727661,615.681152 588.568726,615.499268 
z"/>
<path fill="#DEDEDF" opacity="1.000000" stroke="none" 
	d="
M754.444458,615.443420 
	C752.619385,614.528687 751.263855,613.144775 749.869019,613.103882 
	C742.383423,612.884827 734.888062,613.013062 727.396179,612.989563 
	C725.784424,612.984558 724.173096,612.848511 721.954895,612.744324 
	C722.495789,610.933167 722.770935,609.701172 723.227234,608.540222 
	C724.827698,604.468262 723.636536,601.710632 719.894653,599.347778 
	C714.921570,596.207458 710.468933,592.230591 705.443787,589.189819 
	C702.260376,587.263489 698.544189,585.781555 694.887146,585.162537 
	C686.594543,583.758972 678.185974,583.049438 669.836731,581.963684 
	C668.357849,581.771362 666.937988,581.124207 665.490906,580.687012 
	C665.555908,580.270874 665.620911,579.854675 665.685974,579.438538 
	C672.669617,578.959045 679.660156,578.558044 686.632141,577.945679 
	C688.414917,577.789185 690.139038,576.963623 691.937256,576.101562 
	C706.680542,575.664307 721.376770,575.570862 736.548218,575.873901 
	C737.358765,576.695251 737.694092,577.120239 738.029419,577.545166 
	C738.367065,576.951172 738.704712,576.357178 739.042358,575.763184 
	C749.743896,575.660522 760.445435,575.557861 771.595947,575.619080 
	C772.039124,581.502197 771.864929,587.229980 772.151978,592.934448 
	C772.219543,594.277283 773.671753,595.724365 774.803833,596.785400 
	C775.730347,597.653748 777.091064,598.115295 778.323425,598.591125 
	C784.459106,600.960632 790.225464,603.584167 790.777832,611.450806 
	C790.858643,612.602600 792.048279,613.676575 792.851074,615.056519 
	C780.283569,615.415710 767.589722,615.504883 754.444458,615.443420 
z"/>
<path fill="#C8C8C9" opacity="1.000000" stroke="none" 
	d="
M913.697144,575.418640 
	C912.465759,575.765076 910.813538,575.962036 909.021606,575.870972 
	C910.346741,575.478333 911.811523,575.373718 913.697144,575.418640 
z"/>
<path fill="#C8C8C9" opacity="1.000000" stroke="none" 
	d="
M599.675293,575.504883 
	C598.787048,575.828735 597.501831,575.989990 596.073242,575.909607 
	C597.045959,575.559387 598.162170,575.450867 599.675293,575.504883 
z"/>
<path fill="#DBDBDB" opacity="1.000000" stroke="none" 
	d="
M738.703918,575.624268 
	C738.704712,576.357178 738.367065,576.951172 738.029419,577.545166 
	C737.694092,577.120239 737.358765,576.695251 736.990479,576.016846 
	C737.426880,575.670654 737.896179,575.578064 738.703918,575.624268 
z"/>
</svg>